<mxfile host="app.diagrams.net" agent="Mozilla/5.0 (Windows NT 10.0; Win64; x64) AppleWebKit/537.36 (KHTML, like Gecko) Chrome/138.0.0.0 Safari/537.36" version="28.0.4">
  <diagram name="Activity diagram" id="c-biMQeSAWZMSic_TyDQ">
    <mxGraphModel dx="2643" dy="2943" grid="1" gridSize="10" guides="1" tooltips="1" connect="1" arrows="1" fold="1" page="1" pageScale="1" pageWidth="827" pageHeight="1169" math="0" shadow="0">
      <root>
        <mxCell id="0" />
        <mxCell id="1" parent="0" />
        <mxCell id="SwHwOmNfwHO3F5PcCJjN-112" value="" style="swimlane;horizontal=0;whiteSpace=wrap;html=1;" vertex="1" parent="1">
          <mxGeometry x="56" y="90" width="730" height="280" as="geometry" />
        </mxCell>
        <mxCell id="SwHwOmNfwHO3F5PcCJjN-113" value="" style="swimlane;horizontal=0;whiteSpace=wrap;html=1;" vertex="1" parent="SwHwOmNfwHO3F5PcCJjN-112">
          <mxGeometry y="140" width="730" height="140" as="geometry" />
        </mxCell>
        <mxCell id="SwHwOmNfwHO3F5PcCJjN-118" value="PRODUCT" style="text;html=1;align=center;verticalAlign=middle;whiteSpace=wrap;rounded=0;rotation=-90;" vertex="1" parent="SwHwOmNfwHO3F5PcCJjN-113">
          <mxGeometry x="-15" y="55" width="60" height="30" as="geometry" />
        </mxCell>
        <mxCell id="SwHwOmNfwHO3F5PcCJjN-125" value="" style="rhombus;whiteSpace=wrap;html=1;" vertex="1" parent="SwHwOmNfwHO3F5PcCJjN-113">
          <mxGeometry x="235" y="30" width="50" height="50" as="geometry" />
        </mxCell>
        <mxCell id="SwHwOmNfwHO3F5PcCJjN-126" value="" style="endArrow=classic;html=1;rounded=0;" edge="1" parent="SwHwOmNfwHO3F5PcCJjN-113">
          <mxGeometry width="50" height="50" relative="1" as="geometry">
            <mxPoint x="261.25" y="80" as="sourcePoint" />
            <mxPoint x="261" y="160" as="targetPoint" />
            <Array as="points">
              <mxPoint x="261" y="120" />
            </Array>
          </mxGeometry>
        </mxCell>
        <mxCell id="SwHwOmNfwHO3F5PcCJjN-127" value="" style="endArrow=classic;html=1;rounded=0;" edge="1" parent="SwHwOmNfwHO3F5PcCJjN-113">
          <mxGeometry width="50" height="50" relative="1" as="geometry">
            <mxPoint x="235" y="54.72000000000003" as="sourcePoint" />
            <mxPoint x="160" y="55" as="targetPoint" />
          </mxGeometry>
        </mxCell>
        <mxCell id="SwHwOmNfwHO3F5PcCJjN-128" value="Yes" style="text;html=1;align=center;verticalAlign=middle;whiteSpace=wrap;rounded=0;" vertex="1" parent="SwHwOmNfwHO3F5PcCJjN-113">
          <mxGeometry x="220" y="70" width="60" height="30" as="geometry" />
        </mxCell>
        <mxCell id="SwHwOmNfwHO3F5PcCJjN-129" value="No" style="text;html=1;align=center;verticalAlign=middle;whiteSpace=wrap;rounded=0;" vertex="1" parent="SwHwOmNfwHO3F5PcCJjN-113">
          <mxGeometry x="190" y="30" width="60" height="30" as="geometry" />
        </mxCell>
        <mxCell id="SwHwOmNfwHO3F5PcCJjN-130" value="DISPLAY OUT OF STOCK MESSAGE" style="rounded=0;whiteSpace=wrap;html=1;" vertex="1" parent="SwHwOmNfwHO3F5PcCJjN-113">
          <mxGeometry x="40" y="30" width="120" height="60" as="geometry" />
        </mxCell>
        <mxCell id="SwHwOmNfwHO3F5PcCJjN-139" value="" style="endArrow=classic;html=1;rounded=0;" edge="1" parent="SwHwOmNfwHO3F5PcCJjN-113">
          <mxGeometry width="50" height="50" relative="1" as="geometry">
            <mxPoint x="90" y="90" as="sourcePoint" />
            <mxPoint x="90" y="350" as="targetPoint" />
          </mxGeometry>
        </mxCell>
        <mxCell id="SwHwOmNfwHO3F5PcCJjN-119" value="USER" style="text;html=1;align=center;verticalAlign=middle;whiteSpace=wrap;rounded=0;rotation=-90;" vertex="1" parent="SwHwOmNfwHO3F5PcCJjN-112">
          <mxGeometry x="-15" y="50" width="60" height="30" as="geometry" />
        </mxCell>
        <mxCell id="SwHwOmNfwHO3F5PcCJjN-121" value="" style="ellipse;whiteSpace=wrap;html=1;aspect=fixed;" vertex="1" parent="SwHwOmNfwHO3F5PcCJjN-112">
          <mxGeometry x="70" y="40" width="50" height="50" as="geometry" />
        </mxCell>
        <mxCell id="SwHwOmNfwHO3F5PcCJjN-122" value="" style="endArrow=classic;html=1;rounded=0;" edge="1" parent="SwHwOmNfwHO3F5PcCJjN-112">
          <mxGeometry width="50" height="50" relative="1" as="geometry">
            <mxPoint x="120" y="64.67" as="sourcePoint" />
            <mxPoint x="200" y="64.67" as="targetPoint" />
          </mxGeometry>
        </mxCell>
        <mxCell id="SwHwOmNfwHO3F5PcCJjN-123" value="USER SELECTS PRODUCTS" style="rounded=0;whiteSpace=wrap;html=1;" vertex="1" parent="SwHwOmNfwHO3F5PcCJjN-112">
          <mxGeometry x="200" y="35" width="120" height="60" as="geometry" />
        </mxCell>
        <mxCell id="SwHwOmNfwHO3F5PcCJjN-124" value="" style="endArrow=classic;html=1;rounded=0;" edge="1" parent="SwHwOmNfwHO3F5PcCJjN-112">
          <mxGeometry width="50" height="50" relative="1" as="geometry">
            <mxPoint x="259.67" y="95" as="sourcePoint" />
            <mxPoint x="259.67" y="170" as="targetPoint" />
          </mxGeometry>
        </mxCell>
        <mxCell id="SwHwOmNfwHO3F5PcCJjN-199" value="&lt;h1 style=&quot;margin-top: 0px;&quot;&gt;Product Flow&lt;/h1&gt;&lt;p&gt;For managing product creation, deletion, and updating, we need to verify that our user has sufficient permissions. This will be handled through the GATEWAY, which receives all requests. The gateway will check that every incoming request includes a JWT token in the header and, of course, that it has the appropriate role for the action; otherwise, it will block the request.&lt;/p&gt;" style="text;html=1;whiteSpace=wrap;overflow=hidden;rounded=0;" vertex="1" parent="SwHwOmNfwHO3F5PcCJjN-112">
          <mxGeometry x="534" y="15" width="180" height="250" as="geometry" />
        </mxCell>
        <mxCell id="SwHwOmNfwHO3F5PcCJjN-234" value="" style="shape=image;verticalLabelPosition=bottom;labelBackgroundColor=default;verticalAlign=top;aspect=fixed;imageAspect=0;image=data:image/png,iVBORw0KGgoAAAANSUhEUgAAAJQAAAB5CAYAAADf5giIAAAAAXNSR0IArs4c6QAAAARnQU1BAACxjwv8YQUAAAAJcEhZcwAADsMAAA7DAcdvqGQAACAFSURBVHhe7V0JmFxVlT5vqaquXtLZyNIQghCySAgIJrSomE8+zRcVZQuDrAKjCKNfYJhRZxTGBRHG5RMHHVFcgzMMIBAVMGhYggKRJRAiECAhIRskHdJLumt525z/3LqV1y9V1dWdAtLV7//69tvuve/ec/97zrn33XrPcK5pCChGjBrBLGxjxKgJYkLFqCliQsWoKWJCxagp6oJQBoYVLm8dtdVBH2Mr+wAfB4aKUg55vi4I5VEpIL9imhGOYT/KA5n6mk8g6+BZZBgNhbN7I5/LktezgRo2LyMz2SLnbOqRbRTIM+dOIu/QD5HXZFCzdQA5AdizN9zdW4k230eNXpccg1wjGcOfUKxBnAuWU2JKuxwHrHRt2VPIc7DIl/NG1wvk/OgEIVKeLySTKk4pdL7jFBpz5s3kcbqwGg/nDSD//APfpoa/XEWu3VKWpCMFw97kBR4TxmqWhgd8Dh7/1xYJnLH4GojgNUzk/0wmaJFUBW3CCcekJlMvp0vwDQzOTwfkrfPHFmi0WigrezHqw4fKe6KFgDCBotokrJBM1sseh5KkKiRsVBvJLxoQBdv+AhzZ2gmoC0INFiCTRilSiZNfgGFYhb3SUDRWiBJ4JKJuCAUfqRr4TB4EvW+V0lAhBLCpFRC+60h3yIG6IRT8G5BqIAKEAU1lhlVMAcgiZ3iicXyjepZA2410jEiTVy1KTxTEqIS6I9RAPk8UsZmqLUachgo75AAc8NhU1Q51R6jB+FAxao8Rb/Ji1BaxUx6jpohNXoyaIjZ5MWqK2OTFqClikxejpohNXoyaIjZ5MWqKEWfy9EoDDTx60SsOMGuuw2DgmKY8ZI7mHc5vKGE4YsSZPM9olccvjtkqwaUW8oIW2TqGCiBZPsiQn9tVXAlaDuHFCsgb+eig8xtsyPEtEYYjqeqOUBVheZRvmkrUTZTo7KJkbxcZmR4+7pGtDtkMR508jyg1hhIuH1QABJgYO5XMLBXz29fgc/kox6SPaLzhgOH/bgMs5r7gETIOOUrWQ1ls8sppKbRTA2sdK9enTpRD0CPrz60UtFlQUevpdeXUvU1tawDXZGKtv5/cO6+o+EOK/RF1R6iBluFijZM2U+XaSsfBOnWsG6+EsM9WqxGm3J+Jn/v+LEr7XcUlNsPBBI4sk8cA4UCkSh1fxxmITABIpEMtMNzn0eqOUPHE5tuLuiNUrTTF2wnTVbYt4fvDbhphxJm8/R2D+VHE/ojY5MWoKWKTF6OmiE1eDeAXfB793gMd9PsPsA3cjAqsQXWoR8QmrwYI7ECIEwV+fKq3vp0iz06TxxoUoV4Rm7x9hGijXJeaKedgFfaxDQecc3dtK77FpV4x4mbKaw08zml+9nbafs8X6ABvm8xqw8RJObBTAIqZGX8cjT3rx+S1ziw7sQqCGq5BrtdJ/vdmUCLoGVY/Ro1N3j5CXvmzq4NGZbfJw1zNIWzziT3BZoaN3bGS/N68PNKpV8Qmbx8BagQBUyQiSayxSrLu1wEQTcPEqvZNMcMR9VuztwgQoGEorQgSwdQh7D2z3UL5+lVMRdQdod7O4XildyT4xsh4u13dESqe2Hx7EZu8twjRt77UK2KTt4+Av4QfKTTI8E69/1wDp3TADxiSkLbEq1/EJq8GyNt8TzCLEf6Rgp9nIungsI+FrzJwvAEWIA9rxCavBgjyHfLDBj/fQ7bbI5OR2IdGEq3EwDcePHCdNVRTPFO+H2MQP1J4M4AvKRjbV1Pu78solUVhmDP5XrKTTWR4e/prYPkUNDcSzbtQfvxQbnnxcJ8pjx+91BBwj8rdX18DAeXrDGVIHz96GeEAATAQQAiTCcfy4LgQoDkBPHap56mNuiPUWz3Kg+kCQcIkES3Dx7imgwZ+51fPqDtC7Q+9v5R/pMu1P5TvzURs8mLUFDGhYtQUdUMovCUFju9b7UPVGvCxfHsYDesiqC8N5WFQrhzz4RrgY+lpT6v5oMLe8EFs8vYz5PF2GKYUlgjv7OtUJ4cR6oJQfk6tNXLsNDncw9HLdcAvTMLH+3swU2PEfHu5PhqVC4bVpCYw7GfKsTLSnbSA/HEz5XFHPcC3dlP3upXU1LWyuHx4uGD4P3oBXPUEBsBD2PDyW3ZLhhcK0+1SB96PNdTbgLDQ8b7M4Y8eWT+Fd3bihWPDCXVBKKw9QiOgc0d/HBD9Ncr+DrUuvUUeCgOxhnobockUbQScx7l+pjB0HL2mofMpdQ2olK5c3qXS6HPYaoTTDyfU3bRBqQbQ57DVIXwc3g8HjVLXEMpdC58P75c6Dp+rB9QFoXRv1uYNxzoMN+hyh8k2nFAXhNKC1wTSjTEcG2S4lluj7kxejLcXMaFi1BQxoWLUFDGhYtQUMaFi1BQxoWLUFDGhYtQUMaFi1BQxoWLUFDGhYtQUMaFi1BQxoWLUFDGhYtQUMaFi1BQxoWLUFDGhYtQUMaFi1BQxoWLUFDGhYtQUgyKUXjwPVHp/u15o/2ZA3xf5Y38w99FlD6cZTB7qnrX5IWlYfjpPlK+SXKOQuPxPvRd9z3r0aH2i5/aKyydU3dS+ym9o9RwUoRyjRW7sZYjsrNqGg/weHIELleOcpVBSyn0H8pJKIz++R5BT5/usVrVTBfAjSiTP4SX0XF4l5OoFhwawqadY37x6e9CQkOB7S3rIq7uH3O7Blwe/LpY0nB7t4fdxg/qqnGEgDs6h7iJH1J0D4mc8LgenyezmunEEfNtvXzCoH3qiYGjA4D2XUyo1Rc7lAy5ZASmnk7w3dlCm4wVq2LyMklxQt6FFGmFfAWHgiwTG0YvJnXg4C+QNSj96lZC82vylAY+6mKzJ88jIb6P8g18hkwWYLHzhYCCg/k7DbDLmfbpw3EPWA1+hYJCNgLpI473/K2TZB6gvMTDyT/yERr+xuvr80LHa/52yY9rksKmplZzHb6bg9WX9qoNyo4OnuP453remLKBE+yXkTJhFqZYWedOL07WRzA2PUu6Rb1M630WZ5NB+Bj9oQuVb28n6xzvktTN4MVZYxelK4MVZfvdLlFv1W6KHrqZUQUDRnjMYSO9i3tiXLKf8lOOpqXsLBddPI5dvWgUXBNAqiUVLyD3ydJbsLsp9fxY1BF1Sr2qAeF1NM6l18ZPyyp2g41Wy/muGekNHBJInF7oUOSAHaAf7X16m3lEHSnIoKlpxHaX+/FWy0jgYGHnOx758q7xIv7fQEomlX6LE6uv7CUU6UorbKjmbaNH1ZLP8AB/vomIyWalGynN7Cvic98frKPEU51GoF8pbrYwGafI44xzrxgLwBYHMb86j/F2XkXHnFeTc+w3yn1vGLZdX39Wd/2Wyz1wmJkbSVlmoUoB8GrhxzD6XRqlTg/6gYQBNZLUUK53gHogygazVosXkigwEzhCmZNf0U3hX+Tel4O/eKZ/pSLgZabv0tIVyHkRBmqi8tNmSjsk73pRFQibTzVELd2J8rjbB9SslF7x4wzjvt2QymSy+H9oMHQqdMvu9NspxO6I9iYllfeJa0XzixjCynLZsJSIYFKE0ElaBulyRxJrbKPnsjZRb+yMyH7+GnFtOpo6fLiSr6wXRYInp7yX7g1eLzYZ5qjWq1U4afj4rafRHpCGnweThORa5f7mJgr/8hBLP3bN3Ys4w03oC2Z9aTuNO/5l8qcoxuTFLdCazeZx8/cFZ97i8tS5om0PmAbPknVAJJj/MVBjIA18NBfAhoqY5H1ea8vm71UnA3+OCaFhM7tTJt1Jq/MFC3vyvP0n0zI1yTb6HzGVuXHcbGTceJ6RCWcyFXyZr6nypT8LnlqxSSIMilM7T8URBk5+cSD5zC2YHQnC4cEG6hca8tpL6/nCNFAxvlLOOOlOuQbj7oqVqDVWf6gcOYqrya8h5YDF5yxdT30OX9xO0HoQkjzlNNAHkBC2IBhGtUgbutoflM/yQanD02aIZYCrNEq8mwsACMoSc8we9Vxqwd/Xv5O13GvqDRQIuj3fMxUQzTpDPggSP/Iq8TcsoxeVB2VLMFfhLfazpsHVvWyzJQFT3w1eKtrMMHjTI2YExKELpTLWGslhlw/GGTFFJjFzkNTR82Xr5NhESbLLZMomsse0lnTyk0ySD0HUQoRW2uG+5BtHpM6wFEAdxpWEL1ypB1yfUFsVzelQZzYPbmdIc32QVhy+d63sC+AIVGlw72ZATBhLhV/OUyjPZnRGnGGbLmPEhcjhD5IkvW4WBc1pDGROPJ3PMZDLYEtidm9TJAkACLQMkShx/oewmuS06V90oZUdZMErE+yDQLvAlQXzz9cfIeO5PEj910HFkHnIqO9r9+k1FDIpQUQRJqzgUl2MuoBYw1Cx8BDjv0FJmWql9+FKIA0cR8eBrwMfCMRxVJ6cC4uDlYdpMqvcmKcDpByAMMQucUbqvS9LDtCYc9cGdgaYUIFC8VwrZ4f7QDEgvjcAkwL2jZhp1QHyYCQDDdGg5HEIzwE9LuujfCigj6gz1g4ZBeeEj9YOZJuP5pRzPImPCHLIObJcGdO3+98Y5yARTDIm558g9jGcepGTroXI9DN9pkjI5E9rJnDBbWYudm6hp5wvS8dGJoJ00uVU9FGFzLz0g+1Kewz4gcfYqcxnoeu8z0IAaUnH0YvYRAFTGz/BQVPFAyAHh+84kCt5xLnkLbiDzwuVknL2Mkp+4RYb2QfMssrPlpwMcT31F0wIJp55KdMotFHx6OSXOvItycy4Wkjbmyg97of6RFhrEO3CB3FfufwY37Lu+rjpGREMA6PmZQxdR/siLyZ4wX8gCAlNqNjlzFpNzxLlkHDBTRbaSZPG5xMxLyTlmsaTBSKvUezODNfeLfwPZmUexj8N1AynCQJngNri8Daa+R871Pn0n7Q66i51MI5l4TepmH/pB8dMQ/PWPFa72by8Ax9q67N76mPiYIId5aDs53Mmq/cTtPhHKyHvSI8FqzXQpKAsjMXYWeTwklq8wsekLOh5jE6G+colJuO62BZT47FJKnfMTamy/gCyrmfxGm/2tj1Hy5O+Tef7viQ6eL2o/qm59wyCDvVKX88p/5AZqOP83ZBx9kgyH/XcuIJfTpy5aSZ1j50hZygGklwHDhXfJfemQI8mb/WGyPvavZFy6ihJMNNwfddP1Q4M2nvQtuYf5nstkKgN1tmZ9XEZHLVwf+CsYkgMJPued8l25ZnMa911nqGF8CA6abwf7Zuyc45I956PidJuJXhUhBCvbRfaMU0W2ARzoXStY0yTlbcelYE2dJ1uDO7W9Yy1Z8HML7RUlFYAOk+5YSQGTGwjGTSEa1V9TVsKQCYUCwuTBKYcahnmBSofZgQ33Tr5BnEw0fu6pXxbf3QT7nWWGtCxkLcDqHXa96/pjZYRh33Qiedc2i6ACFph9/hLJo+gPFICP85h+JzuNX6fUu06lzjsvJveqJsp+I03ZB76tfBEeMY0646cyYCj6Q3CAGOAY5l/yc86j7PuvoOC+L1LmumYy/7ONPN4HgtaZrLF+QW7TbHVcED4aFFBeJBOmwPaeF++gzJJF5P5sIdnP3i7Db9Td+/nJMiRH8H91NqXW/C9fU2lc7pAaNsvFWP+Q7HupRvIntvNefw0JOZswnWyGIJfseh4d9ldMReh+5I2eXNjjc7vWFfZKkwl9Hx2GmEt+3xtyDtMSwagjxExWgyETCiqUrS33RN5091Cyt0tmYfMzFlHikpUyymlhlrsrbyH/vqulAXweLWA4DDOAITKEsvuRm6jxtRfI5QggGmx19r4bhLB5ezwFbF6izql8daB1CjXN/2fK3fZFavjbr8nm9LiHfd9V1PPwd+S7viCs2/51MZ3whWQeCnE4YDLPPOVGSt/7DXIe/EHRDHmP/oC8pV/iuzOYFJgVx2MeaBWUTXcMwFBOmPgjjX0vUNPmP5D78oPk9CkV5LHJxYgqvf42CYktd5Cx+3m51g/eTso0sr/3zDUikyTfN3XkP4gmDwNPBJzRraLBZP5q7f0yMFDX+gNFA9m026FRRpEJcE2mCBjwfwG0M/zfajFkQqECiXHTqPGTSyh57l3if6QuW0WNZ/+S7LGHk7H1ceq+49+I7r6IGljBwMGEHcb0gTmOnUjWTDLbveUl0RwQgIyeuBcmtq+SxkDhjDY2QwUiaKDn29Zocnf8nUckS8jn+kJDYk4FfnjyiduFzLYbUPqYkyhfopYuN1oTj5ByD1+jyodzcIJZewRPX8+OdYf4fsn2cyU9ZvtRfjyqiQKONsy+aMLCdfggejSMfBG0g18iC4HHyi+56RG1P+146WBhyMCl7f2iveFGGOtYK/J9i/OCIeAemmygCL4hk9+tzFg5lNJaSGsnx5W8VgpDJhRsbDfU+pGn0272W+A3YHYc5sjdziR5YilZa28UzYEhPaCmFTjtw4vJvbaN3O9Mo8SmJeQ1KgFA4NBiEhdDbmwbWXgR6A/sGI/dSg1pbmyOiKEvyCivlWZ/JLdtFTeiQeaow6l3ApvTiIOPvDNP/V5Mljap0ADIC2Yl9+IfZS4GX2fAsy+YA1H7hYfSEFzADNNaT216isN6Da3RkDecXu2LhYEX9mOUCjJaa5YLuc222ZQfVXDuC4DGaTmaNRfvu88/JP6QJk0poPMW4eW5E+arIoZdKGM461LlLoUhE8q3U5Teulp8hCT7BrmbPyOzxx73+gSbM+Pj7N9ctEI0RyO6HgtUj/Ig9ARrApBNSKZOi/0WLeZsolxP5e+c4PGB17FGJgC1kNBomIRDwxhbN0jl4Kw2tEwnA/eD2ggh8cpfpQyAFh7yQjxz4ytyjCTm5GPFL4Qm6jdpyJC4JYStfZiGQsZhJzg8BaKBcwF3Dufxn6u6cembjzmn+PgDwDM+Z/I8ybv7KXb+C3nrieYwcD8MgAAUWcepRIxKZKuGiMCQCaV9qOClZWRvvYPSryyh4O7F1Pfj+ZRfu0IEkmmbS008CsMQHnM1GOWFoQsJRx6cQy+F3+A0TGYNBR1SHhBQ8PojSiMxRFAsad1Y5hvrRN7IpYFHKtAwYcCcBZ1bhCRaK2rAl3ByO6WGaBOzcZKch58VbTrcD52iFKmiqNSYSrOxW5B5TbSrnGNfCRoQBEJab+ICssYfzM71Nmp5daXEKQfEl7nA7E6Rgzzzq9IXwrSEbDlABm5e+VPVYMiEUkiJNoDJEP+Dh5eY+/HvvkLmVPCw0p1+ImVHzxTtAQ0EEmESzYSTy6GLhYShv/X5lWRfuYmMr/VS82fvl2FxtHCaLPCh/L5s0YwVG6rQYzEdAEJoWE0HqNnjQo8F4KNRbqOQJDovJGXs2iFTHihD0DpBGkcEHDYjgwTyHainJ1gLwezhy+kYafZNguy4qOiUR5whHcRZe0/RVyuH4n3cnJQbNcknJxQ7VilyF89xGeDM417Qluh4A5VbY8iEws0A1bPQsJgv4i1qzz5M8OIKXJARS2LcXGkNjCBAIjF9h54lTvyoi+6idPtFki735H2UeeC75N77NT5Q8zgaembaZhsA4UCDqRGLmhUPVxhmyTD2OKo5HoUCuhE0r+DTINvotATgWHsmFb3cnvkgv+AzhVGtsDWifpaA64/RLPwed/395OS7RZRNx16yx+wd9j7RrOm/3z7gEhfUC/fJvrpajpGuccrc4gCnVJkhB8gkNXoWa+WxQg64Hn7PmuJM+kAYMqE0tNaA2tcMR8N5G/+mDhjJQ94tFcGzLoyi8m3sxJ/zU+rlHog5J/hhzn8fR9Y9F5G54iry1t5SXA2gocijoAsN4UcbR45Zmt4oNVyWfHhYrtdkgRzhSmMF6F4mj+tht4wtPnB1+raI1kMd9x5P1RYY7RqbHyNj5yYhBWaqZfKYBwZYLYDRXaZDmcRKABlRWP/VZ2UKBp3QmzRD6lFKOwHwP9HZnSknyGBEOLRb+ZJvuoYqBa0pMPrwnv+dVCQsFExqooePOvE/ZEEYpg12/uJksjcvI6+hVVZ3JjmOldu7+2EEKGTx1Mw5Jv+wLEQTWgPHCI3j3yH3BozCw1MI09+xRdLDp/BbZglBClwrAmYBhNTpza4tovXgb2Gi9M2ErFviAhlP3CrH9uQjqPfAOWLuoFnd1XfL5GoprboXuALmK7ewPLtEQyUOmyvuR9Sf1BCisTZsmL5QiIHgP3mrWnlbzf0YQyYUEuLRi9YQ/RjMQjc614ifAvlj+h6+AXpfkGwl66CZ0pDetnXU3LWNciCRzECzpoAQph4v80T9waM3JkRu/RPqORwTwhnfXhzJaECLQHN546ZKD8MXMmnni+oio3f3nt7dN/owESJm+PutVuA87WnvlQ4BQGPCBwOi9wujMM/ZDzDx8B319AGOo50gChA/8/xN8vgGo9TUEaeTOUU94KUX7+k30kR9ywHyglxzT9+rNBRrndEf/DJlmTRqEV9hnT5vEVC2hsPmU/DOD4n/iJUMqDs6OqDjVcKQCVUJaBgswfC3P88FKDR+82wZCUH7YMpBCNmSljkP9EozibXhXGge8SXnnif7YQgZORjrlot/hVFm4oiTZM5ISFAI6H14BmdNeDeSkf3icvEBAJi91Mb7hWQQcHre52V2HwMK+HeyMpFhtc2ixJR2iRNsfZwSnV2iOTFHFZ4pjwLOvUyiOruFiqgnNC/WaGM0isZDPaFZywHlwL3w5AFmD0gfexbZEw4nZ9frMvOOqRL94LpfR44AZUWdvQcuIoutgZBk1kfJO/pi1rogY49M68j8WKZH4gcnXSf1xsBn97IfSzkw+MH94CPDPah0zwriGTogvDSrIGOjakg0fnDYiepRQvAa+VuflPNm27FMirO4J6hCY9DmfOIGcg+bV3w4GYbMOHesEaLi0Upj+wXkzF7EfgULD5qDtx3JyWSfdq1MaoJ4uRU/lAaSSVOuLaYmcqvuEN/KmvE+Ss25lNweFhT7d7jWaU4mOu1G1gamPGf0//hNttG4uzJ5lXwoEBoL17yO5+QY9W6Y80/SSdBgavqkh0kDbVwe0AJwG+iZpdKxsO4c2iW5+a9yHfLV81uVAAKj8fEjjPySc8TR7+F8Rp36LZFz56g5bGW6hFRYhJde/DJlJsyRJwy5B78lE9N0yALKLLyBkvOvlsEBlEIlDTs0QllJ6YF6PVQ55Dc8oXoqh9ShSmPIshVupKKjuOg7lDx/GVmLllL6Sy/Lw97dN19AhpeVdBro/eghmBl3/udUmVSFH4ZHPean2AdbwJU+9y4ae9mTMtwGmfxbPicLxqSlOS3KimeGxp8+R+6GVer+p3yXGj7zCFknXi9LYCYhfdtc0WJ9PNqERtBmBcLUPpQuW/j5IDSPaMhNK4pLoDMLryS6dLlMjcgSmYkLitrXxsN13jppFgqXER1GRsoMkCG7+odSDky/SLzHbxZ/BkCVEAfAUwUcS5zAFVJrgFAos/fGY+T/8MPUsHaFzOFhZN3yuZWUvrKXGr+4VVZ4YKoG9zIoy+1wGiW/sJWsCwuj8Ak8UhcoS1IO1lUn2l8t7A8I8S2ax5HTdhSZaLA3VpOz9veEB9RhZvo8lDOtPPVxhRPsVCJuZvt68jZgDTarfu7BPeufpNRB7ySr9WAKxh9CfutYrvTLFPzybLI6HiVv+kfI7N1FxoZHZYmsVRidGHyjRJCjzLO3UbPfTDSmjcwDj6CGg44l74BplAAR19xH7tLLyXvtT5QSVcR/nJY3ErCgMvv0z8jmAloTJpI1fhr3xHYyJk0n08uRs20V9d75BWpc+3+UT7eyANXzFuThs6azJx7FxHHJ3Pws+RuXFeemDC6XydL2uzqoc8PT1NzQTOboyWSMnU7Jg44hf9JMyj93DwU7npNHPubkudzgLmVf/DPR9mfY50nxPfLkmnmyuJ5BLkfJCUfzPV2yNz5NzqPfVDPzRp5HoIpUJv/rbmyj5CT2B3t2UvYVNtFdygIA4BbaJsE7predjFU3k7v2r5TIZlm+O3mQlKGgZzv3t9dZi75O1PU6+b3buKMYfMwqn89L2Pwwj9zvlzK67GyhPUphUD+jguMKfwCWS1YNsCBhz9FJw5ODcPjgb6C3YrpARldcK5gLrFuGypffpXEcrJsCsn1bxfRBA+Ehb5LVKx6OQrXDBMDOF2030iIO542y2IUlJoLcRjFf8B1K2fpSZTNbZlOQaqaM20mNfVu4hdgsYRABU8lpwnUTTcAdCxOdSAtzqoFrGKRg0hZyEQecfSi7WdXR9ZKU6F0lTjoeR2GIbsN2s0mFPMK/hRNzxdchI9wLAw08PNd1wvWcO0nWTKG+kC/yslnFQCPxXxFhOaA+nJWsTIW/h7xR5moGCrAuyBv+bHQyWGNQhILAUFBsofo0+jV2CCCCVuHFxLKrHgJHH1egYnCM4ZginVbpECxGLLgHzumn9jpvZI1K6vxkpMfHaPhwg0sjFcqp6qCg64Q8MECwAvWgWV1T5ehXP44MwujyaSCObhiUAeVG5jpvKDpZi84n0DDlGrIgpkIZQzKMQF3fU18xzXzSSeydBnFVPVW90GZajv2BdHufV/HVPsodrbvGkAhVSpBh6GMIS998IOGEgfioLOIiXbRHIP9yFVL3KQiXES2bxp7Gx/wWk7ugtUBcAD2+1D1UOi3wvVeT4jrWxIPIOr0uL/LEPTX5tSxxXZcnmp8iwN730dD30I2tyVBJzkgT7ZTVABoXD/VLlVNjUITSghkI0ThhDVMJqqL9yaDziqbF+VL5hePrDlAKOn00H31uXxAuQxT6Wpiw0TKEoa9VigMMdF1D31OjmjSDAVerekQLA+BcqUKGA1q1moJrMunepvONpsX5cvnp84ijiVkKOl44fngLhPc1cC4cSgF5RvONIvxsDHHLxQujUhx9v4Ggy4awR6vVDoMiVCnowkVRjYCigDZBXnpbLu9S58KolLYcqr1POO9S16OIximXrlxe+ny5dGFA5jpUgo5TqcMNFftMqHIYqPIjHW+GfDTpBsq72nhDwZtGqBgjEUT/D3Z76suUsGf2AAAAAElFTkSuQmCC;" vertex="1" parent="SwHwOmNfwHO3F5PcCJjN-112">
          <mxGeometry x="-15" y="122.2" width="43.54" height="35.59" as="geometry" />
        </mxCell>
        <mxCell id="SwHwOmNfwHO3F5PcCJjN-114" value="" style="swimlane;horizontal=0;whiteSpace=wrap;html=1;" vertex="1" parent="1">
          <mxGeometry x="56" y="370" width="771" height="280" as="geometry" />
        </mxCell>
        <mxCell id="SwHwOmNfwHO3F5PcCJjN-115" value="PAYMENT" style="swimlane;horizontal=0;whiteSpace=wrap;html=1;" vertex="1" parent="SwHwOmNfwHO3F5PcCJjN-114">
          <mxGeometry y="140" width="771" height="140" as="geometry" />
        </mxCell>
        <mxCell id="SwHwOmNfwHO3F5PcCJjN-136" value="SEND ORDER CONFIRMATION" style="rounded=0;whiteSpace=wrap;html=1;" vertex="1" parent="SwHwOmNfwHO3F5PcCJjN-115">
          <mxGeometry x="390" y="-30" width="120" height="60" as="geometry" />
        </mxCell>
        <mxCell id="SwHwOmNfwHO3F5PcCJjN-137" value="" style="endArrow=classic;html=1;rounded=0;" edge="1" parent="SwHwOmNfwHO3F5PcCJjN-115">
          <mxGeometry width="50" height="50" relative="1" as="geometry">
            <mxPoint x="450" y="30" as="sourcePoint" />
            <mxPoint x="450" y="70" as="targetPoint" />
          </mxGeometry>
        </mxCell>
        <mxCell id="SwHwOmNfwHO3F5PcCJjN-138" value="PROCESS PAYMENT" style="rounded=0;whiteSpace=wrap;html=1;" vertex="1" parent="SwHwOmNfwHO3F5PcCJjN-115">
          <mxGeometry x="390" y="70" width="120" height="60" as="geometry" />
        </mxCell>
        <mxCell id="SwHwOmNfwHO3F5PcCJjN-140" value="" style="ellipse;whiteSpace=wrap;html=1;aspect=fixed;" vertex="1" parent="SwHwOmNfwHO3F5PcCJjN-115">
          <mxGeometry x="70" y="70" width="40" height="40" as="geometry" />
        </mxCell>
        <mxCell id="SwHwOmNfwHO3F5PcCJjN-141" value="" style="ellipse;whiteSpace=wrap;html=1;aspect=fixed;" vertex="1" parent="SwHwOmNfwHO3F5PcCJjN-115">
          <mxGeometry x="75" y="75" width="30" height="30" as="geometry" />
        </mxCell>
        <mxCell id="SwHwOmNfwHO3F5PcCJjN-142" value="" style="endArrow=classic;html=1;rounded=0;exitX=0;exitY=0.5;exitDx=0;exitDy=0;" edge="1" parent="SwHwOmNfwHO3F5PcCJjN-115" source="SwHwOmNfwHO3F5PcCJjN-138">
          <mxGeometry width="50" height="50" relative="1" as="geometry">
            <mxPoint x="390" y="105" as="sourcePoint" />
            <mxPoint x="244" y="30" as="targetPoint" />
          </mxGeometry>
        </mxCell>
        <mxCell id="SwHwOmNfwHO3F5PcCJjN-224" value="" style="shape=image;verticalLabelPosition=bottom;labelBackgroundColor=default;verticalAlign=top;aspect=fixed;imageAspect=0;image=data:image/png,iVBORw0KGgoAAAANSUhEUgAAAOkAAADcCAYAAACVgIb9AAAAAXNSR0IArs4c6QAAAARnQU1BAACxjwv8YQUAAAAJcEhZcwAADsMAAA7DAcdvqGQAADNXSURBVHhe7Z0HfJRV9vd/ZNJ77yGUhJIQCCTUgIAICIgIiLoCdldUVt3V17Xr+l9XZXVtK7iWRUWkg3TpoYUeSIMkpPeezKROGu89N0+UlSQkmSROkvPN5zqZO/NMEpzfnHLPPbdP1TXtNTBMN0dTqUFMZiwKy4qVGf3BoI8B+jn1hZ/7YGWmbbBImR5BrjoPB2JCkV6YoczoDyoDFYL6B2Ka32Rlpm0YKLcM063p06ePFIOhylAvB1nT9sKWlOkRqKtKEZMTi6IKPXV37b3g58LuLtOLqUEdSlEhbmuUGf2hjxhmMIUVzBsm2giLlOkRdKRIa+tqkVmcjfzSImWmZXxdB8DGzEq5dyMsUoYRdKRIy6rKcSDqKPKK8+Fq5azMNk10Thzmj5kNP49BysyNsEgZRtCRIlVXaLD74kE4Gdphis8EZbZpPjz6JaaPvAVB/UcoMzeiq0g5u8swTWBoYAhnK0cMdPBucVgat094bYFFyjB6DouUYfQcFinDCErKNfjHjk+QVpiJT/d/g7zSfBy+ehLHk85g9bmN2Bt7BOsvbkdCQYpyRdfBiSOmR6BL4qi0qhyf7fsG8dmJ6O/ohYziHFiYmKG2thb25nYor66AqaEJNNpSTOw/Bg8GL4KzpYO89sVd72C8f3CnJo5YpEyPQBeRZpXk4o1NK/DniY9hiIuPMnsjOy8fxJXceCwPeRj+rg1LLl0hUnZ3mV6PlakFrMws4GbtjP72Xs0OB3NbOAkL6mRpr1zZNbBImV5FpnBlY7MScOW6ERZ/DplFOcozWia1OBNpJVnKva6B3V1Gcu3aNVRVVSE/L1+Z6V4YGKugsjeGgYlKmWmaD/d+gSJ1McwMTYUbSo4oUFWnxdW8ZKxc8A4CPfzlXFOsDd8mixeMrtvVUl1Xg9fmPcsxKdP5UJLkyKEjuHfBPXBydlJmuw++foPwzJt/wYgxgcpM06zY9TkWB9yF0V6BMDRoEHRUdiyWbXkJn8+/uUg3RO3E0ol3Y+zAUcrszWGRMh0CifTEseNY9fkX2LBlgzLbfahBLUpRedPEUVMirb9Wjyc2v4SnJzx4U5Eml2dgcchCqAxaHyly4ohhJA2ua3uIyo6ThfKt4VTCBZxJDFfudQ0sUqbXM8R5IAY7DURVrRYV1ZXNDoo/g/oHYFS/YcqVXQOLlOn1JBakIkuTgwPxx7A9Zj/WXfwJmyN3Y/2l7dgSvQcbI3dic9RuROVcweXMq4hOb53V7ShYpEyvx8/VV8SjDyG+IBkF5UUITTyNkynnsT32AC4XJ+JsdiSiCuNQa1CPe8bORfCA5jO5nQEnjhhJ908cta7iqKnEEXFNfBVXqGFrZo1MdQ5Ck04hu7oAC0fPRk1dnUwU1dfXw9jQSDY8awucOGKYDoDWTO3NbeX6JwnVoE8fGKsMYaQygrmxKUwMjWEmbtsq0I6ARcr0OuLyhQubdhFnUpse59MjkSGsqb7A7i4j6S3u7pZzu1FcWgJjAyPx7m962YbWTWvra+HnNRgTfIOV2fbDxQxMh9BbRFpcroa2Risi0JYht9fC1ByWJu0T1vVwTMowbcDOwgauts5wu8lwsXHsEIF2BCxShtFzWKQMo+ewSJkeAcV9KvFfQ/GW1rehEl8G8jdsH5w4YiTdPXFExQh14qv+pimh3weSKYm1PbAlZXoEVIxgKL6MYaSXo70CJVikTI+lrLQMZWVlsutEe8jKzMKOn3aguOj3PU6RRcr0OPJy8/Dxhx/h8Ycfw0NLHsIXwoUvKChQHm091E4mOysL1dXVyszNKSosxKMPPIJbxk3CubPnlFnd4JiUkXT3mPR69u3dh72792D6zBkYNHgQTE1N4ezijIhLETh6OBQuri6Yf/cClBSX4OD+A6gXltbBwQG5OTl44qll0Kg1OBp6VFxngqvxVzF/4QLU1NTg0IFD4rYak6dOgYuLi2w3Ex8XL+5PxsigkTAxMZH/jpkZmZh7+x345PNPMXXaVOW3aj9sSZkeh6ubK9Qlany/+jucPXMWRkZGCDsRhh++WyPE6iLnVn/9XyQmJOJvb/wNpZpS+Af4Y90P66To0tPTsf7HdVCpDHHq5CmcE8//9KNPEHclVrjP5Th5/AT++d4KhF+4IH6WCz7+18fi+3C5S8bQ0BDe/bylYDsKFinT4xgWMAx/f/8d3Hv/fdizcw9ee+k1fPfNt0hKSMKxo0dRKFzSS+GXpDtrbW2Nx5c9jn79+mH2HXPw1aovpcUcFRQEM3MzaLVaJCUlo7S0FEseWoqn/vQUJk+ZjNzcXFwMv4jTp06jID8f6Wlp8vU6AxYp0+NISU4RgkzEpFsm4Z4/3AMDgz6wsrGCh6cH/vTcM/jz83+WIiaBGhgYSHeYLODd996NjRs24uc9P2PRvYtkxpiwtbWlNR7ECktKIzExSQSKfTBhYghefeM1/GPFu7htxnSYm3dOGSGLlOlx1Im4cP/e/Zh/x11Y9e+VwkLOxt/eeVvEjaPw/LN/wd//9o4UspW1FcaNHyev6SNE5+buhuXP/kkI7jb09e4LG1sbBAwPQMgtIVh4z0KsX7sOr7/8mswYL39mOYqLivCHRfdh0/qNqCivkK/TyJixY2Bnb6fc0w1OHDGSnpQ46mmwJWUYPYdFyjB6DouUYfQcFinD6DksUobRc1ikDKPnsEgZRs9hkTKMnsMiZRg9h0XKMHoOi5Rh9BwWKcPoOSxShtFzWKQMo+ewSBlGz2GRMoyew5u+GUm3P/qwrgaaylJU17a+/WZXQV0fzI3NYW1mpcy0DRYpI+nuIs0vLcCxuDBkFWcrM/oDHeE/3MsfEweNV2baBru7TI+A2mlWVlehrKpcL4dWBwvPImUYPYfdXUbS7WPSVh7H/3vAx/EzTA+HRcoweg6LlGF+Ax3gVK6tQFF5SasGLf90JhyTMhKOSX+FsrH7IkNxJTMe5kYtx5GFFcVYMnEhhrr7KjM3omtMyiJlJCzSX1FXaLA7/CDsVNaYPKDhGIrm+PjEN5g5agqC+o9QZm6EE0cM0wkYqgzhbuOCIS4+LQ5rE0vlis6DRcoweg6LlGEUtDVaXLt2Tdb/0m1tfR3qxKiuq5Hf19TVov5avfLsroNFyjCCPE0B9kYeQXJ+Gg5fPomCsiLE5MQjPDMaRxLCcCbtIo4lnUGGOke5outgkTK9ngptJXZe3I9DUcdxJj4cFxIiUFZRjuSiNOyLC8XPsUfk7YaIHdgXG4qSSrVyZdfAImV6PaVV5TibcBFzh05HsOtwPD5uMRYMm4X7R83H+H7BuMN/OiYPHA83axdE58Qhv7xIubJrYJEyjKBPHwMEewZgmk9Is2OQY3/l2V0Lr5MyElonPX70OD5c8QE+/vcnymz3wcBEBVMnc6jMjJSZpknKS0VJhVomhhrJVRfgx7Ct+HTe2wj08Fdmb2Rt+DYciD+OpUEL4KsIdkXoKkwLnNSp66QsUkZCIg09HIpnn34Gs++Yrcx2H5w9XDB1/nR4DeyrzDTNt8c3oE8t5PomdUwgCsqKsf/KUXyx8N2bivSbs+sR4D4ELtZOci4uLwn3TpiHYZ6D5f2mYJEyHQKJ9FjoMbzz9t/x5v+9pcx2H0wsTeE80A3mthbKTNOs2PU5pvULgb/LINkxgchQZ+Pt/R/jw7mv31Skm2J2Y8awyfB29FJmgX5OnrAybb6ooVNEWlVThTx1vgioy5QZ/YFiBxtza3jYuSkzTEfQW8oCSaSLA+7CaK9AGCoipfrbZZtfwqvTnrmpSM/mRGBJyEK42DRY0tbQKSItLCvC6cTzSM1PU2b0B/r083UZgFv9JyszTEfQm0WaUpSOZVtewnuzX7mpSPclHsWSiXdjiJuPMntzdBVpk9ldqrKo0FZAXanRu6ERo6K6UvlNGUZ3HCzsYG9ur9xrGVdbZ7jaOCv3uoYmLWlBaSHCEs4iuSBVmdEf6NNvkKsPpvtPVWaYjqA3W9K4/EQ8vvFFTBowFi5WjnKuKS7nxqNQW4KlIYsQ6N28xf0tneLuVl+rQXGtBpX1VcqM/tBHfFkYmMHRyE6ZYTqC3ixS2rS9N+4I1pzfgjv8bsPe2CNwt3FFuiYLw72GIr+0SPbMpRzN6AEjMM4nGMaGLS/1XE+niLRW/MFl4g/W3uQP/j2gP9gUJrBGy1k8pm30ZpEStfW1qKqthrHKCEUVJdgXH4q82iLMD5olOzXQcg2trdIWtuuvaw2dEpMyTG/D0MAQlsbmUqQWxmZSiEZiztjQGKZGJjBRbtsq0I5AZ5FSkom28XTE+D22ATG9j4b3bG0Low51evRe1MndLSwrxgd7VsmeMLTXrr0Y9DGQLkHIoNGYHzwLZuKTrDnY3e0ceou7+8m+r5CQnQIVveeUiqPfQsbCQGWAqX4huHPUTGW2/ejq7uok0mOxpxB29TwenXy/3OpDLkFbqbtWBzdbFzhY2mHTmZ14Yc5T8vvmYJF2Dr1FpJrKMpkour52tykMhIDNjE1bNBitRVeR6uzumpuYwd7SFrsvHZIuQltHemEWUvLTZfaMqokYpjOxNrOURsDRyr7FYS+e0xEC7Qh0tqSX0mLw9G0PY8mq5Vj39CrlkdZDr5FZnIPRAwLx36Pr8fzsZWxJfwd6iyX9PfjdLSnD6AP0RjaCCsYw1LthJH+z9meFWaRMj4BEQJbKTvhY+jfoNzNRftO2wyJlGD2HRcr0OOhA4dLSUhQXFaG6un2H95aXlyPyUiQKCwuVmdaj1WqRn5ePmpqOiY9ZpEyPoqKiAqfCTmHdDz9i4/qNOHLwMIqEWNuKRqPB6dOnpdjaQlxsHDb8uAHbNm/F1//5CoUFbRf5b2GRMj2KtNQ07Ni2HQkJiTA2NkZFZSVqqmuQlZmJfXv3Ydf2ncjNyZWWcv/P+3Es9CgunL+A7eKauro6aXmjIiKRnpYOYyNjGBgYoKiwSHat2LNzD67GX5UfBNFR0fLnnDoZhrLSX5sjqNVqaMSwsrbCmm/X4MTxE8oj7afDRFonXIzI9CttHmmFWaiu1b+0OdN9oUKF+to6uLi4ICg4CNfE17bN2xBxKQKRQoDr1v6IjPR0vP/Oe0JEJ1FeVo4f16xFTHQM1CVqrP5mNfJy88RzI6Qo9+7ei5/3/IzLly/L648cOiLnrl5NwE4h+rOnz6CqsmHH2MhRI/HUM09jxqyZMDFpf7LoenQWaU1tLWj7GDViismIbfMo15bLddHmSrQYpi14e/fFnXfdCQ8vTynA71d/h50/7cDxY8elhaOiAGq4pi7RIEGIbOq0qRgzbgzGjh+Lb79eLeLQCOHqlsJTXF+QX4DEhAQpQv9hfli4aCGGBQzD2TNncU4MgsQcJaxqWVmDNTUyMhKxcDE+++hTjBgViIm3TJTzuqCTSF1tXZBVkouVh75FcYUaZ5MutXnEZifinLjdeGanFKuRqvX79Bjmt5QJq0hu7i1TboGP70DERMXIuJKSSYaGhnBzc5XCtLBoKIbx8/eDqakpFty9EGHCdf3h+x+EyOfCzKyh2qixWVlFRaV0cykhpRIuMFlrc3MzDBXXBwwPgLlFQ6FCQUEBVry7QrrLs+fMRqVwt3VFJ5E6WzuSb4HTCeHI1xS2eyTmpQqrGidbUxipDJVXZ5i2UyNCJ3JDKfYkV3XCpBDMnXenEN48eqvKmHXwkMGwtrGWFpSES5DlvOPOuTKWnDx1ihQpPS9gRACm3z4DKckpMhFF19P9SbdMEnFulszg0rUkdCIpMUk8JxWWlpY4f/YcjotYVld0KguMSIvB1nN75G6B1kCfPlU1Wnlq1fWYGJmgqroKccKqLpv2gOwG2BxcFtg5dPeywEaqtdXIzctFXk6udG09PDzg5OwkkzvpIg6l5RFPT0/Y2tkiQYiYLKFKpZLvzZycHBmf+vj6oKqqCjnZOXBwcJChWFpampxzc3ODg6ODtM7Z2dkwNTGFd39vKUp6HrnIWVlZqK+rk7+PpZWVfD1d0Ll293xyBJZPf1SZaRlqFbovKhSnrp5XZhqYPGS8iGmH4Juj67h293eip4i0J6Jz4ojaSVC/l9YM2spmaWoBW3Ob/xkWJuYwNe6YTBjD9DR0sqRnEy9i3altmBEwRZlpmWvX6lFeXSld2+uhLUEV1RXS3X1h9lOws7BRHrkRtqSdA1tS/UUnSzqirz+mB0yWB+C0ZqgrS1FbV9vQzOm6QZtwjVUm+MO4+bASlpZhmF/RyZISVIjQUb2JKLPbmPJuDraknQNbUv2lSZHWi68qVAuJNmSo9A0jGOq09Ye5ERap/tKkSJneB4tUf9EpJqUqDlrMpf/Bsl5S3Kd1qMZbKlhmmK6C3oN6O+SqbftotyWlXQTnzp7DhXMX4OrigolTJskFYypapvMt3/v7u1j8wBJMubV1mV8qn6oVgrewtJQ7D5iupbtbUm2NFnml+ajUw8O8qLbd1sIWTi2cM9MS7RIpWc+/vfEW4q7EyXKrvNxcJCYk4sFHH8LjDz2GUxdOy+Llvt595U6AkuISmVyysrSCmbkZSjUaVAlLe01YXBNTU1lH+dUXXyL8fDheeeNV+A7yZaF2Md1dpLnqPByICUV6YYYyoz9QMjSofyCm+bXvuM52KSE+Ng4Hfj6AT1d9hqUPLcXzf30Bn6z8VHkUsqbxg/f+iaNHjmL71p/w5GPL8PiDj+E/K7/AxfCLeOOVN/DI0ofxxKNP4IVnn5dbfw7uPyj33q387PNftv0wDNNOkWZnZcv6RTPTX/uSNmX5qCj5aOhRzJg1A4/+8VGUlJQg6lIkKqsqsWDRQny39jvZnoI22lJx88zbZ+KNt9/8ZUcBw7QWlcoQNhbWcLBx0MNhD3PT9r+n2+XukqV8eOlD+Mv/+wv8hw2DVlsl9+fRDgRyd7fs2Iq33/gbgseMlnGrsZERBgwcAFtbW/gIV3bn9h1yp8E9992DhXcuELf3oqysVLhbJ/D/Xn4RQ4YOYXe3i+nu7i4d11lUq0ZVvVaZ0R8oJrVSWcDesPlKupZolxLcPdzx2BOPY8e2HdKd3bxxM/bs2iNjy6F+Q2Uc2q9/P/H9EGEdZ8DO3l7OObk4w8vLSw47u4Yi+v4DBojH7YQwG647ejhUZoYZpi3Q6QfGRiYwMzHTw2EKI8P275PWaZ00OTkZV2KuSJGNCByBOvFpHB93FX7D/JCakgpXN1e5Uz0+Ll7uVqeEkKOTIzIyMqRVdXJywuWYy+LWUQr5kohX1WoNQiaF/LI/j+kaursl7ckd7LmYgZGwSH+FjkakEwNLK39tMNYSbnYuML/JSYB6LdLKikrExcaij0EfYW0DlVlG32CR/kq5tgLHrpxCZmEO7M1bjiNTizNxx6jp8HUdoMzciK4i7fTsDDVoOn7shHgDnFRmGEa/oZ1aZEkdjG0R4hnc4igV729NZalyZefAKVSGaQJjlTEGOPTFaK/AFoe9ua1yRefBImUYPYdFyjB6Tqcnjqir2vof18vihKefeVqZ7Z6UVpXhYmqEjFf0kX6OfTHMc2i7ehf39sQRHdO/5dwuzBw+FTvD98u6csM6Fe7yn4kMdQ4cLOxQpi2Hn4svvGzdlauAF3e9g/H+wQjqP0KZuRG9z+72JJEWlhViT8RBZBRlKjP6RWDfAEz1uwWmRm3fEN+bRUptZr868gMiU6/Ax6UfUgrS5ZIK/Zu4WjkJcVbIf1ON+JCe5huCP4ycBysTS3ltV4iU3V2m11NQWoSLKdH449jFWDZ6Cd6b9TLemPYc3p75Ap6a8CBenPoknpn4CEZ7jcC59EgkF6UrV3YNbEnbALk7MbmxKK5UKzP6hadwwwY7+rTrFIDebEnVFRq8sfmfeFMIM9DDX5m9kbXh2xCTE4/lEx+Cu7WLnGN3V8+ouVaL4noNtPXtO5i2s7EwMIetykq4R/S2aBu9RaTZJXkoqyqX3RIaSRfhy1dH1mLl/HduKtJDV08IkT6MUR7D5By7u3oGHSMgm4EbGbdrUJF1RU0lSoVFbupxGqmFmaipr23ysZsNQ1XLnRYZYPPZXfjxxBb8dGYPtp/ZK8eJy2fR2u4mUTmxeH7H25j55WI5jiadVh7pPFikXQSd33opLQbrTv2EjKJsZfZGItNj8HXoWhSVlygzTEdC7VWWjFyIf9z+Et6f/Yocy8YtER/AyhNugouNEx6e8gd89MDbcqz+48cI9G6wqp1Fp4vUxtYG8xbMw53z71Rmeh/UmC1SCPS/R9chtSBDuFrN9ymm4u4rmQl4b+e/ZUKD6XhMDY1l9rZxBHsOh7/LYOXRlhnvE4zJQ8bJ41Iax816RetKsyKlcxhjY2N1PvOfzors27ev3EPaFDt+2oHXX35dnufYE6mpq8WFlChsPb8Hg90GIsBrqPJI88wJnAYPOxf8a+8XKCrrOotaXV0jD9y1NrHqdmPimAk42c6j7y9mxuBSVoxyr2WOxZ3G8bgzyr2uoVmRJl5NwMpPP5enGtORb9QdkIRLR8M1tuqkeY1GI4voaY4shnyeplQ+1tjakx6na+kQVuoK2Pg9PT4qaBTm3z1fHkVH19Kg12w8fFW+pviZ9JoV5RXyuu4CHfFIqf2fLuzFNP9JmD3iVhi0wq+iJNtjU+7HUHdfvLX1Q2QV5/5PoqOzMDY2wty77oRGW9rtxomzYQiZ1L5TtUe4D8Vwt6GoFV4MHXnS3CAvJ8R3NCb4BitXdg3NZndpA/Z/v/4vZs2ZLYWakpSMouIi2dfo1TdfQ/8B/fHvjz9D6JFQODo64oWX/p+8jubonMcJISFSfPTptn3bDhgZGcLJ2Vl2ZIi9cgVe3n3x5NNPyq6CdLT5XQvvwjtvvwMHewekpKZg5MiReOf9fyAmJgYfvvcB8vML5FHrJqYm+HTlZ/JndTV0/IYG5agR390MWiCnA60ORB/Drf4hmDo0BMn5afLYR9rWRAIkN6m2vuFsHPqQM+hjgB0X98HK1BK3+k2EmbEpNp3ZgZPimudu/yP6OrjL5zSHGUxgCXPxycvZ3eZYsetzLA64SxbHGypuamR2LJZvew1zht6KAfZ9UV1XDVUfFepEWELPoU6XlDQ8nxGFq0XJuH/CAuH2BslrW0OXZHfVJSXykNR/ffIR7O3tsWv7Lqz59nscP3oc369bg+XPLUeZsI4fvv8BhgeOwOf/WSmbjn37zbdSXNS07PW/vaFY2jL837v/Jzs1nDl1Bhq1Wrb8rNbWID72Ku6YNxffr/0e69auQ0x0DF7762sIHh2MNeLneHh5oqhQ/+M0+jsTc1OxPXwf7gq+XQq0Ea2wrqkF6dh6bjdOxJ/B5rO7pXAp63jo8nG5l/F6Fo29E9OHTRIx6mciRtXPcsTuznC3IVge8hDOpF6UhQpbIvdif/xxrI34CaezL2F/0gmcyDwPdW0p7h07r00C7QhanTgaPHSIFJuHp4dwZSuRmZklTzAma+Dt7Y2+YhQUFMjeRuSuubi6oLCwQPYtotORfXx85InLdPJywPDhsLa2QqVwXekT/HpGjhoJN3d3aXFJvIaGKliK51JXQUpCdQfok1ddqRGWzwNB/YYrsw1QeZmPS388MOkeIb7JeGDiIrnGdv+E+Zg7ckaTp8rNDrwNjpb2elsz3BNYNGIOvrpnBZ6f8gQ+mvcWpvqOx5Qh4/H09Ifx4h1P49kZj+GF2cswzrdrBUo0K1JK+Ng72Mtm1iQYKyEUEp+Nra3sTzRr9ixkZmVi5/ad+ObLbxAZEYk77rwD+/b8LJuSpaWmYvqM6UKM1uJ6W9mZgW4bhWYv3Fp6TbLQ9HNMTIzh7uEmRNlQLeMuhEo/++lnlmP/3n34+j9fYZ+4bXxc/+nTrGtK8WXDcZAa5KrzcVC4xJdSY1BRXSkeU570G+jf/mZkpGfghPBuyMNp66BOjVGR0cor9T6oo5+DuZ1wcw1kNwbKHTQefm1hIgIJanJmbPaLi9yVNBuTkjuamJgoxZKdnS3FRHEoNRWrFwH0UD8/JCcm4WjoMRGTOmDGrJnyD6MuDFkZmQgcFSg7AFKzMkoe+Q/zl+4rNSaj7ykOJcGTpSwULixZ4LOnz2DKrVNl18HdO3dj9JjRKC4uRpT4AFALtzgtLV02KHvp1ZdkYopas3Ql9QbXUEd11UYtx3y0s/9sUgQuJEfgTzMeUWYhY9LTCRfgIKwi7eZ3tHJAlRBmsnB/K7SVGOk9DKmFGXC2dvwlJiXoHJE3t3yAP4yfL2JZHznXFAe2/oxN32xoR0RKLvo1lJZq4Ozi0uNj0il9x8HfdbAUZFPQh+WxlDOoN76GBaPnKLPtR9eYtNPLAnWBLM7xo8dky1AzMzMYCev+wEMPyOMroqOiceHceeWZXYORqQmCp4+Fi5erMtM0LYmU4s/SqnJkl+RilHCFs4pz4GHniozibLncQsKkpZr2iJQTRzcX6fcnNkFbpYWFsIpkPZuCsril1RUY4umDqX6/5hPaS48WaSOUiCFLamMj3BDh9pEVDb8QjrATYcozugYTMxNMnDsF7v09lJmmuZkltbe0k5Y0X1MknztexDmJeaki7rRDelFWuy0pi/TmIqVqL9oXfLMlLXJrHazspNejK10iUkrgUOKGTj0zMTOVLjDFrL2N1i7B3EyktPzSz6kvDsUcl6n9yYPHNRxoZWaJHeH7RAxkwSJtI60V6e+BriJtVXb3vHAr137/A3bt3IUtG7dgzbdrZEFCZ0MWdPU3q+WxFj0NW3NrBHgOkXGorYUNnIT1NDXihuDMjahee+v1t5Tvm4VOPLty5QqCgoPkMsoXK79A0OggKdRN6zfJggVKDnn19ULclVhs2rBJCpu+p8RPiRi0JtqvXz9ERUYiJjpaJoDOn7uAvbv34mJ4OBydnOSSzMZ1G2S2kYonMjMz8fyzf5Hurbe4lrLAvyf1wqJpxSd1vfhqCbKKtCXqSmY8gvoPlxlCgjK6KQUZMFYZyUQRHT9QXlWB6roa6eaSG0a1vWRB+wtL27gvVFNRin2RRzDOJ0i4Xw3HczSFEQxhLP7bXKzVEvSBmJaaJv+/Lbp3kTLbvaC/2hAq+e+gT8NYGfS7tYdWWVLC1sYWvoMHybNeaJ20orwcH7z/T7k2SgL96ouvEBMVja++/Fpmg+mkNMrQUrY3MiIKO3fskmKLiIjE4YOHpfAP7j+Agvx8mQTasW07ftq6HQf2HZCvb2xiIpNFFIOam5vLrHB3wUDEM262zjAXItwbcViKsxGKhaj8jDKI2ppqlCu3JNqqau0NsVKepgA/ntqGgS79ZKzKNI1KvJUb3H0zvRsWYtCHZ3tptUjj4+NlldGbr72JMWPHwsXVFft/3g9nZzqEqa9cD83KypJWkD6JFy5aIKyft3L1r1CDJ3ojRkdGIzMjU1hHB5mtpZpcOjtmkPggqK+rl8s1Y8ePk2uyt82c3uRr6Su0FEUZ2xkBU1BQWojdlw6huLxBqJSQIFfXz2MQvB094e8xGF4O7vD3HIwBzt7/c7APraGuPblVFozMD54NG3Mr5RGmKciD6Kiv6qpqpKemy2W+6+d1+WovrRYpHa5E7q6HhztUKpUsSvD19ZWuakFBPiwsLTDQxwd9hcu7R1jQ0MOh8jAmwtrGWp7u/dOWbdLtpUwtCbO8vAIZ6elypw0d5kSWkwrtyTKv++FHaXmtrKzkkf8pycnytboLVI87xK0hhU+d6HZe3I98TaFMFJEba2FiLquPLE0bbuk+ubmNBfiUZPrh5BbYW9piftAseNq7yXmmZSgBRpn/Ff94H2+++oY89a+oqO2lpOQhbt28VZ5g3xYunL+Ajz74F9575105yEvUlVbFpCQa7/7emDrtViHUYBlnUkng6DFjZMaXNjRTOd+o4FEydszNyRHPKZG7XxyEpZw9d7Z801KZIJULjho1ChMmhggL7Ik6YTWpqGHCxAmyu0BOdo5cD5186xRZs0u1wlSw7+rmAnePlpc+OpvWxqSNkKtOVpPiSOpAdz45Qs6TBXUV7nBTxGTGyXj2dGI4fF374/bhU+Fo1bpYvCH+6b0xKXE1/iq2CWNA4ZHfMH9Yig95es+RYbly+YpMQpJ3Rn9vxKUI1FTXyOKbBCFG2k5JIk8XhqMxjKOSV0srS/lvQ9spKZdCIy8vD1eEEaoW738qvqHXJ8iwXKu/hpysbBm+LV66WBoeXWjVEgxtEaNdGnQCN/0yBfkFsgKJdqRQDyPaVkZ1vTRHfyT9gbnZudjx03b0EW/UV15/RW41o4OCjY0p1hR/qLCaNeIPpMomejPT9fQz6Nq62rpfXo/cYJqjmJgs8u9JW3bBXA8tjlNiaPfFg8hW5+Hu0XOa3c2/8cx2hMVfwKTBY3Cr/ySZ+W2t5HrzEkwjkZcisfLfK8WHux3uvf8+eApDQO+v1V//V1jUYpSXlmGgMDAzZ83En//0nExmLrpvET79+DOs+NcK2AkBf/DeBwi5JUSWSt424zb5fj9y6IgsY6XkKJ2pS7vEKO9CVpoOwR4fMl4uS9K/Y74Q8IOLH8TkKZPx11df0rmUtVWW1MjYSBbK0x9LkFgNjQyl60ZuLn0yNa6b0nNIXCSyQUMGI3BkoCxCoE8filvpU4eSQvQ8+rSjP5w+qUj89MfQc65/PXoOXU8fCL83bbWkjVANL20/8xAuq7W4tRHW1cnaQXn0f0nKT8dwr6EIGTRGHi/fFqvIlhTy/UTn5aaKv4U2sJNlpXDq2JFjDfW4JsbYtWMnJt0ySXwgrcKbf39Lnq2bJCwp1Z/TObmUa5k5+3Z5S+/D6KgYjB43BvPmz5PlsEcOHZb/TvQeT0lOEda4Gn7+wmqL9z29rzVqjfi58TgVdkpuLNE1n9LqmLStkLhox4unp6cy07uh5I+7nQsmDArGQOfm/6fRzgvaVGxtbtUusfV2yNWk5OOTTy/Dg488iMyMDFyWNeOGMsS6T1jXV15/VQqMnkt15NbCCCx9+AHhJm+V9QBz5s6RKwpErfDqSIRkYen9TAaDwjsP8b6ecfsMPLn8KblRvnHjCHmW9Nr0M/z8/aTQdaXTRMrcCFlUKligHRXNQVVH9DgLtH3Q2vpHH3yEZY8tw8cffizFtvCeuzFYeHXff/s9Xn7xZSQlJkmBEuQNEhSPUo6F4tTZQqSNDBjQH6OCg2RtwH1334vPPv4Uw0cEyNhzxbsr8Nknn8lEaOMS4dbNW7DwzgX405PLcTrsNObOmyvndaFb1O7qC1SeVyedXv2EYlEa7RF4T4lJ6e+gPAY1B6CiEkpcUohVrW2IHyk/QMlIWkmgBCh1FSGh0rJgmYhXa2pr5NZMyo9QKx8K0+gxej16jK41MTaRIi0sKBBhmCkcnRx/Cc/oZ6tL1CgpKYaTk7NMGukak7JIGUlPEWkjjUUhjZaSaGquLdD1v3295l6rpcfaCru7TI+EBPJbkTQ11xaaer3m0OXn/BYWaRdCGVRykyh13witxZGLRHXLtJTV2HWR5ho/+ZneDYu0C6GkxNL7lsjSSir0IF547nkMHxKAySGTMWf6bHluDlW5jBg6XGYKGYZF2kWQxaQKFVpDq62pRfj5cOUR4Nm/PIfQk0fx/F9fwE+btyE3J1d5hGFYpF0G1R5HRUbJXlDm5mY4FRb2SwPwosJCuTWPtvQ1VnUxTCMs0i6Ayh8vx1zBxQsXUS0sKnW5iIuNk5aVOHTwED5c8SF27diF+Qvnw9ml6bpepnfCIu0CqPaTytNoLy7t/qHNCLTWRsKl9bV58+/CG2+/ie9+/B53CZHSuh7VKVMbVIZhkXYFQmtUIvbs889h8QNL8OgfH8OSB5fC3cMd48aPQ8jECfL7xgVxcnmXiOfRgjvDcDEDI+lpxQw9CbakDKPnsEg7AEoM0cb0xrVPhulIWKQ6Qssqq/69Eps3bMLXX3yFn/fsVR75X6gjwMnjJ+Xmd4ZpC63a9M00TW5uLv753j9lp4lBgwahTx8DWbNJZ+Yc2H9Qtjqlc25ow/rWTVux5rvvoTI0lDsv6IycwwcPyTYblCii5RnacUGb6+n0c9q9QfO7tu+UG5mpi+LpU6dll0ba03jq5KmGzffi9eh8nvz8fNlutb30lE3fPRG2pDoQfv6C7Of08KOPyI2/995/L9w9PWTfJuqcSFud9uxqaMqmrdbKrVIkhksXL8l+wwUFhTgaelSehLZ7xy5ER0cj8lIE/rPyC4QeOSLbcPzw3Q+ynUxebp7sXEdnvp47ew4Xwy/ikPggoJPUDh84JLsPMD0TFqkOlJeVw9zMXFo0gkT45aovZQE9tSstKVHLDcbxsXEYMmSIbGo1KmgUUlNScDz0GDQajTxkOTkpWTb+vhJ9WdbuUgOtg/sOyqMeB/oOlNaZrBydekbNtKh6acjQITh86LAUK50VO9R/qPwdmJ4Hi1QHgseMRolaLY/eoA5z1EuYrCsVLkQIazlyVKDse0OJJXJlab2Uuv6rVIYwFS4ybSCm/jpBo4PlCedRUdE4f7bB3aRui9+t/g5333s3jh09JpuIUxEEraXSMYWyP7Gwyju375CCJfeY6ZlwTKoDFCtS3xvqoUNNwTPS0jH1tltl8zXqJldcVCLEY49+IkYlwWZlZCEtJRVD/IbK+DEpIUm4xrWyPQe196DrKZ69bcZ0aT1JhNSJjqDzXNVqjWwgHhAwTFpbqmSi3sZP/ulJ2bxNFzgm1V+4mEFHqAggW8SfJCBK+pD4yHrSSedVVVpYWVkKK2omG1U1tj+lRuN0HSV7KPFDwqNSQBIdWVuysGRxqZ2Hh4hxyRLTgc3UAIu6KdJrrF+7HlmZmRg+Yjj++NQTOhfld/diBm1tNQrLClEpYn99g/Z/25hR/+X2nWXEIu2G0AZxikWrq2uku0wtLHWlu4uUjvM4Hn8a2SXZyoz+oOqjwjAvP4T4jlVm2gaLtBtCHRtIVHTbWO+rK91dpLnqPByICUV6YYYyoz9QO9eg/oGY5jdZmWkbnDjqhlC8Si0kO0qgjH7DlpSRdHdLWn2tBsV1pdBe+7V/lL5AGw4tDSxgp2rfqXhsSZkeAVV70bGRJkbGejkMdUjssUgZpgko3qfm2q0Z1DS9M2F3l5F0d3e3BnUoRYW4rVFm2k9VjRYXU6KQlJcqkz4tUVNfi6lDQ1o8P5bcXTOYwgoNlWlthS0pw/wGrRBpXHYi1CUauBk7tTgik2JkZrkzYUvKSNiS/oq6QoN9EaEYbNMfc/2mK7NN8+KudzDePxhB/UcoMzfClpRhejgsUobRc1ikDCOorq1BTGY8yrUViM9JQlVNFXJL85FXVojkojRkaXKRWpyJUm25ckXXwSJlej219XU4nXABn+//L47EnMR3xzYipSAdRxJOYd3Fn7AqbA3WnN8ib8NSzqO6Tve4ty2wSJlej7pcgx/DtiHAeQi0ZVWYOmA8/B0HIdhruFwHdbN2hrGhEYoqirE//hiy1DnKlV0Di5Tp9dTU0WaFetwbOBd/vuXxZsfkgeOgrdWiqrZrSw9ZpEyvQlNZhoLSIuRrCn8ZReXFqBMibQ2GBoZidO2BWixSpldxPO40fo44gsPRJ3Ak+qQcoTFh0FS0rtXq5dx4rD63ASvDvpMjoTBFeaTzYJEyvYqYjDjYGFgiwH4wRjgOkWOQXX+oDFonher6WmhVtagzuSbH1GFUEuiuPNo5sEiZXscoj2G4bdAkTB90ixx3+c+Eu7Wr8mjLBHr7475x8zAv6PZfhotN+/sdtwYuC2QkVBZI/YGXPfYEJt4yUZntPrh7e2Du0vkYMGSgMtM0K3Z9jsUBd2G0V+AvsWVyUTqWbX4J7895BYEe/nKuKdaGb8PehFAsnXg3hrr7KrM3R9eyQBYpI6GtWdQY7XTYaWWme2FuYwHvgAGwdrRRZpqmKZGWVGrwhBDpy7c+fVORXsiLwpKQu+Fo1fqmYixShhG0tsC+aUuahj9u+iseCF4EHwdvOdcUhxNOIrY4UYqULSnDtBFdRKoWlvSj41/jXHoExvYdiYisy3CxckJRZQlcbZyhqSyFuYkpCstL4Oc5GHeMvA0Olq3v0MgiZRiBLiIlV7+wohgJBSnwtHWTtzG58ciqysOsEbfKTeDGKiPU1tfC3sIOthY2MKBmuq1EV5Fydpfp9VD3RUcLeyHcEfC0cUOguz9szKxE3GkHL3t3+Lj0g7ejJwY494OdZdsE2hGwSBlGobFVCq2Zkgz70JcQpIFypCWJk766GnZ3mR5BW9xdVZ0BHMztmrWItMslt6wAQ/v6YsHoOcps+9HV3WWRMj2C1oo0Kj1WHklBu1tawkjEoOTi0tAVFinDCFor0t8DXUXKMSnD6DksUobRc9jdZXoEtcLdLUeVuK1VZvSJPsLZNYaF+G97YJEyjJ7D7i7D6DksUobRc1ikDNMEtI5aU6MfyzksUqZHUSuElZGegTOnziD8/AUU5Begvr51TcYaqaurQ3JiMnZu3yk3w7eH3JwcJCUmKfd0g0XK9Cji469iw4/rcfjgIRw6cAhXxX0SHQm1oqJCfk9UV1dDq9XKUV5eLm8J2hFTUV6BwoJCJFxNkNfRHFnV6y1r4/VNfQCUlZbhy1VfdphIObvL9Cg2rt8oRLoBSx9cCld3V7i4uMDExARhJ8OQk50NKysrzJozW4g3HhGXIqUA/Yf5Iz09HUseWCIt75ZNmzF67BiEnTiJhx59GOfPnkN0VAxMzUwxcmQg+hgYIOLiJZSVlWH4iBEYPSYYFpaW8ufTh8A3X34trHg4nnvhzxg0eBAMWtnkrDnYkjI9in79+6H/gP5SlOfOnJNC2rVjp7Ssebl52LNzD44dPSbd4W2bt8LE1ASWVpb4z8r/CBc1FydPnEBkRCTS09LFdbtw5fIVrBeWua6uwe1NSEjEbjFPIqTnrF3zAxKvs5j79+4T4j6FZcufxKp/r0JJSYnySPtRvfbW628p3zNMt8fO3g4eHu5QGRoiSogtKysbx4Uora2tETRaWDwLczg4OqKosEi6vy+//gq8+nrJs1nVarV0kRcvXSxjUer3RJbwwrkLEDrBqKBR0Kg1OBV2Ci6uLsKKDkdlVSUChg+Hs7OzdJvf/fu7yM3NES5vKT77+DPpIo8ZNwampu0rZCDYkjI9BnJdo6OicfjQEbkNTVullWLx8/dDfl4+YsRjGRkZ8O7nLV1gc3Pzhn2iwh195PFH8d3qb4U4a4SYg+TrkVvr6uoKY2NjrPn2e3z7zWoZp1paWkjrGRMdAxtrG3G/wdU1FB8MS4Sb/cSTT2BE4Aj52r6DfGFsZCQfby9sSZkeA4mCLFepRoPS0jJ4effFrbdNQ8ikiXAWsSmJaODAAcIiBklheXh6SEupUqng5OwkRT7rjtnw8fGRr+Xk5IRJkyfB1c0V5WUVUtSBI0dguBAgxbbkJo8Q9wcMGABjE2P5+j6+PhgqPhRo0Gbxhx55SDzPSvkN2wcnjpgeRWN2lmJRijdJTCTCqqoq6aqamZnBQlhCys5SkqfRmhKlwuqShSXLKbO3whJbWVspwi+FgcpAvh49nzK4lN2lx5tzZYuKimBra6tz4ohFyjB6DsekDKPnsEgZRs9hkTKMnsMiZRg9h0XKMHoN8P8BhEPRU4CCBgsAAAAASUVORK5CYII=;" vertex="1" parent="SwHwOmNfwHO3F5PcCJjN-115">
          <mxGeometry x="535" y="-130" width="236" height="222.83" as="geometry" />
        </mxCell>
        <mxCell id="SwHwOmNfwHO3F5PcCJjN-236" value="" style="shape=image;verticalLabelPosition=bottom;labelBackgroundColor=default;verticalAlign=top;aspect=fixed;imageAspect=0;image=data:image/png,iVBORw0KGgoAAAANSUhEUgAAAJQAAAB5CAYAAADf5giIAAAAAXNSR0IArs4c6QAAAARnQU1BAACxjwv8YQUAAAAJcEhZcwAADsMAAA7DAcdvqGQAACAFSURBVHhe7V0JmFxVlT5vqaquXtLZyNIQghCySAgIJrSomE8+zRcVZQuDrAKjCKNfYJhRZxTGBRHG5RMHHVFcgzMMIBAVMGhYggKRJRAiECAhIRskHdJLumt525z/3LqV1y9V1dWdAtLV7//69tvuve/ec/97zrn33XrPcK5pCChGjBrBLGxjxKgJYkLFqCliQsWoKWJCxagp6oJQBoYVLm8dtdVBH2Mr+wAfB4aKUg55vi4I5VEpIL9imhGOYT/KA5n6mk8g6+BZZBgNhbN7I5/LktezgRo2LyMz2SLnbOqRbRTIM+dOIu/QD5HXZFCzdQA5AdizN9zdW4k230eNXpccg1wjGcOfUKxBnAuWU2JKuxwHrHRt2VPIc7DIl/NG1wvk/OgEIVKeLySTKk4pdL7jFBpz5s3kcbqwGg/nDSD//APfpoa/XEWu3VKWpCMFw97kBR4TxmqWhgd8Dh7/1xYJnLH4GojgNUzk/0wmaJFUBW3CCcekJlMvp0vwDQzOTwfkrfPHFmi0WigrezHqw4fKe6KFgDCBotokrJBM1sseh5KkKiRsVBvJLxoQBdv+AhzZ2gmoC0INFiCTRilSiZNfgGFYhb3SUDRWiBJ4JKJuCAUfqRr4TB4EvW+V0lAhBLCpFRC+60h3yIG6IRT8G5BqIAKEAU1lhlVMAcgiZ3iicXyjepZA2410jEiTVy1KTxTEqIS6I9RAPk8UsZmqLUachgo75AAc8NhU1Q51R6jB+FAxao8Rb/Ji1BaxUx6jpohNXoyaIjZ5MWqK2OTFqClikxejpohNXoyaIjZ5MWqKEWfy9EoDDTx60SsOMGuuw2DgmKY8ZI7mHc5vKGE4YsSZPM9olccvjtkqwaUW8oIW2TqGCiBZPsiQn9tVXAlaDuHFCsgb+eig8xtsyPEtEYYjqeqOUBVheZRvmkrUTZTo7KJkbxcZmR4+7pGtDtkMR508jyg1hhIuH1QABJgYO5XMLBXz29fgc/kox6SPaLzhgOH/bgMs5r7gETIOOUrWQ1ls8sppKbRTA2sdK9enTpRD0CPrz60UtFlQUevpdeXUvU1tawDXZGKtv5/cO6+o+EOK/RF1R6iBluFijZM2U+XaSsfBOnWsG6+EsM9WqxGm3J+Jn/v+LEr7XcUlNsPBBI4sk8cA4UCkSh1fxxmITABIpEMtMNzn0eqOUPHE5tuLuiNUrTTF2wnTVbYt4fvDbhphxJm8/R2D+VHE/ojY5MWoKWKTF6OmiE1eDeAXfB793gMd9PsPsA3cjAqsQXWoR8QmrwYI7ECIEwV+fKq3vp0iz06TxxoUoV4Rm7x9hGijXJeaKedgFfaxDQecc3dtK77FpV4x4mbKaw08zml+9nbafs8X6ABvm8xqw8RJObBTAIqZGX8cjT3rx+S1ziw7sQqCGq5BrtdJ/vdmUCLoGVY/Ro1N3j5CXvmzq4NGZbfJw1zNIWzziT3BZoaN3bGS/N68PNKpV8Qmbx8BagQBUyQiSayxSrLu1wEQTcPEqvZNMcMR9VuztwgQoGEorQgSwdQh7D2z3UL5+lVMRdQdod7O4XildyT4xsh4u13dESqe2Hx7EZu8twjRt77UK2KTt4+Av4QfKTTI8E69/1wDp3TADxiSkLbEq1/EJq8GyNt8TzCLEf6Rgp9nIungsI+FrzJwvAEWIA9rxCavBgjyHfLDBj/fQ7bbI5OR2IdGEq3EwDcePHCdNVRTPFO+H2MQP1J4M4AvKRjbV1Pu78solUVhmDP5XrKTTWR4e/prYPkUNDcSzbtQfvxQbnnxcJ8pjx+91BBwj8rdX18DAeXrDGVIHz96GeEAATAQQAiTCcfy4LgQoDkBPHap56mNuiPUWz3Kg+kCQcIkES3Dx7imgwZ+51fPqDtC7Q+9v5R/pMu1P5TvzURs8mLUFDGhYtQUdUMovCUFju9b7UPVGvCxfHsYDesiqC8N5WFQrhzz4RrgY+lpT6v5oMLe8EFs8vYz5PF2GKYUlgjv7OtUJ4cR6oJQfk6tNXLsNDncw9HLdcAvTMLH+3swU2PEfHu5PhqVC4bVpCYw7GfKsTLSnbSA/HEz5XFHPcC3dlP3upXU1LWyuHx4uGD4P3oBXPUEBsBD2PDyW3ZLhhcK0+1SB96PNdTbgLDQ8b7M4Y8eWT+Fd3bihWPDCXVBKKw9QiOgc0d/HBD9Ncr+DrUuvUUeCgOxhnobockUbQScx7l+pjB0HL2mofMpdQ2olK5c3qXS6HPYaoTTDyfU3bRBqQbQ57DVIXwc3g8HjVLXEMpdC58P75c6Dp+rB9QFoXRv1uYNxzoMN+hyh8k2nFAXhNKC1wTSjTEcG2S4lluj7kxejLcXMaFi1BQxoWLUFDGhYtQUMaFi1BQxoWLUFDGhYtQUMaFi1BQxoWLUFDGhYtQUMaFi1BQxoWLUFDGhYtQUMaFi1BQxoWLUFDGhYtQUMaFi1BQxoWLUFDGhYtQUgyKUXjwPVHp/u15o/2ZA3xf5Y38w99FlD6cZTB7qnrX5IWlYfjpPlK+SXKOQuPxPvRd9z3r0aH2i5/aKyydU3dS+ym9o9RwUoRyjRW7sZYjsrNqGg/weHIELleOcpVBSyn0H8pJKIz++R5BT5/usVrVTBfAjSiTP4SX0XF4l5OoFhwawqadY37x6e9CQkOB7S3rIq7uH3O7Blwe/LpY0nB7t4fdxg/qqnGEgDs6h7iJH1J0D4mc8LgenyezmunEEfNtvXzCoH3qiYGjA4D2XUyo1Rc7lAy5ZASmnk7w3dlCm4wVq2LyMklxQt6FFGmFfAWHgiwTG0YvJnXg4C+QNSj96lZC82vylAY+6mKzJ88jIb6P8g18hkwWYLHzhYCCg/k7DbDLmfbpw3EPWA1+hYJCNgLpI473/K2TZB6gvMTDyT/yERr+xuvr80LHa/52yY9rksKmplZzHb6bg9WX9qoNyo4OnuP453remLKBE+yXkTJhFqZYWedOL07WRzA2PUu6Rb1M630WZ5NB+Bj9oQuVb28n6xzvktTN4MVZYxelK4MVZfvdLlFv1W6KHrqZUQUDRnjMYSO9i3tiXLKf8lOOpqXsLBddPI5dvWgUXBNAqiUVLyD3ydJbsLsp9fxY1BF1Sr2qAeF1NM6l18ZPyyp2g41Wy/muGekNHBJInF7oUOSAHaAf7X16m3lEHSnIoKlpxHaX+/FWy0jgYGHnOx758q7xIv7fQEomlX6LE6uv7CUU6UorbKjmbaNH1ZLP8AB/vomIyWalGynN7Cvic98frKPEU51GoF8pbrYwGafI44xzrxgLwBYHMb86j/F2XkXHnFeTc+w3yn1vGLZdX39Wd/2Wyz1wmJkbSVlmoUoB8GrhxzD6XRqlTg/6gYQBNZLUUK53gHogygazVosXkigwEzhCmZNf0U3hX+Tel4O/eKZ/pSLgZabv0tIVyHkRBmqi8tNmSjsk73pRFQibTzVELd2J8rjbB9SslF7x4wzjvt2QymSy+H9oMHQqdMvu9NspxO6I9iYllfeJa0XzixjCynLZsJSIYFKE0ElaBulyRxJrbKPnsjZRb+yMyH7+GnFtOpo6fLiSr6wXRYInp7yX7g1eLzYZ5qjWq1U4afj4rafRHpCGnweThORa5f7mJgr/8hBLP3bN3Ys4w03oC2Z9aTuNO/5l8qcoxuTFLdCazeZx8/cFZ97i8tS5om0PmAbPknVAJJj/MVBjIA18NBfAhoqY5H1ea8vm71UnA3+OCaFhM7tTJt1Jq/MFC3vyvP0n0zI1yTb6HzGVuXHcbGTceJ6RCWcyFXyZr6nypT8LnlqxSSIMilM7T8URBk5+cSD5zC2YHQnC4cEG6hca8tpL6/nCNFAxvlLOOOlOuQbj7oqVqDVWf6gcOYqrya8h5YDF5yxdT30OX9xO0HoQkjzlNNAHkBC2IBhGtUgbutoflM/yQanD02aIZYCrNEq8mwsACMoSc8we9Vxqwd/Xv5O13GvqDRQIuj3fMxUQzTpDPggSP/Iq8TcsoxeVB2VLMFfhLfazpsHVvWyzJQFT3w1eKtrMMHjTI2YExKELpTLWGslhlw/GGTFFJjFzkNTR82Xr5NhESbLLZMomsse0lnTyk0ySD0HUQoRW2uG+5BtHpM6wFEAdxpWEL1ypB1yfUFsVzelQZzYPbmdIc32QVhy+d63sC+AIVGlw72ZATBhLhV/OUyjPZnRGnGGbLmPEhcjhD5IkvW4WBc1pDGROPJ3PMZDLYEtidm9TJAkACLQMkShx/oewmuS06V90oZUdZMErE+yDQLvAlQXzz9cfIeO5PEj910HFkHnIqO9r9+k1FDIpQUQRJqzgUl2MuoBYw1Cx8BDjv0FJmWql9+FKIA0cR8eBrwMfCMRxVJ6cC4uDlYdpMqvcmKcDpByAMMQucUbqvS9LDtCYc9cGdgaYUIFC8VwrZ4f7QDEgvjcAkwL2jZhp1QHyYCQDDdGg5HEIzwE9LuujfCigj6gz1g4ZBeeEj9YOZJuP5pRzPImPCHLIObJcGdO3+98Y5yARTDIm558g9jGcepGTroXI9DN9pkjI5E9rJnDBbWYudm6hp5wvS8dGJoJ00uVU9FGFzLz0g+1Kewz4gcfYqcxnoeu8z0IAaUnH0YvYRAFTGz/BQVPFAyAHh+84kCt5xLnkLbiDzwuVknL2Mkp+4RYb2QfMssrPlpwMcT31F0wIJp55KdMotFHx6OSXOvItycy4Wkjbmyg97of6RFhrEO3CB3FfufwY37Lu+rjpGREMA6PmZQxdR/siLyZ4wX8gCAlNqNjlzFpNzxLlkHDBTRbaSZPG5xMxLyTlmsaTBSKvUezODNfeLfwPZmUexj8N1AynCQJngNri8Daa+R871Pn0n7Q66i51MI5l4TepmH/pB8dMQ/PWPFa72by8Ax9q67N76mPiYIId5aDs53Mmq/cTtPhHKyHvSI8FqzXQpKAsjMXYWeTwklq8wsekLOh5jE6G+colJuO62BZT47FJKnfMTamy/gCyrmfxGm/2tj1Hy5O+Tef7viQ6eL2o/qm59wyCDvVKX88p/5AZqOP83ZBx9kgyH/XcuIJfTpy5aSZ1j50hZygGklwHDhXfJfemQI8mb/WGyPvavZFy6ihJMNNwfddP1Q4M2nvQtuYf5nstkKgN1tmZ9XEZHLVwf+CsYkgMJPued8l25ZnMa911nqGF8CA6abwf7Zuyc45I956PidJuJXhUhBCvbRfaMU0W2ARzoXStY0yTlbcelYE2dJ1uDO7W9Yy1Z8HML7RUlFYAOk+5YSQGTGwjGTSEa1V9TVsKQCYUCwuTBKYcahnmBSofZgQ33Tr5BnEw0fu6pXxbf3QT7nWWGtCxkLcDqHXa96/pjZYRh33Qiedc2i6ACFph9/hLJo+gPFICP85h+JzuNX6fUu06lzjsvJveqJsp+I03ZB76tfBEeMY0646cyYCj6Q3CAGOAY5l/yc86j7PuvoOC+L1LmumYy/7ONPN4HgtaZrLF+QW7TbHVcED4aFFBeJBOmwPaeF++gzJJF5P5sIdnP3i7Db9Td+/nJMiRH8H91NqXW/C9fU2lc7pAaNsvFWP+Q7HupRvIntvNefw0JOZswnWyGIJfseh4d9ldMReh+5I2eXNjjc7vWFfZKkwl9Hx2GmEt+3xtyDtMSwagjxExWgyETCiqUrS33RN5091Cyt0tmYfMzFlHikpUyymlhlrsrbyH/vqulAXweLWA4DDOAITKEsvuRm6jxtRfI5QggGmx19r4bhLB5ezwFbF6izql8daB1CjXN/2fK3fZFavjbr8nm9LiHfd9V1PPwd+S7viCs2/51MZ3whWQeCnE4YDLPPOVGSt/7DXIe/EHRDHmP/oC8pV/iuzOYFJgVx2MeaBWUTXcMwFBOmPgjjX0vUNPmP5D78oPk9CkV5LHJxYgqvf42CYktd5Cx+3m51g/eTso0sr/3zDUikyTfN3XkP4gmDwNPBJzRraLBZP5q7f0yMFDX+gNFA9m026FRRpEJcE2mCBjwfwG0M/zfajFkQqECiXHTqPGTSyh57l3if6QuW0WNZ/+S7LGHk7H1ceq+49+I7r6IGljBwMGEHcb0gTmOnUjWTDLbveUl0RwQgIyeuBcmtq+SxkDhjDY2QwUiaKDn29Zocnf8nUckS8jn+kJDYk4FfnjyiduFzLYbUPqYkyhfopYuN1oTj5ByD1+jyodzcIJZewRPX8+OdYf4fsn2cyU9ZvtRfjyqiQKONsy+aMLCdfggejSMfBG0g18iC4HHyi+56RG1P+146WBhyMCl7f2iveFGGOtYK/J9i/OCIeAemmygCL4hk9+tzFg5lNJaSGsnx5W8VgpDJhRsbDfU+pGn0272W+A3YHYc5sjdziR5YilZa28UzYEhPaCmFTjtw4vJvbaN3O9Mo8SmJeQ1KgFA4NBiEhdDbmwbWXgR6A/sGI/dSg1pbmyOiKEvyCivlWZ/JLdtFTeiQeaow6l3ApvTiIOPvDNP/V5Mljap0ADIC2Yl9+IfZS4GX2fAsy+YA1H7hYfSEFzADNNaT216isN6Da3RkDecXu2LhYEX9mOUCjJaa5YLuc222ZQfVXDuC4DGaTmaNRfvu88/JP6QJk0poPMW4eW5E+arIoZdKGM461LlLoUhE8q3U5Teulp8hCT7BrmbPyOzxx73+gSbM+Pj7N9ctEI0RyO6HgtUj/Ig9ARrApBNSKZOi/0WLeZsolxP5e+c4PGB17FGJgC1kNBomIRDwxhbN0jl4Kw2tEwnA/eD2ggh8cpfpQyAFh7yQjxz4ytyjCTm5GPFL4Qm6jdpyJC4JYStfZiGQsZhJzg8BaKBcwF3Dufxn6u6cembjzmn+PgDwDM+Z/I8ybv7KXb+C3nrieYwcD8MgAAUWcepRIxKZKuGiMCQCaV9qOClZWRvvYPSryyh4O7F1Pfj+ZRfu0IEkmmbS008CsMQHnM1GOWFoQsJRx6cQy+F3+A0TGYNBR1SHhBQ8PojSiMxRFAsad1Y5hvrRN7IpYFHKtAwYcCcBZ1bhCRaK2rAl3ByO6WGaBOzcZKch58VbTrcD52iFKmiqNSYSrOxW5B5TbSrnGNfCRoQBEJab+ICssYfzM71Nmp5daXEKQfEl7nA7E6Rgzzzq9IXwrSEbDlABm5e+VPVYMiEUkiJNoDJEP+Dh5eY+/HvvkLmVPCw0p1+ImVHzxTtAQ0EEmESzYSTy6GLhYShv/X5lWRfuYmMr/VS82fvl2FxtHCaLPCh/L5s0YwVG6rQYzEdAEJoWE0HqNnjQo8F4KNRbqOQJDovJGXs2iFTHihD0DpBGkcEHDYjgwTyHainJ1gLwezhy+kYafZNguy4qOiUR5whHcRZe0/RVyuH4n3cnJQbNcknJxQ7VilyF89xGeDM417Qluh4A5VbY8iEws0A1bPQsJgv4i1qzz5M8OIKXJARS2LcXGkNjCBAIjF9h54lTvyoi+6idPtFki735H2UeeC75N77NT5Q8zgaembaZhsA4UCDqRGLmhUPVxhmyTD2OKo5HoUCuhE0r+DTINvotATgWHsmFb3cnvkgv+AzhVGtsDWifpaA64/RLPwed/395OS7RZRNx16yx+wd9j7RrOm/3z7gEhfUC/fJvrpajpGuccrc4gCnVJkhB8gkNXoWa+WxQg64Hn7PmuJM+kAYMqE0tNaA2tcMR8N5G/+mDhjJQ94tFcGzLoyi8m3sxJ/zU+rlHog5J/hhzn8fR9Y9F5G54iry1t5SXA2gocijoAsN4UcbR45Zmt4oNVyWfHhYrtdkgRzhSmMF6F4mj+tht4wtPnB1+raI1kMd9x5P1RYY7RqbHyNj5yYhBWaqZfKYBwZYLYDRXaZDmcRKABlRWP/VZ2UKBp3QmzRD6lFKOwHwP9HZnSknyGBEOLRb+ZJvuoYqBa0pMPrwnv+dVCQsFExqooePOvE/ZEEYpg12/uJksjcvI6+hVVZ3JjmOldu7+2EEKGTx1Mw5Jv+wLEQTWgPHCI3j3yH3BozCw1MI09+xRdLDp/BbZglBClwrAmYBhNTpza4tovXgb2Gi9M2ErFviAhlP3CrH9uQjqPfAOWLuoFnd1XfL5GoprboXuALmK7ewPLtEQyUOmyvuR9Sf1BCisTZsmL5QiIHgP3mrWnlbzf0YQyYUEuLRi9YQ/RjMQjc614ifAvlj+h6+AXpfkGwl66CZ0pDetnXU3LWNciCRzECzpoAQph4v80T9waM3JkRu/RPqORwTwhnfXhzJaECLQHN546ZKD8MXMmnni+oio3f3nt7dN/owESJm+PutVuA87WnvlQ4BQGPCBwOi9wujMM/ZDzDx8B319AGOo50gChA/8/xN8vgGo9TUEaeTOUU94KUX7+k30kR9ywHyglxzT9+rNBRrndEf/DJlmTRqEV9hnT5vEVC2hsPmU/DOD4n/iJUMqDs6OqDjVcKQCVUJaBgswfC3P88FKDR+82wZCUH7YMpBCNmSljkP9EozibXhXGge8SXnnif7YQgZORjrlot/hVFm4oiTZM5ISFAI6H14BmdNeDeSkf3icvEBAJi91Mb7hWQQcHre52V2HwMK+HeyMpFhtc2ixJR2iRNsfZwSnV2iOTFHFZ4pjwLOvUyiOruFiqgnNC/WaGM0isZDPaFZywHlwL3w5AFmD0gfexbZEw4nZ9frMvOOqRL94LpfR44AZUWdvQcuIoutgZBk1kfJO/pi1rogY49M68j8WKZH4gcnXSf1xsBn97IfSzkw+MH94CPDPah0zwriGTogvDSrIGOjakg0fnDYiepRQvAa+VuflPNm27FMirO4J6hCY9DmfOIGcg+bV3w4GYbMOHesEaLi0Upj+wXkzF7EfgULD5qDtx3JyWSfdq1MaoJ4uRU/lAaSSVOuLaYmcqvuEN/KmvE+Ss25lNweFhT7d7jWaU4mOu1G1gamPGf0//hNttG4uzJ5lXwoEBoL17yO5+QY9W6Y80/SSdBgavqkh0kDbVwe0AJwG+iZpdKxsO4c2iW5+a9yHfLV81uVAAKj8fEjjPySc8TR7+F8Rp36LZFz56g5bGW6hFRYhJde/DJlJsyRJwy5B78lE9N0yALKLLyBkvOvlsEBlEIlDTs0QllJ6YF6PVQ55Dc8oXoqh9ShSmPIshVupKKjuOg7lDx/GVmLllL6Sy/Lw97dN19AhpeVdBro/eghmBl3/udUmVSFH4ZHPean2AdbwJU+9y4ae9mTMtwGmfxbPicLxqSlOS3KimeGxp8+R+6GVer+p3yXGj7zCFknXi9LYCYhfdtc0WJ9PNqERtBmBcLUPpQuW/j5IDSPaMhNK4pLoDMLryS6dLlMjcgSmYkLitrXxsN13jppFgqXER1GRsoMkCG7+odSDky/SLzHbxZ/BkCVEAfAUwUcS5zAFVJrgFAos/fGY+T/8MPUsHaFzOFhZN3yuZWUvrKXGr+4VVZ4YKoG9zIoy+1wGiW/sJWsCwuj8Ak8UhcoS1IO1lUn2l8t7A8I8S2ax5HTdhSZaLA3VpOz9veEB9RhZvo8lDOtPPVxhRPsVCJuZvt68jZgDTarfu7BPeufpNRB7ySr9WAKxh9CfutYrvTLFPzybLI6HiVv+kfI7N1FxoZHZYmsVRidGHyjRJCjzLO3UbPfTDSmjcwDj6CGg44l74BplAAR19xH7tLLyXvtT5QSVcR/nJY3ErCgMvv0z8jmAloTJpI1fhr3xHYyJk0n08uRs20V9d75BWpc+3+UT7eyANXzFuThs6azJx7FxHHJ3Pws+RuXFeemDC6XydL2uzqoc8PT1NzQTOboyWSMnU7Jg44hf9JMyj93DwU7npNHPubkudzgLmVf/DPR9mfY50nxPfLkmnmyuJ5BLkfJCUfzPV2yNz5NzqPfVDPzRp5HoIpUJv/rbmyj5CT2B3t2UvYVNtFdygIA4BbaJsE7predjFU3k7v2r5TIZlm+O3mQlKGgZzv3t9dZi75O1PU6+b3buKMYfMwqn89L2Pwwj9zvlzK67GyhPUphUD+jguMKfwCWS1YNsCBhz9FJw5ODcPjgb6C3YrpARldcK5gLrFuGypffpXEcrJsCsn1bxfRBA+Ehb5LVKx6OQrXDBMDOF2030iIO542y2IUlJoLcRjFf8B1K2fpSZTNbZlOQaqaM20mNfVu4hdgsYRABU8lpwnUTTcAdCxOdSAtzqoFrGKRg0hZyEQecfSi7WdXR9ZKU6F0lTjoeR2GIbsN2s0mFPMK/hRNzxdchI9wLAw08PNd1wvWcO0nWTKG+kC/yslnFQCPxXxFhOaA+nJWsTIW/h7xR5moGCrAuyBv+bHQyWGNQhILAUFBsofo0+jV2CCCCVuHFxLKrHgJHH1egYnCM4ZginVbpECxGLLgHzumn9jpvZI1K6vxkpMfHaPhwg0sjFcqp6qCg64Q8MECwAvWgWV1T5ehXP44MwujyaSCObhiUAeVG5jpvKDpZi84n0DDlGrIgpkIZQzKMQF3fU18xzXzSSeydBnFVPVW90GZajv2BdHufV/HVPsodrbvGkAhVSpBh6GMIS998IOGEgfioLOIiXbRHIP9yFVL3KQiXES2bxp7Gx/wWk7ugtUBcAD2+1D1UOi3wvVeT4jrWxIPIOr0uL/LEPTX5tSxxXZcnmp8iwN730dD30I2tyVBJzkgT7ZTVABoXD/VLlVNjUITSghkI0ThhDVMJqqL9yaDziqbF+VL5hePrDlAKOn00H31uXxAuQxT6Wpiw0TKEoa9VigMMdF1D31OjmjSDAVerekQLA+BcqUKGA1q1moJrMunepvONpsX5cvnp84ijiVkKOl44fngLhPc1cC4cSgF5RvONIvxsDHHLxQujUhx9v4Ggy4awR6vVDoMiVCnowkVRjYCigDZBXnpbLu9S58KolLYcqr1POO9S16OIximXrlxe+ny5dGFA5jpUgo5TqcMNFftMqHIYqPIjHW+GfDTpBsq72nhDwZtGqBgjEUT/D3Z76suUsGf2AAAAAElFTkSuQmCC;" vertex="1" parent="SwHwOmNfwHO3F5PcCJjN-115">
          <mxGeometry x="-16" y="-17.80000000000001" width="43.54" height="35.59" as="geometry" />
        </mxCell>
        <mxCell id="SwHwOmNfwHO3F5PcCJjN-259" value="" style="endArrow=classic;html=1;rounded=0;" edge="1" parent="SwHwOmNfwHO3F5PcCJjN-115">
          <mxGeometry width="50" height="50" relative="1" as="geometry">
            <mxPoint x="184" y="30" as="sourcePoint" />
            <mxPoint x="114" y="80" as="targetPoint" />
          </mxGeometry>
        </mxCell>
        <mxCell id="SwHwOmNfwHO3F5PcCJjN-116" value="ORDER" style="text;html=1;align=center;verticalAlign=middle;whiteSpace=wrap;rounded=0;rotation=-90;" vertex="1" parent="SwHwOmNfwHO3F5PcCJjN-114">
          <mxGeometry x="-15" y="60" width="60" height="30" as="geometry" />
        </mxCell>
        <mxCell id="SwHwOmNfwHO3F5PcCJjN-132" value="USER CREATE ORDER" style="rounded=0;whiteSpace=wrap;html=1;" vertex="1" parent="SwHwOmNfwHO3F5PcCJjN-114">
          <mxGeometry x="200" y="20" width="120" height="60" as="geometry" />
        </mxCell>
        <mxCell id="SwHwOmNfwHO3F5PcCJjN-133" value="" style="endArrow=classic;html=1;rounded=0;" edge="1" parent="SwHwOmNfwHO3F5PcCJjN-114">
          <mxGeometry width="50" height="50" relative="1" as="geometry">
            <mxPoint x="320" y="50" as="sourcePoint" />
            <mxPoint x="390" y="50" as="targetPoint" />
          </mxGeometry>
        </mxCell>
        <mxCell id="SwHwOmNfwHO3F5PcCJjN-134" value="CREATE ORDER WITH STATUS PENDING" style="rounded=0;whiteSpace=wrap;html=1;" vertex="1" parent="SwHwOmNfwHO3F5PcCJjN-114">
          <mxGeometry x="390" y="20" width="120" height="60" as="geometry" />
        </mxCell>
        <mxCell id="SwHwOmNfwHO3F5PcCJjN-135" value="" style="endArrow=classic;html=1;rounded=0;" edge="1" parent="SwHwOmNfwHO3F5PcCJjN-114">
          <mxGeometry width="50" height="50" relative="1" as="geometry">
            <mxPoint x="450" y="80" as="sourcePoint" />
            <mxPoint x="450" y="110" as="targetPoint" />
          </mxGeometry>
        </mxCell>
        <mxCell id="SwHwOmNfwHO3F5PcCJjN-235" value="" style="shape=image;verticalLabelPosition=bottom;labelBackgroundColor=default;verticalAlign=top;aspect=fixed;imageAspect=0;image=data:image/png,iVBORw0KGgoAAAANSUhEUgAAAJQAAAB5CAYAAADf5giIAAAAAXNSR0IArs4c6QAAAARnQU1BAACxjwv8YQUAAAAJcEhZcwAADsMAAA7DAcdvqGQAACAFSURBVHhe7V0JmFxVlT5vqaquXtLZyNIQghCySAgIJrSomE8+zRcVZQuDrAKjCKNfYJhRZxTGBRHG5RMHHVFcgzMMIBAVMGhYggKRJRAiECAhIRskHdJLumt525z/3LqV1y9V1dWdAtLV7//69tvuve/ec/97zrn33XrPcK5pCChGjBrBLGxjxKgJYkLFqCliQsWoKWJCxagp6oJQBoYVLm8dtdVBH2Mr+wAfB4aKUg55vi4I5VEpIL9imhGOYT/KA5n6mk8g6+BZZBgNhbN7I5/LktezgRo2LyMz2SLnbOqRbRTIM+dOIu/QD5HXZFCzdQA5AdizN9zdW4k230eNXpccg1wjGcOfUKxBnAuWU2JKuxwHrHRt2VPIc7DIl/NG1wvk/OgEIVKeLySTKk4pdL7jFBpz5s3kcbqwGg/nDSD//APfpoa/XEWu3VKWpCMFw97kBR4TxmqWhgd8Dh7/1xYJnLH4GojgNUzk/0wmaJFUBW3CCcekJlMvp0vwDQzOTwfkrfPHFmi0WigrezHqw4fKe6KFgDCBotokrJBM1sseh5KkKiRsVBvJLxoQBdv+AhzZ2gmoC0INFiCTRilSiZNfgGFYhb3SUDRWiBJ4JKJuCAUfqRr4TB4EvW+V0lAhBLCpFRC+60h3yIG6IRT8G5BqIAKEAU1lhlVMAcgiZ3iicXyjepZA2410jEiTVy1KTxTEqIS6I9RAPk8UsZmqLUachgo75AAc8NhU1Q51R6jB+FAxao8Rb/Ji1BaxUx6jpohNXoyaIjZ5MWqK2OTFqClikxejpohNXoyaIjZ5MWqKEWfy9EoDDTx60SsOMGuuw2DgmKY8ZI7mHc5vKGE4YsSZPM9olccvjtkqwaUW8oIW2TqGCiBZPsiQn9tVXAlaDuHFCsgb+eig8xtsyPEtEYYjqeqOUBVheZRvmkrUTZTo7KJkbxcZmR4+7pGtDtkMR508jyg1hhIuH1QABJgYO5XMLBXz29fgc/kox6SPaLzhgOH/bgMs5r7gETIOOUrWQ1ls8sppKbRTA2sdK9enTpRD0CPrz60UtFlQUevpdeXUvU1tawDXZGKtv5/cO6+o+EOK/RF1R6iBluFijZM2U+XaSsfBOnWsG6+EsM9WqxGm3J+Jn/v+LEr7XcUlNsPBBI4sk8cA4UCkSh1fxxmITABIpEMtMNzn0eqOUPHE5tuLuiNUrTTF2wnTVbYt4fvDbhphxJm8/R2D+VHE/ojY5MWoKWKTF6OmiE1eDeAXfB793gMd9PsPsA3cjAqsQXWoR8QmrwYI7ECIEwV+fKq3vp0iz06TxxoUoV4Rm7x9hGijXJeaKedgFfaxDQecc3dtK77FpV4x4mbKaw08zml+9nbafs8X6ABvm8xqw8RJObBTAIqZGX8cjT3rx+S1ziw7sQqCGq5BrtdJ/vdmUCLoGVY/Ro1N3j5CXvmzq4NGZbfJw1zNIWzziT3BZoaN3bGS/N68PNKpV8Qmbx8BagQBUyQiSayxSrLu1wEQTcPEqvZNMcMR9VuztwgQoGEorQgSwdQh7D2z3UL5+lVMRdQdod7O4XildyT4xsh4u13dESqe2Hx7EZu8twjRt77UK2KTt4+Av4QfKTTI8E69/1wDp3TADxiSkLbEq1/EJq8GyNt8TzCLEf6Rgp9nIungsI+FrzJwvAEWIA9rxCavBgjyHfLDBj/fQ7bbI5OR2IdGEq3EwDcePHCdNVRTPFO+H2MQP1J4M4AvKRjbV1Pu78solUVhmDP5XrKTTWR4e/prYPkUNDcSzbtQfvxQbnnxcJ8pjx+91BBwj8rdX18DAeXrDGVIHz96GeEAATAQQAiTCcfy4LgQoDkBPHap56mNuiPUWz3Kg+kCQcIkES3Dx7imgwZ+51fPqDtC7Q+9v5R/pMu1P5TvzURs8mLUFDGhYtQUdUMovCUFju9b7UPVGvCxfHsYDesiqC8N5WFQrhzz4RrgY+lpT6v5oMLe8EFs8vYz5PF2GKYUlgjv7OtUJ4cR6oJQfk6tNXLsNDncw9HLdcAvTMLH+3swU2PEfHu5PhqVC4bVpCYw7GfKsTLSnbSA/HEz5XFHPcC3dlP3upXU1LWyuHx4uGD4P3oBXPUEBsBD2PDyW3ZLhhcK0+1SB96PNdTbgLDQ8b7M4Y8eWT+Fd3bihWPDCXVBKKw9QiOgc0d/HBD9Ncr+DrUuvUUeCgOxhnobockUbQScx7l+pjB0HL2mofMpdQ2olK5c3qXS6HPYaoTTDyfU3bRBqQbQ57DVIXwc3g8HjVLXEMpdC58P75c6Dp+rB9QFoXRv1uYNxzoMN+hyh8k2nFAXhNKC1wTSjTEcG2S4lluj7kxejLcXMaFi1BQxoWLUFDGhYtQUMaFi1BQxoWLUFDGhYtQUMaFi1BQxoWLUFDGhYtQUMaFi1BQxoWLUFDGhYtQUMaFi1BQxoWLUFDGhYtQUMaFi1BQxoWLUFDGhYtQUgyKUXjwPVHp/u15o/2ZA3xf5Y38w99FlD6cZTB7qnrX5IWlYfjpPlK+SXKOQuPxPvRd9z3r0aH2i5/aKyydU3dS+ym9o9RwUoRyjRW7sZYjsrNqGg/weHIELleOcpVBSyn0H8pJKIz++R5BT5/usVrVTBfAjSiTP4SX0XF4l5OoFhwawqadY37x6e9CQkOB7S3rIq7uH3O7Blwe/LpY0nB7t4fdxg/qqnGEgDs6h7iJH1J0D4mc8LgenyezmunEEfNtvXzCoH3qiYGjA4D2XUyo1Rc7lAy5ZASmnk7w3dlCm4wVq2LyMklxQt6FFGmFfAWHgiwTG0YvJnXg4C+QNSj96lZC82vylAY+6mKzJ88jIb6P8g18hkwWYLHzhYCCg/k7DbDLmfbpw3EPWA1+hYJCNgLpI473/K2TZB6gvMTDyT/yERr+xuvr80LHa/52yY9rksKmplZzHb6bg9WX9qoNyo4OnuP453remLKBE+yXkTJhFqZYWedOL07WRzA2PUu6Rb1M630WZ5NB+Bj9oQuVb28n6xzvktTN4MVZYxelK4MVZfvdLlFv1W6KHrqZUQUDRnjMYSO9i3tiXLKf8lOOpqXsLBddPI5dvWgUXBNAqiUVLyD3ydJbsLsp9fxY1BF1Sr2qAeF1NM6l18ZPyyp2g41Wy/muGekNHBJInF7oUOSAHaAf7X16m3lEHSnIoKlpxHaX+/FWy0jgYGHnOx758q7xIv7fQEomlX6LE6uv7CUU6UorbKjmbaNH1ZLP8AB/vomIyWalGynN7Cvic98frKPEU51GoF8pbrYwGafI44xzrxgLwBYHMb86j/F2XkXHnFeTc+w3yn1vGLZdX39Wd/2Wyz1wmJkbSVlmoUoB8GrhxzD6XRqlTg/6gYQBNZLUUK53gHogygazVosXkigwEzhCmZNf0U3hX+Tel4O/eKZ/pSLgZabv0tIVyHkRBmqi8tNmSjsk73pRFQibTzVELd2J8rjbB9SslF7x4wzjvt2QymSy+H9oMHQqdMvu9NspxO6I9iYllfeJa0XzixjCynLZsJSIYFKE0ElaBulyRxJrbKPnsjZRb+yMyH7+GnFtOpo6fLiSr6wXRYInp7yX7g1eLzYZ5qjWq1U4afj4rafRHpCGnweThORa5f7mJgr/8hBLP3bN3Ys4w03oC2Z9aTuNO/5l8qcoxuTFLdCazeZx8/cFZ97i8tS5om0PmAbPknVAJJj/MVBjIA18NBfAhoqY5H1ea8vm71UnA3+OCaFhM7tTJt1Jq/MFC3vyvP0n0zI1yTb6HzGVuXHcbGTceJ6RCWcyFXyZr6nypT8LnlqxSSIMilM7T8URBk5+cSD5zC2YHQnC4cEG6hca8tpL6/nCNFAxvlLOOOlOuQbj7oqVqDVWf6gcOYqrya8h5YDF5yxdT30OX9xO0HoQkjzlNNAHkBC2IBhGtUgbutoflM/yQanD02aIZYCrNEq8mwsACMoSc8we9Vxqwd/Xv5O13GvqDRQIuj3fMxUQzTpDPggSP/Iq8TcsoxeVB2VLMFfhLfazpsHVvWyzJQFT3w1eKtrMMHjTI2YExKELpTLWGslhlw/GGTFFJjFzkNTR82Xr5NhESbLLZMomsse0lnTyk0ySD0HUQoRW2uG+5BtHpM6wFEAdxpWEL1ypB1yfUFsVzelQZzYPbmdIc32QVhy+d63sC+AIVGlw72ZATBhLhV/OUyjPZnRGnGGbLmPEhcjhD5IkvW4WBc1pDGROPJ3PMZDLYEtidm9TJAkACLQMkShx/oewmuS06V90oZUdZMErE+yDQLvAlQXzz9cfIeO5PEj910HFkHnIqO9r9+k1FDIpQUQRJqzgUl2MuoBYw1Cx8BDjv0FJmWql9+FKIA0cR8eBrwMfCMRxVJ6cC4uDlYdpMqvcmKcDpByAMMQucUbqvS9LDtCYc9cGdgaYUIFC8VwrZ4f7QDEgvjcAkwL2jZhp1QHyYCQDDdGg5HEIzwE9LuujfCigj6gz1g4ZBeeEj9YOZJuP5pRzPImPCHLIObJcGdO3+98Y5yARTDIm558g9jGcepGTroXI9DN9pkjI5E9rJnDBbWYudm6hp5wvS8dGJoJ00uVU9FGFzLz0g+1Kewz4gcfYqcxnoeu8z0IAaUnH0YvYRAFTGz/BQVPFAyAHh+84kCt5xLnkLbiDzwuVknL2Mkp+4RYb2QfMssrPlpwMcT31F0wIJp55KdMotFHx6OSXOvItycy4Wkjbmyg97of6RFhrEO3CB3FfufwY37Lu+rjpGREMA6PmZQxdR/siLyZ4wX8gCAlNqNjlzFpNzxLlkHDBTRbaSZPG5xMxLyTlmsaTBSKvUezODNfeLfwPZmUexj8N1AynCQJngNri8Daa+R871Pn0n7Q66i51MI5l4TepmH/pB8dMQ/PWPFa72by8Ax9q67N76mPiYIId5aDs53Mmq/cTtPhHKyHvSI8FqzXQpKAsjMXYWeTwklq8wsekLOh5jE6G+colJuO62BZT47FJKnfMTamy/gCyrmfxGm/2tj1Hy5O+Tef7viQ6eL2o/qm59wyCDvVKX88p/5AZqOP83ZBx9kgyH/XcuIJfTpy5aSZ1j50hZygGklwHDhXfJfemQI8mb/WGyPvavZFy6ihJMNNwfddP1Q4M2nvQtuYf5nstkKgN1tmZ9XEZHLVwf+CsYkgMJPued8l25ZnMa911nqGF8CA6abwf7Zuyc45I956PidJuJXhUhBCvbRfaMU0W2ARzoXStY0yTlbcelYE2dJ1uDO7W9Yy1Z8HML7RUlFYAOk+5YSQGTGwjGTSEa1V9TVsKQCYUCwuTBKYcahnmBSofZgQ33Tr5BnEw0fu6pXxbf3QT7nWWGtCxkLcDqHXa96/pjZYRh33Qiedc2i6ACFph9/hLJo+gPFICP85h+JzuNX6fUu06lzjsvJveqJsp+I03ZB76tfBEeMY0646cyYCj6Q3CAGOAY5l/yc86j7PuvoOC+L1LmumYy/7ONPN4HgtaZrLF+QW7TbHVcED4aFFBeJBOmwPaeF++gzJJF5P5sIdnP3i7Db9Td+/nJMiRH8H91NqXW/C9fU2lc7pAaNsvFWP+Q7HupRvIntvNefw0JOZswnWyGIJfseh4d9ldMReh+5I2eXNjjc7vWFfZKkwl9Hx2GmEt+3xtyDtMSwagjxExWgyETCiqUrS33RN5091Cyt0tmYfMzFlHikpUyymlhlrsrbyH/vqulAXweLWA4DDOAITKEsvuRm6jxtRfI5QggGmx19r4bhLB5ezwFbF6izql8daB1CjXN/2fK3fZFavjbr8nm9LiHfd9V1PPwd+S7viCs2/51MZ3whWQeCnE4YDLPPOVGSt/7DXIe/EHRDHmP/oC8pV/iuzOYFJgVx2MeaBWUTXcMwFBOmPgjjX0vUNPmP5D78oPk9CkV5LHJxYgqvf42CYktd5Cx+3m51g/eTso0sr/3zDUikyTfN3XkP4gmDwNPBJzRraLBZP5q7f0yMFDX+gNFA9m026FRRpEJcE2mCBjwfwG0M/zfajFkQqECiXHTqPGTSyh57l3if6QuW0WNZ/+S7LGHk7H1ceq+49+I7r6IGljBwMGEHcb0gTmOnUjWTDLbveUl0RwQgIyeuBcmtq+SxkDhjDY2QwUiaKDn29Zocnf8nUckS8jn+kJDYk4FfnjyiduFzLYbUPqYkyhfopYuN1oTj5ByD1+jyodzcIJZewRPX8+OdYf4fsn2cyU9ZvtRfjyqiQKONsy+aMLCdfggejSMfBG0g18iC4HHyi+56RG1P+146WBhyMCl7f2iveFGGOtYK/J9i/OCIeAemmygCL4hk9+tzFg5lNJaSGsnx5W8VgpDJhRsbDfU+pGn0272W+A3YHYc5sjdziR5YilZa28UzYEhPaCmFTjtw4vJvbaN3O9Mo8SmJeQ1KgFA4NBiEhdDbmwbWXgR6A/sGI/dSg1pbmyOiKEvyCivlWZ/JLdtFTeiQeaow6l3ApvTiIOPvDNP/V5Mljap0ADIC2Yl9+IfZS4GX2fAsy+YA1H7hYfSEFzADNNaT216isN6Da3RkDecXu2LhYEX9mOUCjJaa5YLuc222ZQfVXDuC4DGaTmaNRfvu88/JP6QJk0poPMW4eW5E+arIoZdKGM461LlLoUhE8q3U5Teulp8hCT7BrmbPyOzxx73+gSbM+Pj7N9ctEI0RyO6HgtUj/Ig9ARrApBNSKZOi/0WLeZsolxP5e+c4PGB17FGJgC1kNBomIRDwxhbN0jl4Kw2tEwnA/eD2ggh8cpfpQyAFh7yQjxz4ytyjCTm5GPFL4Qm6jdpyJC4JYStfZiGQsZhJzg8BaKBcwF3Dufxn6u6cembjzmn+PgDwDM+Z/I8ybv7KXb+C3nrieYwcD8MgAAUWcepRIxKZKuGiMCQCaV9qOClZWRvvYPSryyh4O7F1Pfj+ZRfu0IEkmmbS008CsMQHnM1GOWFoQsJRx6cQy+F3+A0TGYNBR1SHhBQ8PojSiMxRFAsad1Y5hvrRN7IpYFHKtAwYcCcBZ1bhCRaK2rAl3ByO6WGaBOzcZKch58VbTrcD52iFKmiqNSYSrOxW5B5TbSrnGNfCRoQBEJab+ICssYfzM71Nmp5daXEKQfEl7nA7E6Rgzzzq9IXwrSEbDlABm5e+VPVYMiEUkiJNoDJEP+Dh5eY+/HvvkLmVPCw0p1+ImVHzxTtAQ0EEmESzYSTy6GLhYShv/X5lWRfuYmMr/VS82fvl2FxtHCaLPCh/L5s0YwVG6rQYzEdAEJoWE0HqNnjQo8F4KNRbqOQJDovJGXs2iFTHihD0DpBGkcEHDYjgwTyHainJ1gLwezhy+kYafZNguy4qOiUR5whHcRZe0/RVyuH4n3cnJQbNcknJxQ7VilyF89xGeDM417Qluh4A5VbY8iEws0A1bPQsJgv4i1qzz5M8OIKXJARS2LcXGkNjCBAIjF9h54lTvyoi+6idPtFki735H2UeeC75N77NT5Q8zgaembaZhsA4UCDqRGLmhUPVxhmyTD2OKo5HoUCuhE0r+DTINvotATgWHsmFb3cnvkgv+AzhVGtsDWifpaA64/RLPwed/395OS7RZRNx16yx+wd9j7RrOm/3z7gEhfUC/fJvrpajpGuccrc4gCnVJkhB8gkNXoWa+WxQg64Hn7PmuJM+kAYMqE0tNaA2tcMR8N5G/+mDhjJQ94tFcGzLoyi8m3sxJ/zU+rlHog5J/hhzn8fR9Y9F5G54iry1t5SXA2gocijoAsN4UcbR45Zmt4oNVyWfHhYrtdkgRzhSmMF6F4mj+tht4wtPnB1+raI1kMd9x5P1RYY7RqbHyNj5yYhBWaqZfKYBwZYLYDRXaZDmcRKABlRWP/VZ2UKBp3QmzRD6lFKOwHwP9HZnSknyGBEOLRb+ZJvuoYqBa0pMPrwnv+dVCQsFExqooePOvE/ZEEYpg12/uJksjcvI6+hVVZ3JjmOldu7+2EEKGTx1Mw5Jv+wLEQTWgPHCI3j3yH3BozCw1MI09+xRdLDp/BbZglBClwrAmYBhNTpza4tovXgb2Gi9M2ErFviAhlP3CrH9uQjqPfAOWLuoFnd1XfL5GoprboXuALmK7ewPLtEQyUOmyvuR9Sf1BCisTZsmL5QiIHgP3mrWnlbzf0YQyYUEuLRi9YQ/RjMQjc614ifAvlj+h6+AXpfkGwl66CZ0pDetnXU3LWNciCRzECzpoAQph4v80T9waM3JkRu/RPqORwTwhnfXhzJaECLQHN546ZKD8MXMmnni+oio3f3nt7dN/owESJm+PutVuA87WnvlQ4BQGPCBwOi9wujMM/ZDzDx8B319AGOo50gChA/8/xN8vgGo9TUEaeTOUU94KUX7+k30kR9ywHyglxzT9+rNBRrndEf/DJlmTRqEV9hnT5vEVC2hsPmU/DOD4n/iJUMqDs6OqDjVcKQCVUJaBgswfC3P88FKDR+82wZCUH7YMpBCNmSljkP9EozibXhXGge8SXnnif7YQgZORjrlot/hVFm4oiTZM5ISFAI6H14BmdNeDeSkf3icvEBAJi91Mb7hWQQcHre52V2HwMK+HeyMpFhtc2ixJR2iRNsfZwSnV2iOTFHFZ4pjwLOvUyiOruFiqgnNC/WaGM0isZDPaFZywHlwL3w5AFmD0gfexbZEw4nZ9frMvOOqRL94LpfR44AZUWdvQcuIoutgZBk1kfJO/pi1rogY49M68j8WKZH4gcnXSf1xsBn97IfSzkw+MH94CPDPah0zwriGTogvDSrIGOjakg0fnDYiepRQvAa+VuflPNm27FMirO4J6hCY9DmfOIGcg+bV3w4GYbMOHesEaLi0Upj+wXkzF7EfgULD5qDtx3JyWSfdq1MaoJ4uRU/lAaSSVOuLaYmcqvuEN/KmvE+Ss25lNweFhT7d7jWaU4mOu1G1gamPGf0//hNttG4uzJ5lXwoEBoL17yO5+QY9W6Y80/SSdBgavqkh0kDbVwe0AJwG+iZpdKxsO4c2iW5+a9yHfLV81uVAAKj8fEjjPySc8TR7+F8Rp36LZFz56g5bGW6hFRYhJde/DJlJsyRJwy5B78lE9N0yALKLLyBkvOvlsEBlEIlDTs0QllJ6YF6PVQ55Dc8oXoqh9ShSmPIshVupKKjuOg7lDx/GVmLllL6Sy/Lw97dN19AhpeVdBro/eghmBl3/udUmVSFH4ZHPean2AdbwJU+9y4ae9mTMtwGmfxbPicLxqSlOS3KimeGxp8+R+6GVer+p3yXGj7zCFknXi9LYCYhfdtc0WJ9PNqERtBmBcLUPpQuW/j5IDSPaMhNK4pLoDMLryS6dLlMjcgSmYkLitrXxsN13jppFgqXER1GRsoMkCG7+odSDky/SLzHbxZ/BkCVEAfAUwUcS5zAFVJrgFAos/fGY+T/8MPUsHaFzOFhZN3yuZWUvrKXGr+4VVZ4YKoG9zIoy+1wGiW/sJWsCwuj8Ak8UhcoS1IO1lUn2l8t7A8I8S2ax5HTdhSZaLA3VpOz9veEB9RhZvo8lDOtPPVxhRPsVCJuZvt68jZgDTarfu7BPeufpNRB7ySr9WAKxh9CfutYrvTLFPzybLI6HiVv+kfI7N1FxoZHZYmsVRidGHyjRJCjzLO3UbPfTDSmjcwDj6CGg44l74BplAAR19xH7tLLyXvtT5QSVcR/nJY3ErCgMvv0z8jmAloTJpI1fhr3xHYyJk0n08uRs20V9d75BWpc+3+UT7eyANXzFuThs6azJx7FxHHJ3Pws+RuXFeemDC6XydL2uzqoc8PT1NzQTOboyWSMnU7Jg44hf9JMyj93DwU7npNHPubkudzgLmVf/DPR9mfY50nxPfLkmnmyuJ5BLkfJCUfzPV2yNz5NzqPfVDPzRp5HoIpUJv/rbmyj5CT2B3t2UvYVNtFdygIA4BbaJsE7predjFU3k7v2r5TIZlm+O3mQlKGgZzv3t9dZi75O1PU6+b3buKMYfMwqn89L2Pwwj9zvlzK67GyhPUphUD+jguMKfwCWS1YNsCBhz9FJw5ODcPjgb6C3YrpARldcK5gLrFuGypffpXEcrJsCsn1bxfRBA+Ehb5LVKx6OQrXDBMDOF2030iIO542y2IUlJoLcRjFf8B1K2fpSZTNbZlOQaqaM20mNfVu4hdgsYRABU8lpwnUTTcAdCxOdSAtzqoFrGKRg0hZyEQecfSi7WdXR9ZKU6F0lTjoeR2GIbsN2s0mFPMK/hRNzxdchI9wLAw08PNd1wvWcO0nWTKG+kC/yslnFQCPxXxFhOaA+nJWsTIW/h7xR5moGCrAuyBv+bHQyWGNQhILAUFBsofo0+jV2CCCCVuHFxLKrHgJHH1egYnCM4ZginVbpECxGLLgHzumn9jpvZI1K6vxkpMfHaPhwg0sjFcqp6qCg64Q8MECwAvWgWV1T5ehXP44MwujyaSCObhiUAeVG5jpvKDpZi84n0DDlGrIgpkIZQzKMQF3fU18xzXzSSeydBnFVPVW90GZajv2BdHufV/HVPsodrbvGkAhVSpBh6GMIS998IOGEgfioLOIiXbRHIP9yFVL3KQiXES2bxp7Gx/wWk7ugtUBcAD2+1D1UOi3wvVeT4jrWxIPIOr0uL/LEPTX5tSxxXZcnmp8iwN730dD30I2tyVBJzkgT7ZTVABoXD/VLlVNjUITSghkI0ThhDVMJqqL9yaDziqbF+VL5hePrDlAKOn00H31uXxAuQxT6Wpiw0TKEoa9VigMMdF1D31OjmjSDAVerekQLA+BcqUKGA1q1moJrMunepvONpsX5cvnp84ijiVkKOl44fngLhPc1cC4cSgF5RvONIvxsDHHLxQujUhx9v4Ggy4awR6vVDoMiVCnowkVRjYCigDZBXnpbLu9S58KolLYcqr1POO9S16OIximXrlxe+ny5dGFA5jpUgo5TqcMNFftMqHIYqPIjHW+GfDTpBsq72nhDwZtGqBgjEUT/D3Z76suUsGf2AAAAAElFTkSuQmCC;" vertex="1" parent="SwHwOmNfwHO3F5PcCJjN-114">
          <mxGeometry x="-15" y="-15.589999999999975" width="43.54" height="35.59" as="geometry" />
        </mxCell>
        <mxCell id="SwHwOmNfwHO3F5PcCJjN-258" value="CHANGE ORDER STATUS TO PAID" style="rounded=0;whiteSpace=wrap;html=1;" vertex="1" parent="SwHwOmNfwHO3F5PcCJjN-114">
          <mxGeometry x="154" y="110" width="120" height="60" as="geometry" />
        </mxCell>
        <mxCell id="SwHwOmNfwHO3F5PcCJjN-120" value="&lt;font style=&quot;font-size: 24px;&quot;&gt;GENERAL FLOW:&lt;/font&gt;" style="text;html=1;align=center;verticalAlign=middle;whiteSpace=wrap;rounded=0;" vertex="1" parent="1">
          <mxGeometry x="40" y="40" width="240" height="30" as="geometry" />
        </mxCell>
        <mxCell id="SwHwOmNfwHO3F5PcCJjN-143" value="" style="ellipse;whiteSpace=wrap;html=1;aspect=fixed;" vertex="1" parent="1">
          <mxGeometry x="1550" y="430" width="40" height="40" as="geometry" />
        </mxCell>
        <mxCell id="SwHwOmNfwHO3F5PcCJjN-144" value="" style="ellipse;whiteSpace=wrap;html=1;aspect=fixed;" vertex="1" parent="1">
          <mxGeometry x="820" y="170" width="30" height="30" as="geometry" />
        </mxCell>
        <mxCell id="SwHwOmNfwHO3F5PcCJjN-145" value="" style="endArrow=classic;html=1;rounded=0;entryX=0;entryY=0.5;entryDx=0;entryDy=0;" edge="1" parent="1" target="SwHwOmNfwHO3F5PcCJjN-147">
          <mxGeometry width="50" height="50" relative="1" as="geometry">
            <mxPoint x="850" y="184.67000000000002" as="sourcePoint" />
            <mxPoint x="920" y="184.67000000000002" as="targetPoint" />
          </mxGeometry>
        </mxCell>
        <mxCell id="SwHwOmNfwHO3F5PcCJjN-146" value="" style="endArrow=classic;html=1;rounded=0;" edge="1" parent="1" source="SwHwOmNfwHO3F5PcCJjN-147">
          <mxGeometry width="50" height="50" relative="1" as="geometry">
            <mxPoint x="959.5999999999999" y="200" as="sourcePoint" />
            <mxPoint x="955" y="250" as="targetPoint" />
          </mxGeometry>
        </mxCell>
        <mxCell id="SwHwOmNfwHO3F5PcCJjN-147" value="" style="rhombus;whiteSpace=wrap;html=1;" vertex="1" parent="1">
          <mxGeometry x="930" y="162.5" width="50" height="45" as="geometry" />
        </mxCell>
        <mxCell id="SwHwOmNfwHO3F5PcCJjN-148" value="" style="endArrow=classic;html=1;rounded=0;" edge="1" parent="1">
          <mxGeometry width="50" height="50" relative="1" as="geometry">
            <mxPoint x="980" y="184.62" as="sourcePoint" />
            <mxPoint x="1090" y="185" as="targetPoint" />
          </mxGeometry>
        </mxCell>
        <mxCell id="SwHwOmNfwHO3F5PcCJjN-149" value="New account user" style="text;html=1;align=center;verticalAlign=middle;whiteSpace=wrap;rounded=0;" vertex="1" parent="1">
          <mxGeometry x="970" y="160" width="110" height="30" as="geometry" />
        </mxCell>
        <mxCell id="SwHwOmNfwHO3F5PcCJjN-150" value="&lt;font size=&quot;1&quot;&gt;User sends a registration request&lt;/font&gt;" style="rounded=0;whiteSpace=wrap;html=1;" vertex="1" parent="1">
          <mxGeometry x="1090" y="167.5" width="80" height="35" as="geometry" />
        </mxCell>
        <mxCell id="SwHwOmNfwHO3F5PcCJjN-151" value="" style="endArrow=classic;html=1;rounded=0;" edge="1" parent="1">
          <mxGeometry width="50" height="50" relative="1" as="geometry">
            <mxPoint x="1170" y="190" as="sourcePoint" />
            <mxPoint x="1220" y="190" as="targetPoint" />
          </mxGeometry>
        </mxCell>
        <mxCell id="SwHwOmNfwHO3F5PcCJjN-152" value="&lt;font style=&quot;font-size: 9px;&quot;&gt;The data is validated as follows: email,password,phone&lt;/font&gt;" style="rounded=0;whiteSpace=wrap;html=1;" vertex="1" parent="1">
          <mxGeometry x="1220" y="170" width="80" height="35" as="geometry" />
        </mxCell>
        <mxCell id="SwHwOmNfwHO3F5PcCJjN-153" value="" style="endArrow=classic;html=1;rounded=0;" edge="1" parent="1">
          <mxGeometry width="50" height="50" relative="1" as="geometry">
            <mxPoint x="1300" y="190" as="sourcePoint" />
            <mxPoint x="1360" y="190" as="targetPoint" />
          </mxGeometry>
        </mxCell>
        <mxCell id="SwHwOmNfwHO3F5PcCJjN-154" value="" style="rhombus;whiteSpace=wrap;html=1;" vertex="1" parent="1">
          <mxGeometry x="1360" y="167.5" width="50" height="45" as="geometry" />
        </mxCell>
        <mxCell id="SwHwOmNfwHO3F5PcCJjN-155" value="" style="endArrow=classic;html=1;rounded=0;" edge="1" parent="1">
          <mxGeometry width="50" height="50" relative="1" as="geometry">
            <mxPoint x="1410" y="190" as="sourcePoint" />
            <mxPoint x="1500" y="190" as="targetPoint" />
          </mxGeometry>
        </mxCell>
        <mxCell id="SwHwOmNfwHO3F5PcCJjN-156" value="The credentials are incorrect" style="text;html=1;align=center;verticalAlign=middle;whiteSpace=wrap;rounded=0;" vertex="1" parent="1">
          <mxGeometry x="1397" y="150" width="103" height="30" as="geometry" />
        </mxCell>
        <mxCell id="SwHwOmNfwHO3F5PcCJjN-157" value="Send error message." style="rounded=0;whiteSpace=wrap;html=1;" vertex="1" parent="1">
          <mxGeometry x="1510" y="172.5" width="80" height="35" as="geometry" />
        </mxCell>
        <mxCell id="SwHwOmNfwHO3F5PcCJjN-158" value="" style="endArrow=classic;html=1;rounded=0;" edge="1" parent="1">
          <mxGeometry width="50" height="50" relative="1" as="geometry">
            <mxPoint x="1565" y="207.5" as="sourcePoint" />
            <mxPoint x="1570" y="430" as="targetPoint" />
          </mxGeometry>
        </mxCell>
        <mxCell id="SwHwOmNfwHO3F5PcCJjN-159" value="" style="ellipse;whiteSpace=wrap;html=1;aspect=fixed;" vertex="1" parent="1">
          <mxGeometry x="1555" y="435" width="30" height="30" as="geometry" />
        </mxCell>
        <mxCell id="SwHwOmNfwHO3F5PcCJjN-160" value="" style="endArrow=classic;html=1;rounded=0;" edge="1" parent="1">
          <mxGeometry width="50" height="50" relative="1" as="geometry">
            <mxPoint x="1384.71" y="212.5" as="sourcePoint" />
            <mxPoint x="1385" y="290" as="targetPoint" />
          </mxGeometry>
        </mxCell>
        <mxCell id="SwHwOmNfwHO3F5PcCJjN-161" value="The credentials are correct." style="text;html=1;align=center;verticalAlign=middle;whiteSpace=wrap;rounded=0;rotation=-90;" vertex="1" parent="1">
          <mxGeometry x="1323.5" y="228.5" width="70" height="30" as="geometry" />
        </mxCell>
        <mxCell id="SwHwOmNfwHO3F5PcCJjN-162" value="Create user in the database" style="rounded=0;whiteSpace=wrap;html=1;" vertex="1" parent="1">
          <mxGeometry x="1345" y="290" width="80" height="35" as="geometry" />
        </mxCell>
        <mxCell id="SwHwOmNfwHO3F5PcCJjN-163" value="" style="endArrow=classic;html=1;rounded=0;" edge="1" parent="1">
          <mxGeometry width="50" height="50" relative="1" as="geometry">
            <mxPoint x="1384.52" y="325" as="sourcePoint" />
            <mxPoint x="1384.52" y="360" as="targetPoint" />
          </mxGeometry>
        </mxCell>
        <mxCell id="SwHwOmNfwHO3F5PcCJjN-164" value="Send confirmation message (frontend)." style="rounded=0;whiteSpace=wrap;html=1;" vertex="1" parent="1">
          <mxGeometry x="1345" y="360" width="80" height="35" as="geometry" />
        </mxCell>
        <mxCell id="SwHwOmNfwHO3F5PcCJjN-165" value="User sends login request." style="rounded=0;whiteSpace=wrap;html=1;" vertex="1" parent="1">
          <mxGeometry x="915" y="255" width="80" height="35" as="geometry" />
        </mxCell>
        <mxCell id="SwHwOmNfwHO3F5PcCJjN-166" value="" style="rhombus;whiteSpace=wrap;html=1;" vertex="1" parent="1">
          <mxGeometry x="1060" y="250" width="50" height="50" as="geometry" />
        </mxCell>
        <mxCell id="SwHwOmNfwHO3F5PcCJjN-167" value="" style="endArrow=classic;html=1;rounded=0;entryX=0;entryY=0.5;entryDx=0;entryDy=0;" edge="1" parent="1" target="SwHwOmNfwHO3F5PcCJjN-166">
          <mxGeometry width="50" height="50" relative="1" as="geometry">
            <mxPoint x="995" y="275" as="sourcePoint" />
            <mxPoint x="1045" y="225" as="targetPoint" />
          </mxGeometry>
        </mxCell>
        <mxCell id="SwHwOmNfwHO3F5PcCJjN-168" value="" style="endArrow=classic;html=1;rounded=0;" edge="1" parent="1">
          <mxGeometry width="50" height="50" relative="1" as="geometry">
            <mxPoint x="1110" y="275" as="sourcePoint" />
            <mxPoint x="1170" y="275" as="targetPoint" />
          </mxGeometry>
        </mxCell>
        <mxCell id="SwHwOmNfwHO3F5PcCJjN-169" style="edgeStyle=orthogonalEdgeStyle;rounded=0;orthogonalLoop=1;jettySize=auto;html=1;" edge="1" parent="1" source="SwHwOmNfwHO3F5PcCJjN-170" target="SwHwOmNfwHO3F5PcCJjN-175">
          <mxGeometry relative="1" as="geometry" />
        </mxCell>
        <mxCell id="SwHwOmNfwHO3F5PcCJjN-170" value="Send authentication error." style="rounded=0;whiteSpace=wrap;html=1;" vertex="1" parent="1">
          <mxGeometry x="1170" y="257.5" width="80" height="35" as="geometry" />
        </mxCell>
        <mxCell id="SwHwOmNfwHO3F5PcCJjN-171" value="Incorrect credentials." style="text;html=1;align=center;verticalAlign=middle;whiteSpace=wrap;rounded=0;" vertex="1" parent="1">
          <mxGeometry x="1100" y="240" width="60" height="30" as="geometry" />
        </mxCell>
        <mxCell id="SwHwOmNfwHO3F5PcCJjN-172" value="" style="endArrow=classic;html=1;rounded=0;" edge="1" parent="1">
          <mxGeometry width="50" height="50" relative="1" as="geometry">
            <mxPoint x="1084.6" y="300" as="sourcePoint" />
            <mxPoint x="1085" y="350" as="targetPoint" />
          </mxGeometry>
        </mxCell>
        <mxCell id="SwHwOmNfwHO3F5PcCJjN-173" value="Correct credentials." style="text;html=1;align=center;verticalAlign=middle;whiteSpace=wrap;rounded=0;rotation=-90;" vertex="1" parent="1">
          <mxGeometry x="1020" y="295" width="60" height="25" as="geometry" />
        </mxCell>
        <mxCell id="SwHwOmNfwHO3F5PcCJjN-174" value="Generate token for the session." style="rounded=0;whiteSpace=wrap;html=1;" vertex="1" parent="1">
          <mxGeometry x="1045" y="350" width="80" height="35" as="geometry" />
        </mxCell>
        <mxCell id="SwHwOmNfwHO3F5PcCJjN-175" value="" style="rhombus;whiteSpace=wrap;html=1;" vertex="1" parent="1">
          <mxGeometry x="1185" y="420" width="50" height="50" as="geometry" />
        </mxCell>
        <mxCell id="SwHwOmNfwHO3F5PcCJjN-179" value="" style="endArrow=classic;html=1;rounded=0;entryX=0.428;entryY=0.044;entryDx=0;entryDy=0;entryPerimeter=0;" edge="1" parent="1" target="SwHwOmNfwHO3F5PcCJjN-180">
          <mxGeometry width="50" height="50" relative="1" as="geometry">
            <mxPoint x="1080" y="385" as="sourcePoint" />
            <mxPoint x="1080" y="410" as="targetPoint" />
          </mxGeometry>
        </mxCell>
        <mxCell id="SwHwOmNfwHO3F5PcCJjN-180" value="Verify the user&#39;s role." style="rounded=0;whiteSpace=wrap;html=1;" vertex="1" parent="1">
          <mxGeometry x="1045" y="430" width="80" height="35" as="geometry" />
        </mxCell>
        <mxCell id="SwHwOmNfwHO3F5PcCJjN-181" value="&lt;span style=&quot;font-size: 24px;&quot;&gt;USER FLOW:&lt;/span&gt;" style="text;html=1;align=center;verticalAlign=middle;whiteSpace=wrap;rounded=0;" vertex="1" parent="1">
          <mxGeometry x="800" y="100" width="240" height="30" as="geometry" />
        </mxCell>
        <mxCell id="SwHwOmNfwHO3F5PcCJjN-182" style="edgeStyle=orthogonalEdgeStyle;rounded=0;orthogonalLoop=1;jettySize=auto;html=1;entryX=0;entryY=0.375;entryDx=0;entryDy=0;entryPerimeter=0;" edge="1" parent="1" source="SwHwOmNfwHO3F5PcCJjN-175" target="SwHwOmNfwHO3F5PcCJjN-143">
          <mxGeometry relative="1" as="geometry" />
        </mxCell>
        <mxCell id="SwHwOmNfwHO3F5PcCJjN-183" value="Login user" style="text;html=1;align=center;verticalAlign=middle;whiteSpace=wrap;rounded=0;" vertex="1" parent="1">
          <mxGeometry x="955" y="207.5" width="40" height="30" as="geometry" />
        </mxCell>
        <mxCell id="SwHwOmNfwHO3F5PcCJjN-185" value="&lt;span style=&quot;font-size: 24px;&quot;&gt;ORDER FLOW:&lt;/span&gt;" style="text;html=1;align=center;verticalAlign=middle;whiteSpace=wrap;rounded=0;" vertex="1" parent="1">
          <mxGeometry x="850" y="620" width="240" height="30" as="geometry" />
        </mxCell>
        <mxCell id="SwHwOmNfwHO3F5PcCJjN-200" value="" style="ellipse;whiteSpace=wrap;html=1;aspect=fixed;" vertex="1" parent="1">
          <mxGeometry x="900" y="675" width="30" height="30" as="geometry" />
        </mxCell>
        <mxCell id="SwHwOmNfwHO3F5PcCJjN-201" value="" style="endArrow=classic;html=1;rounded=0;entryX=0;entryY=0.5;entryDx=0;entryDy=0;" edge="1" parent="1">
          <mxGeometry width="50" height="50" relative="1" as="geometry">
            <mxPoint x="930" y="690" as="sourcePoint" />
            <mxPoint x="1010" y="690.3299999999999" as="targetPoint" />
          </mxGeometry>
        </mxCell>
        <mxCell id="SwHwOmNfwHO3F5PcCJjN-202" value="&lt;font size=&quot;1&quot;&gt;User choices a option&lt;/font&gt;" style="rounded=0;whiteSpace=wrap;html=1;" vertex="1" parent="1">
          <mxGeometry x="1010" y="670" width="80" height="35" as="geometry" />
        </mxCell>
        <mxCell id="SwHwOmNfwHO3F5PcCJjN-204" value="" style="endArrow=classic;html=1;rounded=0;entryX=0;entryY=0.5;entryDx=0;entryDy=0;" edge="1" parent="1">
          <mxGeometry width="50" height="50" relative="1" as="geometry">
            <mxPoint x="1090" y="687.12" as="sourcePoint" />
            <mxPoint x="1155" y="687.12" as="targetPoint" />
          </mxGeometry>
        </mxCell>
        <mxCell id="SwHwOmNfwHO3F5PcCJjN-205" value="" style="rhombus;whiteSpace=wrap;html=1;" vertex="1" parent="1">
          <mxGeometry x="1155" y="662.5" width="50" height="50" as="geometry" />
        </mxCell>
        <mxCell id="SwHwOmNfwHO3F5PcCJjN-206" value="" style="endArrow=classic;html=1;rounded=0;" edge="1" parent="1">
          <mxGeometry width="50" height="50" relative="1" as="geometry">
            <mxPoint x="1205" y="687.1" as="sourcePoint" />
            <mxPoint x="1280" y="687.1" as="targetPoint" />
          </mxGeometry>
        </mxCell>
        <mxCell id="SwHwOmNfwHO3F5PcCJjN-207" value="Validation of products and stock" style="rounded=0;whiteSpace=wrap;html=1;" vertex="1" parent="1">
          <mxGeometry x="1280" y="670" width="80" height="35" as="geometry" />
        </mxCell>
        <mxCell id="SwHwOmNfwHO3F5PcCJjN-208" value="Create order" style="text;html=1;align=center;verticalAlign=middle;whiteSpace=wrap;rounded=0;" vertex="1" parent="1">
          <mxGeometry x="1205" y="650" width="60" height="30" as="geometry" />
        </mxCell>
        <mxCell id="SwHwOmNfwHO3F5PcCJjN-209" value="" style="endArrow=classic;html=1;rounded=0;" edge="1" parent="1">
          <mxGeometry width="50" height="50" relative="1" as="geometry">
            <mxPoint x="1360" y="690" as="sourcePoint" />
            <mxPoint x="1420" y="690" as="targetPoint" />
          </mxGeometry>
        </mxCell>
        <mxCell id="SwHwOmNfwHO3F5PcCJjN-210" value="" style="rhombus;whiteSpace=wrap;html=1;" vertex="1" parent="1">
          <mxGeometry x="1420" y="665" width="50" height="50" as="geometry" />
        </mxCell>
        <mxCell id="SwHwOmNfwHO3F5PcCJjN-212" value="" style="endArrow=classic;html=1;rounded=0;" edge="1" parent="1">
          <mxGeometry width="50" height="50" relative="1" as="geometry">
            <mxPoint x="1444.6" y="715" as="sourcePoint" />
            <mxPoint x="1444.6" y="770" as="targetPoint" />
          </mxGeometry>
        </mxCell>
        <mxCell id="SwHwOmNfwHO3F5PcCJjN-213" value="" style="endArrow=classic;html=1;rounded=0;" edge="1" parent="1">
          <mxGeometry width="50" height="50" relative="1" as="geometry">
            <mxPoint x="1470" y="690" as="sourcePoint" />
            <mxPoint x="1530" y="690" as="targetPoint" />
          </mxGeometry>
        </mxCell>
        <mxCell id="SwHwOmNfwHO3F5PcCJjN-214" value="Stock available" style="text;strokeColor=none;fillColor=none;align=left;verticalAlign=middle;spacingLeft=4;spacingRight=4;overflow=hidden;points=[[0,0.5],[1,0.5]];portConstraint=eastwest;rotatable=0;whiteSpace=wrap;html=1;" vertex="1" parent="1">
          <mxGeometry x="1450" y="720" width="80" height="30" as="geometry" />
        </mxCell>
        <mxCell id="SwHwOmNfwHO3F5PcCJjN-215" value="Stock not available" style="text;strokeColor=none;fillColor=none;align=left;verticalAlign=middle;spacingLeft=4;spacingRight=4;overflow=hidden;points=[[0,0.5],[1,0.5]];portConstraint=eastwest;rotatable=0;whiteSpace=wrap;html=1;" vertex="1" parent="1">
          <mxGeometry x="1470" y="650" width="80" height="30" as="geometry" />
        </mxCell>
        <mxCell id="SwHwOmNfwHO3F5PcCJjN-276" style="edgeStyle=orthogonalEdgeStyle;rounded=0;orthogonalLoop=1;jettySize=auto;html=1;exitX=0.5;exitY=1;exitDx=0;exitDy=0;entryX=0.5;entryY=0;entryDx=0;entryDy=0;" edge="1" parent="1" source="SwHwOmNfwHO3F5PcCJjN-216" target="SwHwOmNfwHO3F5PcCJjN-274">
          <mxGeometry relative="1" as="geometry" />
        </mxCell>
        <mxCell id="SwHwOmNfwHO3F5PcCJjN-216" value="Send error message: NO STOCK" style="rounded=0;whiteSpace=wrap;html=1;" vertex="1" parent="1">
          <mxGeometry x="1530" y="670" width="80" height="40" as="geometry" />
        </mxCell>
        <mxCell id="SwHwOmNfwHO3F5PcCJjN-217" value="Create record with status PENDING" style="rounded=0;whiteSpace=wrap;html=1;" vertex="1" parent="1">
          <mxGeometry x="1405" y="850" width="80" height="40" as="geometry" />
        </mxCell>
        <mxCell id="SwHwOmNfwHO3F5PcCJjN-218" value="" style="endArrow=classic;html=1;rounded=0;" edge="1" parent="1">
          <mxGeometry width="50" height="50" relative="1" as="geometry">
            <mxPoint x="1444.67" y="890" as="sourcePoint" />
            <mxPoint x="1444.67" y="945" as="targetPoint" />
          </mxGeometry>
        </mxCell>
        <mxCell id="SwHwOmNfwHO3F5PcCJjN-219" value="Add it to the database" style="rounded=0;whiteSpace=wrap;html=1;" vertex="1" parent="1">
          <mxGeometry x="1405" y="950" width="80" height="40" as="geometry" />
        </mxCell>
        <mxCell id="SwHwOmNfwHO3F5PcCJjN-220" value="" style="endArrow=classic;html=1;rounded=0;" edge="1" parent="1">
          <mxGeometry width="50" height="50" relative="1" as="geometry">
            <mxPoint x="1444.67" y="990" as="sourcePoint" />
            <mxPoint x="1444.67" y="1030" as="targetPoint" />
          </mxGeometry>
        </mxCell>
        <mxCell id="SwHwOmNfwHO3F5PcCJjN-273" style="edgeStyle=orthogonalEdgeStyle;rounded=0;orthogonalLoop=1;jettySize=auto;html=1;exitX=1;exitY=0.5;exitDx=0;exitDy=0;" edge="1" parent="1" source="SwHwOmNfwHO3F5PcCJjN-221">
          <mxGeometry relative="1" as="geometry">
            <mxPoint x="1550" y="1049.939393939394" as="targetPoint" />
          </mxGeometry>
        </mxCell>
        <mxCell id="SwHwOmNfwHO3F5PcCJjN-221" value="Order confirmation via email" style="rounded=0;whiteSpace=wrap;html=1;" vertex="1" parent="1">
          <mxGeometry x="1405" y="1030" width="80" height="40" as="geometry" />
        </mxCell>
        <mxCell id="SwHwOmNfwHO3F5PcCJjN-226" value="" style="shape=stencil(7VrLchw3DPyavaJIguDj7Dj/4SrLkSqK5JKV198HzBZnF+BMT3zKxbeVlr0kHmw0MHPhD98eP319uKTw7f3t9deHP58+vz9e+KdLSk8vjw9vT+/66cIfL/zhy+vbwy9vr7+/fL7+/fXTWDk+/fb6x/iFv644Jg4DlMLf138ECv3ff/x8Xf789HK3vFJpZnmk2I6Xx0SNzfpEXMH6Tsmuz5Ti8Xr9utvjC7VyvJ7VOvv7lXIG6zOVaNbrAdHvN4rZ+ifME+4CsvqvWECiDDyUC4kDyPyJfUCn3i2gUgM+FU0JF7NAFThJineShgXZIJ2KtSE14nQMKImSDTNHyiBNS6ZqbbhFch9Qia0NGsoAjC6LDRpKZEONVK0NOWMAU04WsB1yHyBUbPJJosgAUKjZ26yhRNezaubYXCqBGHipNipiAWo0yFYFtGoBGgfAMArodoeaSJBbFWB3UKtQLtVOwaZGi9SRWztlG+kmlHHgHOu1ThUZHSnZSLcGdyh6Ras/UkIXSLO1eKNR8kmbheDOrYi6NdXEurVmaIMo17sdIolAIgvWhtJgtZI4fbIBBJaHwa1LeguwQQHZ2lCYGt4hdg9A92EALGsM8sQAl0sFc6sCxF3Rk/oQ5onvABEURQVU61atGIIDJ8kDEriissmQO0AAvKS55K7oAKAjZQrLDoyMztQWGwqIg2huindrQnHQ7HcAmXLusE5bo/UCdVSnIwVrg5IxIgHNTXck5UJEM5r94gScUiVWAk4vNZ6O3gcIiWPvOiv3Ebe6I/U42fZIa3R3pAYjXcOsBhsgTx7ZB+SpUjeA3jhU2Mu88nfsHVFh71MdbQCeFWMXMMqHAwR4p9VET8YVag0NU7SBGyoQ1Actst1WIE1HJBL73hXNYIcuk9z/I830MpXFBmhTvu8Dqlf3g/nQkZo3WgGoHehKvYvmg15ai2KcFeMQUHwcBBm98hLPW35otCtZKkNB8ikgLICObKie+ZRHYBxkMuk9ACdfX9IbSQcFhEWcRORWnl3bnVsZVFEFpEVrnABca1lw06SAumgNRjbkHSVQkJfEKzIFRBS4pQGXdpYaZVEzqC3T5CuL1ji5D7y2ZcitfemyIpQOMaiGc9mXcH53X7M0mU4APpnymZvyeiFAof5+gB7AFQhtFcGRtKJkV+Rw16Q1K7i6y5Dv28ICWqhRqJuWNOvWFmBvqV+z0w4ZNhB1qbujGUXaQb1uL8SJYKrRV8Ve4ZSydD9VGyUDyUqZneRtbrdl/D4iLJPBAhWTsoRrwTuenUr1oR7ZghrkJZka45aj+LFa7bBSa4/iWj+NZQHZN9omt0OElVo7ueLuaIMDox8t+ExHJHV/tOAT8D+34OxJYLgVGV1n5tzlEuKlm/y/V66IyKKnvnIyS8w+vbXJ7yD5tEF2btV2EzHfKJprkw9sGJNvN97ksx08t8pUmkcAx0tnQ+DoRZzWSUE2RC8TxyD7ZAeXGg3q+9WG0TYho8N8mHZ/H0Cka/AVSG8IEhtlU8IbIME7rblUbS5lPKgYEs+mRs7wio4ZgI1DjrOROlIC0e7AFZNx9Y+OOOOyu3WGGyDiUXnyBSXhZ35aUBwZJ1zYc/FknOJ09D4gLk9GGxxJsfhHeFGg/OElcJGhNE5tEX3KhSA1EnvANrnY75qqf2KBhbFu7x7gVfwMkpIrJnA6u3BehhO7rTO/LUd0FGaC3ZYjMgozgbeUhs8QgucJhsOSpVtNcAgQ/PAmQSUSvCCMkNmDHygH2OIF3+wEqBCUCYpbjugt+aFQgOSWfI3BXdF3vk1yulw/3F5c+fL0/Hx97+X+e/+ii/7r+pIMf/wH);lineShape=1;strokeColor=default;" vertex="1" parent="1">
          <mxGeometry x="770.4620866885025" y="297.8781667946955" width="59.14615798132945" height="63.74319810228244" as="geometry" />
        </mxCell>
        <mxCell id="SwHwOmNfwHO3F5PcCJjN-228" style="edgeStyle=orthogonalEdgeStyle;rounded=0;orthogonalLoop=1;jettySize=auto;html=1;exitX=0.5;exitY=1;exitDx=0;exitDy=0;entryX=0.5;entryY=0;entryDx=0;entryDy=0;" edge="1" parent="1" source="SwHwOmNfwHO3F5PcCJjN-227" target="SwHwOmNfwHO3F5PcCJjN-217">
          <mxGeometry relative="1" as="geometry" />
        </mxCell>
        <mxCell id="SwHwOmNfwHO3F5PcCJjN-227" value="Calculate the total" style="rounded=0;whiteSpace=wrap;html=1;" vertex="1" parent="1">
          <mxGeometry x="1405" y="770" width="80" height="40" as="geometry" />
        </mxCell>
        <mxCell id="SwHwOmNfwHO3F5PcCJjN-229" value="" style="endArrow=classic;html=1;rounded=0;" edge="1" parent="1">
          <mxGeometry width="50" height="50" relative="1" as="geometry">
            <mxPoint x="1190" y="705" as="sourcePoint" />
            <mxPoint x="1220" y="760" as="targetPoint" />
          </mxGeometry>
        </mxCell>
        <mxCell id="SwHwOmNfwHO3F5PcCJjN-230" value="Product ID validation" style="rounded=0;whiteSpace=wrap;html=1;" vertex="1" parent="1">
          <mxGeometry x="1185" y="760" width="80" height="35" as="geometry" />
        </mxCell>
        <mxCell id="SwHwOmNfwHO3F5PcCJjN-231" value="Update order" style="text;html=1;align=center;verticalAlign=middle;whiteSpace=wrap;rounded=0;" vertex="1" parent="1">
          <mxGeometry x="1205" y="710" width="60" height="30" as="geometry" />
        </mxCell>
        <mxCell id="SwHwOmNfwHO3F5PcCJjN-232" value="" style="endArrow=classic;html=1;rounded=0;" edge="1" parent="1">
          <mxGeometry width="50" height="50" relative="1" as="geometry">
            <mxPoint x="1230" y="795" as="sourcePoint" />
            <mxPoint x="1230" y="830" as="targetPoint" />
          </mxGeometry>
        </mxCell>
        <mxCell id="SwHwOmNfwHO3F5PcCJjN-242" style="edgeStyle=orthogonalEdgeStyle;rounded=0;orthogonalLoop=1;jettySize=auto;html=1;exitX=1;exitY=0.5;exitDx=0;exitDy=0;" edge="1" parent="1" source="SwHwOmNfwHO3F5PcCJjN-233">
          <mxGeometry relative="1" as="geometry">
            <mxPoint x="1290" y="855" as="targetPoint" />
          </mxGeometry>
        </mxCell>
        <mxCell id="SwHwOmNfwHO3F5PcCJjN-233" value="" style="rhombus;whiteSpace=wrap;html=1;" vertex="1" parent="1">
          <mxGeometry x="1205" y="830" width="50" height="50" as="geometry" />
        </mxCell>
        <mxCell id="SwHwOmNfwHO3F5PcCJjN-237" value="" style="endArrow=classic;html=1;rounded=0;" edge="1" parent="1">
          <mxGeometry width="50" height="50" relative="1" as="geometry">
            <mxPoint x="1205" y="854.75" as="sourcePoint" />
            <mxPoint x="1170" y="854.75" as="targetPoint" />
          </mxGeometry>
        </mxCell>
        <mxCell id="SwHwOmNfwHO3F5PcCJjN-238" value="Exists" style="text;html=1;align=center;verticalAlign=middle;whiteSpace=wrap;rounded=0;" vertex="1" parent="1">
          <mxGeometry x="1160" y="820" width="60" height="30" as="geometry" />
        </mxCell>
        <mxCell id="SwHwOmNfwHO3F5PcCJjN-239" value="CREATOR: LUIS PIQUIN REY" style="text;html=1;align=center;verticalAlign=middle;whiteSpace=wrap;rounded=0;" vertex="1" parent="1">
          <mxGeometry x="10" y="1060" width="210" height="100" as="geometry" />
        </mxCell>
        <mxCell id="SwHwOmNfwHO3F5PcCJjN-290" style="edgeStyle=orthogonalEdgeStyle;rounded=0;orthogonalLoop=1;jettySize=auto;html=1;exitX=0.5;exitY=1;exitDx=0;exitDy=0;" edge="1" parent="1" source="SwHwOmNfwHO3F5PcCJjN-240">
          <mxGeometry relative="1" as="geometry">
            <mxPoint x="1129.8333333333335" y="1100" as="targetPoint" />
          </mxGeometry>
        </mxCell>
        <mxCell id="SwHwOmNfwHO3F5PcCJjN-240" value="Update products and total" style="rounded=0;whiteSpace=wrap;html=1;" vertex="1" parent="1">
          <mxGeometry x="1090" y="837.5" width="80" height="35" as="geometry" />
        </mxCell>
        <mxCell id="SwHwOmNfwHO3F5PcCJjN-243" value="Doesnt exists" style="text;html=1;align=center;verticalAlign=middle;whiteSpace=wrap;rounded=0;" vertex="1" parent="1">
          <mxGeometry x="1240" y="820" width="60" height="30" as="geometry" />
        </mxCell>
        <mxCell id="SwHwOmNfwHO3F5PcCJjN-288" style="edgeStyle=orthogonalEdgeStyle;rounded=0;orthogonalLoop=1;jettySize=auto;html=1;" edge="1" parent="1" source="SwHwOmNfwHO3F5PcCJjN-244">
          <mxGeometry relative="1" as="geometry">
            <mxPoint x="1335" y="1080" as="targetPoint" />
          </mxGeometry>
        </mxCell>
        <mxCell id="SwHwOmNfwHO3F5PcCJjN-244" value="Send error message" style="rounded=0;whiteSpace=wrap;html=1;" vertex="1" parent="1">
          <mxGeometry x="1295" y="837.5" width="80" height="35" as="geometry" />
        </mxCell>
        <mxCell id="SwHwOmNfwHO3F5PcCJjN-245" value="" style="endArrow=classic;html=1;rounded=0;" edge="1" parent="1">
          <mxGeometry width="50" height="50" relative="1" as="geometry">
            <mxPoint x="1165" y="700" as="sourcePoint" />
            <mxPoint x="1000" y="760" as="targetPoint" />
          </mxGeometry>
        </mxCell>
        <mxCell id="SwHwOmNfwHO3F5PcCJjN-249" style="edgeStyle=orthogonalEdgeStyle;rounded=0;orthogonalLoop=1;jettySize=auto;html=1;exitX=0.5;exitY=1;exitDx=0;exitDy=0;" edge="1" parent="1" source="SwHwOmNfwHO3F5PcCJjN-246">
          <mxGeometry relative="1" as="geometry">
            <mxPoint x="959.8888888888889" y="810" as="targetPoint" />
          </mxGeometry>
        </mxCell>
        <mxCell id="SwHwOmNfwHO3F5PcCJjN-246" value="Update products and total" style="rounded=0;whiteSpace=wrap;html=1;" vertex="1" parent="1">
          <mxGeometry x="920" y="740" width="80" height="35" as="geometry" />
        </mxCell>
        <mxCell id="SwHwOmNfwHO3F5PcCJjN-247" value="Change status" style="text;html=1;align=center;verticalAlign=middle;whiteSpace=wrap;rounded=0;" vertex="1" parent="1">
          <mxGeometry x="1000" y="715" width="60" height="30" as="geometry" />
        </mxCell>
        <mxCell id="SwHwOmNfwHO3F5PcCJjN-253" style="edgeStyle=orthogonalEdgeStyle;rounded=0;orthogonalLoop=1;jettySize=auto;html=1;exitX=0.5;exitY=1;exitDx=0;exitDy=0;" edge="1" parent="1" source="SwHwOmNfwHO3F5PcCJjN-251">
          <mxGeometry relative="1" as="geometry">
            <mxPoint x="960.1025641025642" y="890" as="targetPoint" />
          </mxGeometry>
        </mxCell>
        <mxCell id="SwHwOmNfwHO3F5PcCJjN-251" value="Validate current status" style="rounded=0;whiteSpace=wrap;html=1;" vertex="1" parent="1">
          <mxGeometry x="920" y="810" width="80" height="35" as="geometry" />
        </mxCell>
        <mxCell id="SwHwOmNfwHO3F5PcCJjN-255" style="edgeStyle=orthogonalEdgeStyle;rounded=0;orthogonalLoop=1;jettySize=auto;html=1;exitX=1;exitY=0.5;exitDx=0;exitDy=0;" edge="1" parent="1" source="SwHwOmNfwHO3F5PcCJjN-254">
          <mxGeometry relative="1" as="geometry">
            <mxPoint x="1040" y="915.1666666666667" as="targetPoint" />
          </mxGeometry>
        </mxCell>
        <mxCell id="SwHwOmNfwHO3F5PcCJjN-263" style="edgeStyle=orthogonalEdgeStyle;rounded=0;orthogonalLoop=1;jettySize=auto;html=1;exitX=0.5;exitY=1;exitDx=0;exitDy=0;" edge="1" parent="1" source="SwHwOmNfwHO3F5PcCJjN-254">
          <mxGeometry relative="1" as="geometry">
            <mxPoint x="959.909090909091" y="1000" as="targetPoint" />
          </mxGeometry>
        </mxCell>
        <mxCell id="SwHwOmNfwHO3F5PcCJjN-254" value="" style="rhombus;whiteSpace=wrap;html=1;" vertex="1" parent="1">
          <mxGeometry x="935" y="890" width="50" height="50" as="geometry" />
        </mxCell>
        <mxCell id="SwHwOmNfwHO3F5PcCJjN-261" style="edgeStyle=orthogonalEdgeStyle;rounded=0;orthogonalLoop=1;jettySize=auto;html=1;exitX=0.5;exitY=1;exitDx=0;exitDy=0;" edge="1" parent="1" source="SwHwOmNfwHO3F5PcCJjN-256">
          <mxGeometry relative="1" as="geometry">
            <mxPoint x="1095.0606060606062" y="960" as="targetPoint" />
          </mxGeometry>
        </mxCell>
        <mxCell id="SwHwOmNfwHO3F5PcCJjN-256" value="Update status to PAID/CANCELLED" style="rounded=0;whiteSpace=wrap;html=1;" vertex="1" parent="1">
          <mxGeometry x="1040" y="897.5" width="110" height="35" as="geometry" />
        </mxCell>
        <mxCell id="SwHwOmNfwHO3F5PcCJjN-257" value="Change allowed" style="text;html=1;align=center;verticalAlign=middle;whiteSpace=wrap;rounded=0;" vertex="1" parent="1">
          <mxGeometry x="975" y="880" width="60" height="30" as="geometry" />
        </mxCell>
        <mxCell id="SwHwOmNfwHO3F5PcCJjN-284" style="edgeStyle=orthogonalEdgeStyle;rounded=0;orthogonalLoop=1;jettySize=auto;html=1;entryX=0.5;entryY=0;entryDx=0;entryDy=0;" edge="1" parent="1" source="SwHwOmNfwHO3F5PcCJjN-262" target="SwHwOmNfwHO3F5PcCJjN-283">
          <mxGeometry relative="1" as="geometry">
            <mxPoint x="1095" y="1060" as="targetPoint" />
          </mxGeometry>
        </mxCell>
        <mxCell id="SwHwOmNfwHO3F5PcCJjN-262" value="Confirm CHANGE" style="rounded=0;whiteSpace=wrap;html=1;" vertex="1" parent="1">
          <mxGeometry x="1055" y="965" width="80" height="35" as="geometry" />
        </mxCell>
        <mxCell id="SwHwOmNfwHO3F5PcCJjN-264" value="Changes not allowed" style="text;html=1;align=center;verticalAlign=middle;whiteSpace=wrap;rounded=0;" vertex="1" parent="1">
          <mxGeometry x="900" y="950" width="60" height="30" as="geometry" />
        </mxCell>
        <mxCell id="SwHwOmNfwHO3F5PcCJjN-278" style="edgeStyle=orthogonalEdgeStyle;rounded=0;orthogonalLoop=1;jettySize=auto;html=1;exitX=0.5;exitY=1;exitDx=0;exitDy=0;" edge="1" parent="1" source="SwHwOmNfwHO3F5PcCJjN-265">
          <mxGeometry relative="1" as="geometry">
            <mxPoint x="960.0425531914893" y="1080" as="targetPoint" />
          </mxGeometry>
        </mxCell>
        <mxCell id="SwHwOmNfwHO3F5PcCJjN-265" value="Send error message." style="rounded=0;whiteSpace=wrap;html=1;" vertex="1" parent="1">
          <mxGeometry x="920" y="1000" width="80" height="35" as="geometry" />
        </mxCell>
        <mxCell id="SwHwOmNfwHO3F5PcCJjN-266" value="" style="endArrow=classic;html=1;rounded=0;" edge="1" parent="1">
          <mxGeometry width="50" height="50" relative="1" as="geometry">
            <mxPoint x="1180" y="662.5" as="sourcePoint" />
            <mxPoint x="1180" y="590" as="targetPoint" />
          </mxGeometry>
        </mxCell>
        <mxCell id="SwHwOmNfwHO3F5PcCJjN-267" value="Query orders." style="text;html=1;align=center;verticalAlign=middle;whiteSpace=wrap;rounded=0;" vertex="1" parent="1">
          <mxGeometry x="1110" y="610" width="60" height="30" as="geometry" />
        </mxCell>
        <mxCell id="SwHwOmNfwHO3F5PcCJjN-270" style="edgeStyle=orthogonalEdgeStyle;rounded=0;orthogonalLoop=1;jettySize=auto;html=1;exitX=1;exitY=0.5;exitDx=0;exitDy=0;" edge="1" parent="1" source="SwHwOmNfwHO3F5PcCJjN-268">
          <mxGeometry relative="1" as="geometry">
            <mxPoint x="1319.9999999999998" y="567.5151515151515" as="targetPoint" />
          </mxGeometry>
        </mxCell>
        <mxCell id="SwHwOmNfwHO3F5PcCJjN-268" value="Apply filters by user/status." style="rounded=0;whiteSpace=wrap;html=1;" vertex="1" parent="1">
          <mxGeometry x="1140" y="550" width="80" height="35" as="geometry" />
        </mxCell>
        <mxCell id="SwHwOmNfwHO3F5PcCJjN-291" style="edgeStyle=orthogonalEdgeStyle;rounded=0;orthogonalLoop=1;jettySize=auto;html=1;exitX=0.5;exitY=1;exitDx=0;exitDy=0;" edge="1" parent="1" source="SwHwOmNfwHO3F5PcCJjN-271">
          <mxGeometry relative="1" as="geometry">
            <mxPoint x="1359" y="1090" as="targetPoint" />
          </mxGeometry>
        </mxCell>
        <mxCell id="SwHwOmNfwHO3F5PcCJjN-271" value="Return list of orders" style="rounded=0;whiteSpace=wrap;html=1;" vertex="1" parent="1">
          <mxGeometry x="1318.5" y="550" width="80" height="35" as="geometry" />
        </mxCell>
        <mxCell id="SwHwOmNfwHO3F5PcCJjN-274" value="" style="ellipse;whiteSpace=wrap;html=1;aspect=fixed;" vertex="1" parent="1">
          <mxGeometry x="1550" y="1029" width="40" height="40" as="geometry" />
        </mxCell>
        <mxCell id="SwHwOmNfwHO3F5PcCJjN-275" value="" style="ellipse;whiteSpace=wrap;html=1;aspect=fixed;" vertex="1" parent="1">
          <mxGeometry x="1555" y="1034" width="30" height="30" as="geometry" />
        </mxCell>
        <mxCell id="SwHwOmNfwHO3F5PcCJjN-280" style="edgeStyle=orthogonalEdgeStyle;rounded=0;orthogonalLoop=1;jettySize=auto;html=1;exitX=1;exitY=0.5;exitDx=0;exitDy=0;entryX=0;entryY=0.5;entryDx=0;entryDy=0;" edge="1" parent="1" source="SwHwOmNfwHO3F5PcCJjN-279" target="SwHwOmNfwHO3F5PcCJjN-283">
          <mxGeometry relative="1" as="geometry">
            <mxPoint x="1090" y="1095.191489361702" as="targetPoint" />
          </mxGeometry>
        </mxCell>
        <mxCell id="SwHwOmNfwHO3F5PcCJjN-279" value="" style="rhombus;whiteSpace=wrap;html=1;" vertex="1" parent="1">
          <mxGeometry x="945" y="1080" width="30" height="30" as="geometry" />
        </mxCell>
        <mxCell id="SwHwOmNfwHO3F5PcCJjN-285" style="edgeStyle=orthogonalEdgeStyle;rounded=0;orthogonalLoop=1;jettySize=auto;html=1;exitX=1;exitY=0.5;exitDx=0;exitDy=0;" edge="1" parent="1" source="SwHwOmNfwHO3F5PcCJjN-283">
          <mxGeometry relative="1" as="geometry">
            <mxPoint x="1560" y="1095" as="targetPoint" />
          </mxGeometry>
        </mxCell>
        <mxCell id="SwHwOmNfwHO3F5PcCJjN-283" value="" style="rhombus;whiteSpace=wrap;html=1;" vertex="1" parent="1">
          <mxGeometry x="1080" y="1080" width="30" height="30" as="geometry" />
        </mxCell>
        <mxCell id="SwHwOmNfwHO3F5PcCJjN-287" style="edgeStyle=orthogonalEdgeStyle;rounded=0;orthogonalLoop=1;jettySize=auto;html=1;exitX=0.5;exitY=0;exitDx=0;exitDy=0;" edge="1" parent="1" source="SwHwOmNfwHO3F5PcCJjN-286">
          <mxGeometry relative="1" as="geometry">
            <mxPoint x="1569.8571428571427" y="1070" as="targetPoint" />
          </mxGeometry>
        </mxCell>
        <mxCell id="SwHwOmNfwHO3F5PcCJjN-286" value="" style="rhombus;whiteSpace=wrap;html=1;" vertex="1" parent="1">
          <mxGeometry x="1555" y="1080" width="30" height="30" as="geometry" />
        </mxCell>
        <mxCell id="SwHwOmNfwHO3F5PcCJjN-289" value="" style="rhombus;whiteSpace=wrap;html=1;" vertex="1" parent="1">
          <mxGeometry x="1320" y="1080" width="30" height="30" as="geometry" />
        </mxCell>
        <mxCell id="SwHwOmNfwHO3F5PcCJjN-292" value="&lt;span style=&quot;font-size: 24px;&quot;&gt;PAYMENT FLOW:&lt;/span&gt;" style="text;html=1;align=center;verticalAlign=middle;whiteSpace=wrap;rounded=0;" vertex="1" parent="1">
          <mxGeometry x="56" y="675" width="240" height="30" as="geometry" />
        </mxCell>
        <mxCell id="SwHwOmNfwHO3F5PcCJjN-295" style="edgeStyle=orthogonalEdgeStyle;rounded=0;orthogonalLoop=1;jettySize=auto;html=1;exitX=1;exitY=0.5;exitDx=0;exitDy=0;" edge="1" parent="1" source="SwHwOmNfwHO3F5PcCJjN-294">
          <mxGeometry relative="1" as="geometry">
            <mxPoint x="170" y="730" as="targetPoint" />
          </mxGeometry>
        </mxCell>
        <mxCell id="SwHwOmNfwHO3F5PcCJjN-294" value="" style="ellipse;whiteSpace=wrap;html=1;aspect=fixed;" vertex="1" parent="1">
          <mxGeometry x="80" y="715" width="30" height="30" as="geometry" />
        </mxCell>
        <mxCell id="SwHwOmNfwHO3F5PcCJjN-296" value="" style="shape=stencil(7VvJct1GDPwaXadmn8HZcf7DVZZjVRzLJdtZ/j6YqMBHNshWfPNBN/sJIGfB0miAd+XN14/vvtzf5fj129Pj7/d/Pbz/9vGu/HKX88Pnj/dPD9/0X3fl7V158+Hx6f63p8fvn98////LuyW5/vXH45/rCX8/640YsiytHP95/qWH0v/74ddn+U8Pn3fyfYbcUX4S+RZaBfmWiHwOPYN8j0Q+2p93zyfradOWu5MvRL4FSbhfsp5WQjmepz5AiHwKOYN8a9fyVUIeIB8rkR+hHddTwyDnX/XPDeSZPdRsr9/Jj2v5IiHheipZT+khTpBv5DyLPi6C/GTPz2F0OM/M5GOYKD+J/eQZBtoz2+/NPUx+hEj2q9uD8xl8PQnvd9oPp/JpBjnuV6g9p27LNfmUqEMmdZjjAekvjXhYUo8/7jg1ixmnChMjRBphsJASBJ4voZMra7gePWN2xWqhR4/JxZ5wbnKhHW9gmRBZfzYH3+SFhjj14GNEKdyFM95w4eejEb0cPbKaz13stx/X3yIPcWEe71djcCX7VQuF52uIJs8fLkLPkMh+J0agJvT5gufTk+WQcwdIloE2hRyEOIA6FObsSpOqOhQEld7DZG/o5rKbwhbnzxVGqEejGylE9oZpYW1TKNSLcwzj6GajcTfQQ4Q3DB6qmwW2TUHCJBetlpEg9iZ6cUXP5LikyU1bsxlkp1nNu88VmmX3TUF/IfmgDDOETaHThFwjJrQ5bJHnCmqtx2OdEgqLpxvC2lJUpAGpTsz5ku2gr0BaOe5BitnvFQoEn5ZKrVVDUD1uWvQXckoag/rRlkTj2g8B5aXAkL7mkekUyE0r1E9OIRF/6MOg1l6BFQdiMWJ3SkIUhnMgVejk4jSo5IYKibioBhVxN81MY0xLBjtbEmJ8GiMg8qkCzT8a3MEfsiWAc4WGCWUpkJueW43y/98wEyoUhtk6lhWqwPxBFfDiMkVVqlAzKgi5uLkVirt7YHFpdswPwoHeUjgmRbUl5qLTFQvL+PixQvUrlcL/daxgGo3m6emDsRZUzLwbFiTCM5CmQMiiMkLhDgSAVdQH2RsUOsBNSxjMH6LZ5k6BQT5VgFCZYqThW6GFRPcKYhvDwUpVYJWwKlT3Bla5qQKG742cuFKASmNdBF9SjKjAasNTBZazlgLc3KA+Ohx/sayP7wFdrtMKegjWP6pAfTRbhtopZHJKs7k0WizXX0UB9NEUOrPvGcoxfOsvNMmJeeQOhzKkqwsAXkvdnOXdlTSPpqHwntmSOCZJwQGt4xrGSoUfiVycuKy4EBF7Qz8p5FgkW5Zz9LjFr7I3jJBAQeMSe4PWSMeLa4NWHOsNoFAtdV/tAfiSFqm1LogHFKBWr0yhosfVTK1VHEVRxI7hXCFb/tgUOk3Uat4Q7ks12uJcISJrpbVgYnuICI2zUFpJXRQcKOuxsqyo5S4QV9XM8VxhoHkv7ohFvjPqjULjgok6CeWipqNLE+dLV54+HmvShMLy9MAy60amXFUcUCqmSu9h1TSwpEJ7NiMaEN5xuCwpLrLnmFBStARwruD4IqFBo2914Y21nqzYdZF18q5Ww67TeOn5wMkOA3SXz3ddML6e2UCeoe51PtgVol2zjuvnmLs7TrzRAlHzGHKgFsSv5F0XhoX4PhHBdIo8VR7Tmh3wpfwxXg9zusv1AI1mDOrVfp19MhKtO7qUVzAqj7CWMzEd7VMo66HyEFI4kFd7hnSm+2XP31ia2/kzzLz8EeUZhd4dROg0Dag84ihKb+v5RAA51ga8kgcyolHqedHxgIle8sfs/J35yw/KrymCBufP0MpwPaTJM1LF9Wzl8Ll8x+rg1jS5YuWwqbi1rS5JhaMHa1JljXWt0uDKEm+DzYqTBKlx+mhgklTo0XiVBsh6dVmYgiAFliMvJ6KllR2iY5tW3FvgDc1Q5BWyBst7IXUrdgeKoERLDlcKgIYUWbNkoOXEBIVG2VEtWMBay6RDCFoSYUs1UWStRRfEr9oooyXTjYEIbWCIGMrdIkahIW9HeO0qRwaK1itcbUrLNMECpBeKlGXiRXTeI1lkEeSdSBO/DKTANBSySC9unkLxf+bWB6WmxjbWu10sNmCXTJlF9VFsAQ7uQdFxZommz0UfgUKlbNDsjrvsnMyvrgCZ1jW5Ct+eTqXh+5VENoVXEvnnJ5GHuLYkb94u1tn5KKv5X7uMpvDaZTw51p+ty+hGoNYgAO/CwGDuciAeZlBh0DcMf6yDjg+N4gYBJoWJI1n7YReM2U0v4m+gAisITkY+hC5pDZW4Nww23ZfdTYtNgp0rRKMi9ntgI9uubFo5js3qdDfcI9RaW0WEtVIWmzfKLrEPSgC26KJG50NW0zXRK0Un1U2WrbhE9lCzi0uZkkRFsKJe1SNZUhluGijS/FCqm13jo2haGUIgm5zYWLUn9D0HtdbsO6ud3sON2doU+LjrjUraFCofKXefbGgsZKeUI07UKpRl9H+absidzxAmx5+PSgnl5FqAGgvZtOgaUoferdAPW1JGSlBjIZtSTK4+vnUFzjMQemgvFGp0LFB6pjDXwbHGi4eK6WrV98x5sJzRMMjm+hN+mbP6wuR8Is6J10bHJKLh342VEQqs3H2VQo00YrzTG2R4OKHFrcl3sp5shM0mn2iaqpj817cf7FMqHLBOg1b1A/OseimLvuKeX+h9qYdV6HNGyhLr+zN2VViGSq4r1CkU0fOOyNKzrop6AOAE3vNfnx5Bz592v/38eaaldnG8TaIRq2Rk6SN1AE2v0DaOdAKhuP1GCpj9t2acHqnuSxhO5tWKvf5IJ1kWhop4PgxCeQ+g1F9LCOoSpcKb/7KIw9LuRkZol81/a8mJcz+innnX2AGPzKsV9y1q5t+ium9d+fCU/5Y289GPiHRzpi0klYfGQrYfrso58K/CZ9kTfopXKBsyEnalCwUoC1Lht6Is4Z3Js3jr19MoL+3322iC9OfZ+OCNu6/OC3xnD7wm+9Fvt1+W13/cPhT/8PDp0/N35vu/44fl+tPzR+nl7b8=);lineShape=1;strokeColor=light-dark(transparent,#FF0E0E);" vertex="1" parent="1">
          <mxGeometry x="1319.1701922091092" y="337.47483974960596" width="117.89643812003844" height="80.26859796869824" as="geometry" />
        </mxCell>
        <mxCell id="SwHwOmNfwHO3F5PcCJjN-298" value="" style="shape=stencil(7VrLbhw3EPyavRJ8P86O8x8GLEdCFMmQlcT++xSz4HhY3Kmxbwmgm7xmDclmV3d1k5fw7sv9h893F2+/vL48/37398PH1/tL+OXi/cPT/d3Lwyv+uoT3l/Du0/PL3W8vz38+fbz++/OHPrL/9cfzX/0LX684b0LqIG+/XX+wJrp/f/j1Ovzx4Wk3PBkfp+HBxHI8vJkapuHZ+HQ83CXT6jS+GWePx/fV22m8cyaKCXw1dt6uC8aLGYI3pc2AaFITgGxqmQHZWAGI1mRaUjFVASIbFWdmswA0E2arwm5JHXIc39sA0bQoANXkedO+jDlvAjLcZjYrTjp5AcDBzZsOTp5D8cbOmw7bnLcByWQ3A5KxwkqlmEaArGdog1oboBonvLVa02b3js4EYaXqjJ9niME4cXAA1Nn5Yh4B4TbAmzq7BrwriwhQA1M0Oel8NXJEgjsWNUMyiWYopghO12zy7HzZGadmKMPqGyCYqvYA15j5kLewcBuwECg3ybgKTs+BGA6vCAQAnXRBIAsidFvj5yWVPH45AhCni3ZvAIhxYEjTM5CV4L9FRD4AynxwcMeTTRPj4F2Kcc0Nfm2AYrwGkFlxMlYBLB9cN4MIM33TBHAyAwGQPAOiNqurDCgi3GOLvCQ/4vkRwGcGOLEHEKhEBiipAQCFyg5QBEJQWQDKrN0RMlupCrMiLpHzAZBU1EAgCwzwKi5lpmj3rhNAYUBUsTWaTHyoktM9P8yu0XelMxAdHD7RFGBlnBsq9ijtkiJDIFMHh7BVKZBluSR8j+IS1Icyaw+9FFvDULK3AdH4maIFkUqpGc8njQyklAC+RwcHjabiEgA2MiCIIFCWyJeRVwVFO8AyIIq41AGVAdKsWyTdJXblrQCQ5gMgqJNGjIgMkDLUsxLIyVRlJT/Kix2gKEAYNdUeoA4OhFxmqIJx8NZYl01r9+Y9aN0KflHKgvMpJdDLgTm24mSS2kPm0rhzUAPISqgosjqHwtobgUyVxz1szXuoUfOhcbXbpa8K9+AD6aUmOV23NL5LKE2XA5yBgiyPkT4cAU4SShkr3iX2pNWMdcumTxQZZaAsXaOLHTo4cFAD2uIaVgHCqJ53OU5qbyR2SihJViiwOjURQCB10i1zpVh0MwcAzqJONkJaWUqaLWMcAUiRAaBKy1ZHjNgD1B6acZ4BTe2hLQfnJEUBqAugiINz1jKpkTKku7bFTF4mCAAyAYKswLuZAgNUudsPIjFALmnp5nSAInVZFFYYFPlRdwWp1R5AiGVJktSgXOFzUJGsAwIDrAb4haNZeV82aYkCTs1Qlj1sIu0IwIHJjkrtyDUo3p8D2kJq1c2Bt5JgKrrB1NYCQnc3O+OI1H7Y7RCQGKBqy58H1FE+74qgqsM3iW/ID5WoAXAkNpwUri2N/tNO/3hl1sDiG+JAtR2Qd0neI9ef9YuoKXDakeJeSx6B57AzSDNUeUfTm5UzH3YZ4Khm5zZCk7covc3seRNJASwXlzCT4ihcxy8iTnW+IXfs0tkIaoa8iOki9Qz0Ed0E1SQ5inohz1bq/q1mWHon2JXyDVCYGIQ5ZaPCLQAvXeOtK3AFvHUF/iddAcpZAKiSoywt2qzvOEBI4jS8S2k4RL5CWdGPgH7YD12k8UnHNRFgu3Y/LMGXWtGrJSXmdI/naoZFuPZ7RgVYKjnMqTI7smJa+tIntyhv1y7+7drlNuA/d+2S+cK53/dqxtFLG9hN6VAAyJf6vbsKZPmWmtGNO74OrjrybY+JdoFMXaVixXwHHqQiA4DUerH6lj2ye3etoYMxeWuOWhmj4qAnVbqtBqtzyrKyxq+Wi9Gki6DeNZ6dLwXpfN9bjRvAypMGgJRArKOv8IPqPmYtpQu/CYlBpqyydI2jHS2nI+lASwpVS+k4KL8Bsr4fsMuDJP2CKS9v1UIY7cjbAM+1ZXCSQKksT8/0VWryLH98lp1vOML6Vk1tOi7yx+teS9ia+1t93GSehtXpnsYVqYxhRArGTtf4vnAbzkV5KYItetpDkNfB+F6hPejOd+UnUkX2vQNflkVZMFmOkk4ywXLV6uSjVsv3ObpFubTH7WigHA3PNFzpSMtHa2UCsRwkrPSc5WmDHY31g+HU+dTFi+OErPtIjnvDVqZvx7Sy+nEwXxnYUSgdDP+ph9Cnw/HH9zfXnx4eH69Ptvf/z2+08dP1fXd4/w8=);lineShape=1;strokeColor=light-dark(transparent,#FF0E0E);" vertex="1" parent="1">
          <mxGeometry x="1414.86" y="414.1" width="75.14" height="65.9" as="geometry" />
        </mxCell>
        <mxCell id="SwHwOmNfwHO3F5PcCJjN-299" value="" style="shape=stencil(lZrZclw3DES/Rq8s7suz4/yHqyzHqjiWS3a2vw8YFUdzm3PPlN8cBbhDAkSjG+RDevf984dvjw/Rf//x8vz7499PH398fki/PMT49PXz48vTD/vXQ3r/kN59en55/O3l+c+vH1//+9uHaTn/9cfzX/ML/7z6jeqin17R//v6lxDcyP//5ddXhy9PX68dkmtZHWoHh+DKUIfUzh36cCUdHbxr5NBcC+rgyaG4cHQYLiawjy7Vg313vZ7bt+F8EvtQwL45f4xpcxlC2mz9R/vqBtlHN5LY5wH23qV4sC9uwPqrLbeJfQ1gn50vYh/p+7aefrDPbkB+S10//2bfID5li092FWogD9f1+xXOQ7b8Vl0Pfd/+dxR7Om85uqzrp/hk72KX+FO9pLYg4c0+QL2k4tJQe8hviq7regKt58b5zP7cPt5Yf4N4zuOr9UXriUnxwQ4grSc4H8S+Q70Eg5sjSDeMf6iuNLEvEezzgps3vEr0fcPD43oGIrrBseCD/YV6RlvH/WKfXIcNXODpYt+xiRWNf4wuUoGt8rjYV5fg+0nr0U4sNZikTTglN+BAJO0vqbtKB1Tjk5Mr/P3jenJfLfZs/YL/9n3Ir3EIwYe2EOkk/kXqxa8vnORX4l8TngerF6nftk7I2fk81ksdCChWHsf1W0em82AFFo4bsJZPCbD6aMcMG6cosKJgEHeEUCMtFNJgez5iorEiDw7RK43rlkboAhNFxaEu3LvtYNz1GNbeXYY0G6yN46aNa3aqy7BWfAE67zp1so3ZGP3N1MqqRmkw/05DsWLYYSHssu9tDgh2WdHXHBJs2ujNGOpAfKhs/W9cEO22wyY6zCERo6uKGOYwCDG2Eh0ZOXK1qA91QIwp2gRHwaNR+2raVw6E8i240H/mF1raDp/lnhzKDYcAJWoopGFNSDWndBKH4BppswuTuCrRBImbYu6YB0ONAXsw2BJ1ZoKzkENRMDYgIz5l38viULCmDbZEwPaEUGkxaUcQmOhNDmk1qKuGQhx1loto2ISbtrPpj4lrTJLMQQYJtSIrNAeBe6MBBY7GqFpAb8rzzEGFVEGonA5HbC0eYWY6iLQzELjzC8LdPILA3PQxrCbfIk2AqtaDsVvC1glbxz1Y5yb9aw7xuCRTTIkPnwg8k0CYh7wphrLIxNmSgkiYjBpsntZNw9wJa5BJXFwc7cxBpgRTl9EvtBWTK4dMe9h0szlQfxjGv6JuutIv9AXuV2HFTfdNGhbsD/MXJHH17h5kXmnIR8e7K+cz9dkIW5vK7TD48NVFOq8cSHBPEIjqQBOMWaJV90AjvFmiSaNEQ9pZcV3z0CjTWdHbMk2ichRV6W9zjTOHLHNjlsWzoYhDRNFkeShbTRM5saMRtopLpCybco2JGrTprlrdNo2o0Ve/uQpr5AISpWiJwz3cdCD0Hnq8TWx22sNQORALw8xYJX/V46gDBe91ZnKvjQ4tiHuNemxTnIIyazocd21ko/CS+rGojc4UXpJSsjuNeihhqvkefEsiTBYh9PUbs5Y7FVRluFoYyapOr1pf9wen4Cps3cg3Q1+Q+6aM0xzT2yogGtN7vzmMxX1vK46uI2X7BN2R9As3vxZy5JC0BZkGoVuPHvS0WqDp8JlUFIY1KuK95dWLxm+sj+vK68Who0QxjSTQZxWSySGogHiDqrMpguiyK6g6G1TodH8gulrNj6YOhcY5Q+/DzIFmiWUTZhZXUnJz/ixxNS5LIym/Db0aTivzNgM2B7rEnGO1bUk0CslBWd90oKn6UEU9+F44bTRxYhtEKe01elGPtx38NhosC3nORrQ63swI33PWv00radPzqmcb0ZLID1vPMqyMNCqvNwbZtKSwoYDhPbHv+UZDlhQXl70NffoDrfMLAKWhhmykdovOyQ3YIsDYNlKrjGJRW26tnIJ133+xjziyC3qhVjoqY698sljLhv16nR7kjvvdyGROmF+vfSfxTYjXxpY4X14v1CJL3KD3V5ZxunOIOs+0oiN2kbSGA/P57QLxjqxq+oChYfiH3v8X5NlWvjJG5yl6SNqcEvLHULf52arn2/Z9CetLePjizSspD/i+YC5X7fG9RtH3PmHhxW37plMkz9fVXumEx/Xs71M8v0/Z3r947pLbnM3jPGh/v+NRke/vgzxqqP39kcdByv6+yeP7l/39lNkTm4t7fCi/8/2Xrp/YYvV7voiEz/drW/yJUTetL2bgze/rp3qfNy0az0T22/smjmdrKz1v9Ujn05SZkLjI9lkVR8Sr1Cluj/CfeAznNV/8Hs0IYdf3jDgRSHrFXpENGGmWK8iK+RpVr78rdvepE4QuYX7HjXaH6296odN4ENWUvnWeIG7vv/g519jepgye7m39IjCATi24OdA7kKkFZcoa+Da0blctATFxji66OtA19s+/9L7vYP94e1j+6enLl9d36df/Xx+i259eH7Gn9/8B);lineShape=1;strokeColor=light-dark(transparent,#FF0E0E);" vertex="1" parent="1">
          <mxGeometry x="1392.0456218183076" y="1022.7219887607034" width="98.83943708783461" height="55.278674932672274" as="geometry" />
        </mxCell>
        <mxCell id="SwHwOmNfwHO3F5PcCJjN-301" value="" style="shape=stencil(nVvZkhU3DP2aeXVZltdnkvwHVQxhKoShgGx/HzlT7rk+un0a8nYZpG4vWo6O1A/65uuHt58fH1L8+u3L82+Pfz29+/bhQX96SOnp04fHL0/f7NeD/vygb94/f3n89cvzH5/evfz789spOX/9/vznfMLfL3rSwkhTK8V/Xv4yRmj9v7/88qLw8enTrqBlV+ihDqJQg4BCC7kQhRxq3RVKGJkoaIigkINWoiCh6a6QQmdviKHIriBB9VxhBM2bfB9hxHP5HmTs8j3kdi5vl9B2+RYilY/7LfeyjuCufA0dnp/Xjs7k9/PpKTRyxzU02K+sEzhZv+zPb2al5DzbOu1Dvgclzx+h9F3ebJQ83yxo7CbXKr0wM+qxn2groTAvaKHvR9RyaHKukGJQ2IOGQTw5pVAVFZhRp4x+1hKNFcn8dqCCkFOafgBLkuV59xWGO9YYOlmSphALKiSyJNWQ9yXVsYz3vkJeln+jIORY1R1r7aEwBcVoZAqS6KYhyNcWKj+l2lFBiP+bQtlvutZQ+ZJSRQUhHqcSOuyBO5AppIYKkWQFjaHBknLI7KYjRo2q3PjMRQUVEjul6Ewj0TBj/pDhDZbryBvM4xJYa1wudV/BQr2iQmIuWvANZfA9WNja31A6j3yW/3fjK41mW4t8LaOCsDeYP4BCDcrfAC5ayjKWMwXdb7rk5bRnCmmgQmLROy1TOxSUOtBUgE2n5YNnCnH3uCI8Pwiad4krjtxPigPBZx5005ZF434Pua27P8vTDRTqyqv3FRJGjczDjLi4lJViJXFRI6eVk07AJPhPlgXBz8DkvgMdy8fvyhc8IjWwysLegmqHvHkbM4uFEQ55wxHEOwXBs2XUStYfV/lxyFuOJzYREZS8Jq8T+Qj7FQrOIxrERDUsK6DX2I2z/TZMU/PGyfOtnpLd8V+B3JlbokKmNaFtAXJCUo7zjnB7KKRVAp0lQsAXZiYsUkx8sVv1vEd2C3lFz6UglqYYknRFm0UnivMGVmHCs052oEoKxRc54z1Y/EvsDRVTrRlLIr5j4bbsWUf4xeUDHBwKQlGY5ZgKb4ihkjdY2uu7tQ6K2izVZ6AXqDsbvEm7rXZ6pgbpIKk1eqQGY4EfqRSAWfkRIY8HIeHLarS8x4tMn2+FbIL4SGtnK60r+DKFqFbqo2fS9NEFaxGhKd8qdyjYDMcwbsTVnImmP6siVEF+sPTaVzb6vvMsis/nVYi5ZAU8QbkR83nMf3z9goSfrgu/L98QXCutl62iweRBYan5y0B7o/c1ED8lDp8K4g+hUN/sOaF8JPbZLTXu6zeQzOQbItJI2YFR0Z4PAHOCRx3AibQ+G31VAa8bZql4NIQTsnZ0X744cLAi6n15R+lwhxyyeLQbhyQXPCKuJ9OA0nsoUELQKsjkIwB8irbMIMAhMy3LenVFE60HekY63eTJ+ZtBZ1wPfX5yBRBfvyAJkilZ3ONa7neef8SCJlN76BEdjLcnbP0Vz5PVG3Y+LqAzMt3Ov+P6GbnXy2LmvlO+uiqdsr5mnznhfrm/JJRn9YzJQ4LJvH42eWcPzJ4dh3Z0sE73i/bACAA7T2fPLOHN+8LnX/hjd/LsftPC1zfyzL/Ey7Pm0/SXgefJ5ZGzWUXHqb+jfzGA9cPyCe9LL88fCBjah5n3C+U2BbhmPw5wX/gjACBZCep+vnPdAt6DMX9pCIASk88eP7D4bwALCrZEKTwrACLiAVowCK5HaeuiNmxd6DKQ+/K68N2N/TAAfdSvN3iD3FfxlCXlIXJHXpfjjUk3YnxmgDU7Glhp/LGCJGNBwiiF4qhy3u23AgzOk+NJKzAAX8nq3Z4W2CifWUHesIAXSihM/BNBngH67vYrlCCweDLQf9l8hvffxPFPQkIhrQB55u/AACmN/+bvHfEAi7fN4dVCW8Ytor9U+vzqCIjG7U1xv30B5PvyEfP7oASK2T/UL4MOEhSLn2A/kRZsRXF6QizDcA+Grr3wFkiJmPJE6RlZjIOYOJlQxqK4S5PCydmM8xnCO0sWFgEWyMHcnPHFeEqdAg+tWFhNqoA14XUxdTesOjPt2VMHribRWGemD7Y92SPW1lRk1S/Qrh0iVv+V8k1+1scWyfpFDcv5xPvXGcvPNCgfkbGfc9Ffynhps39FTqggHJr9MRJPi4NDmRJ+FbvvWlaAup8PsKsx+4dkPRZ9IN9rpxfmb1j5jI8o9n4m5mEtSjf+NXu4jGQ7Rh4PBaVGNM3a96HZGxxKzpWGyIlqYNN8iui1LD8UeOJ5bWQciTbyEQW36TlxwNqCDY/1aqahoWlcTU201as+FC7mMhqG+avJj7a2eChczJY0dNCr6ZWOBGBpq+93pgAx1RRYEPZzSoX3sC2RQBPIqh4G+udEmptTYi5qQQvGXerFKGFBGq0K5X0s3UIjonIUY3EOiBODfsyB1IXKyqkHddRz5dyYBUZxCmw2wBQqTAYW2s/NEdk9w8eR7MEUgC6ds4cs30bkqysf/zIFiBq10QyXHQNdO9+DOFviMzV3FAZN6uqKpNnnYgoNqwara1gWNX8AWrwJn6BQ5O3ahQMdkwCHQqLM75zDdxPLdDLQgcPGez0TvMHUdaYQOrkZjcbZVhkIcFuhpySOHrGCl1VXBk5wur5RkC5uQqB1ymgZwIIgMOf3uQIUSxcfCIjjPC6+QJgK/hMHXgZg1V3o3MJElf4jDXbTCX26X+BWdW8YFElLweg9v2NhING1HkaiXKTBUOB2B2/OTBgKnwcV7qKC37LM74n48C4EgfnFEh9Ahn7X/CaKFa3+A6RjZuVsScjI8Iub88QZFdhM5KT43R5YuH/l+G8VWOSLjsSJfHBgfqGSf0jDjANK17moi0nE4hSYR3SEWIMX36aQOiowtldct34qMK/+H5/kXSnYj9cvAN8/ffz48gHh7f/jF4P2p5evDfXnfwE=);lineShape=1;strokeColor=light-dark(transparent,#FF0E0E);" vertex="1" parent="1">
          <mxGeometry x="1385.466380615313" y="589.405879897475" width="38.995075673491165" height="436.69359618490347" as="geometry" />
        </mxCell>
        <mxCell id="SwHwOmNfwHO3F5PcCJjN-303" value="Important point: In the presence of multiple microservices that use confirmation emails, IT WILL BE NECESSARY TO CREATE ANOTHER MICROSERVICE where we will manage the emails. It’s simple with RabbitMQ. The GATEWAY comes into play again—we will extract the token from the header and from it retrieve the email, etc., in order to send the message." style="rounded=1;whiteSpace=wrap;html=1;fillColor=light-dark(#FFFFFF,#FF0C00);" vertex="1" parent="1">
          <mxGeometry x="1434" y="480.96" width="220" height="159.04" as="geometry" />
        </mxCell>
        <mxCell id="SwHwOmNfwHO3F5PcCJjN-305" value="" style="shape=image;verticalLabelPosition=bottom;labelBackgroundColor=default;verticalAlign=top;aspect=fixed;imageAspect=0;image=data:image/png,iVBORw0KGgoAAAANSUhEUgAAAwIAAAFxCAYAAADAlR/+AAAAAXNSR0IArs4c6QAAAARnQU1BAACxjwv8YQUAAAAJcEhZcwAADsMAAA7DAcdvqGQAAJ6FSURBVHhe7Z0FeBRXF4YPHtzdpUhxl+LubsVpcW2hUChQKJRSaHEoXgrFXYsV+XH34hSX4O6QP9/JDGxDCJtkkqx8b555dvfOzO5m7+6d+91jYby8EUIIIYQQQohbEda4JYQQQgghhLgRFAKEEEIIIYS4IRQChBBCCCGEuCEUAoQQQgghhLghFAKEEEIIIYS4IRQChBBCCCGEuCEUAoQQQgghhLghFAKEEEIIIYS4IRQChBBCCCGEuCEUAoQQQgghhLghFAKEEEIIIYS4IRQChBBCCCGEuCEUAoQQQgghhLghFAKEEEIIIYS4IRQChBBCCCGEuCEUAoQQQgghhLghFAKEEEIIIYS4IRQChBBCCCGEuCEUAoQQQgghhLghFAKEEEIIIYS4IRQChBBCCCGEuCEUAoQQQgghhLghYby8Me4TQvwhTJgwxj1CCCEBgVMNQhwTCgFC7ARCgD8XQggJGBw7CXFc6BpECCGEEEKIG0IhQAghhBBCiBtCIUAIIYQQQogbQiFACCGEEEKIG0IhQAghhBBCiBtCIUAIIYQQQogbQiFACCGEEEKIG0IhQAghhBBCiBtCIUAIIYQQQogbQiFACCGEEEKIG0IhQAghhBBCiBsSxssb4z4hxB/ChAkjAf65bJkosuAbkWcPjQZvCjQRqTdCJEpso8Hg3hWRP1uJHP3LaPAmegKRhuNEctY0GgghxLkI1NhJCAkRaBEgJDiZ0fq/IgDsnC5yZKXxwIYd0/4rAsDDGyKzOxgPCCGEEEKsg0KAkOAkTBjjji/CRTDu2BA2vHHHF34dSwghhBASRCgECCGEEEIIcUMoBAgJFT5gKSCEEEIICSEoBAghhBBCCHFDKAQICQ0+FDtACCGEEBJCUAgQQgghhBDihlAIEBIa0CJACCGEkFCGQoAQQgghhBA3hEKAkFCBFgFCCCGEhC4UAoSEBi+eGHdsePHYuOOLl8+MO4QQQggh1hHGyxvjPiHEH8KECSMB/rm08dbafp0TNY5Ijuo+VYOx/9lDkYNLvCf9T40DfJGusEjCDMYDfwgXXqRgU5E0BY0GQggJXQI1dhJCQgQKAULsxFIhEJyEjyQyllYEQohjQCFAiONC1yBCXI3XL4w7hBBCCCEfhhYBQuzEaSwC3u9Txr8xHhBCSOhCi4BjcPHiRVmzZo3s27dP9u7dK0eOHJEXL7hw5GhEjBhRsmbNKnny5JHcuXNLuXLlJEWKFMZe66FFgBBCCCHERXny5In06tVLJ5a7du2SnDlzyvjx4+Xhw4cq0Lg51oZ+mTBhgvYT+gv9hv5DPwYHtAgQYie0CBBCSMChRSD08PT0lPLly0u6dOlkzJgxkjBhQmMPcRbQhx06dJAzZ87I6tWrLe9DWgQIcRaS5xD5tKzPljq/z4SfEEII8QO4/dSoUUOqVasm8+fPpwhwUtBv6D/0I/rTancuWgQIsZNQswhgwl97qEjpr40Ggz1zRKY2EXn90mgwoEWAEOJA0CIQOvTp00cOHz4sS5Ys0T4gzg1+Q9WrV5ds2bLJgAEDjNagQyFAiJ2EmhAIG05kzFOfmgO++TapyL2rxgMDCgFCiANBIRDyXLp0SXLlyqVCIHHixEYrcXauXbumQmD//v2SPHlyozVo0DWIEEfnzWtvMfGBif3rV8YdQgghxAcEAzdp0oQiwMVAf6Jf0b9WQSFACCGEEOJCrFy5UurUqWM8Iq4E+hX9axUUAoQ4AzfOGHdseHzbe7tjPCCEEEJ8OHnypOaiJ64H+hX9axWMESDETkItRgDETiZSoqNIrCQ+jyEANo0V8Tzl89gWxggQQhwIxgiELPisw4ULJ2/e8DrgqoQNG9ay/qUQIMROQlUIBAQKAUKIA0EhEPLwM3dtrOxfugYRQgghhBDihlAIEEIIIYQQ4oZQCBBCCCGEEOKGhEiMwMtHF+Xx5dXy7MZueXZrrzy/d1y83lhbIpkEnTBhI0qkWJnEI14e8UiQT6ImKy8RoqUw9pJA+eS1DqVqjhPoG0oIcQzorx7y8DN3bazs32AVAm9ePZHbB36UeycmSvSERcQj5qfeWyaJFD2d96TTjyqpJFTxevNSnj88I8/uH/fejslDzy0SK2MriZuzt4QNH8U4yn0J1A9vwyiRJb1EXr80GoIZVB+uPlCkZCejgRBCQhdOSkMefuaujVMIgVdPPeXyqrISwSOhJPy0m4SPFMfYQ5yFV8/viOexX+TlM09JVmGthI+c0NjjnnBgJYSQgMOxM+ThZ+7aOLwQgNvPxeVFJWrsHBLvk5ZGK3FWbp2eJI/vHpQUVTar+5C7woGVEEICDsfOkIefuWvj8ELg5t7e8vz6dkmWe4j3o1DykSYW4iWX93WXSIkKSfw8Pxpt7gcHVuJsPH36VM6cOcPvrYMSP358SZw4sfHIdeHYGfI40mf++PFjOXv2rCRMmFA3EnQcWgi8fHxJzi/KIamLzJLwkeIZrcTZefX8lpzb0kBS1TwoEaImN1rdC17MiDOxf/9+KVu2rE40UYUyINy6dUs8PDwkWrRoRgvxjwsXLkjKlCmNR/Zz+fJl6dixo/Tr189ocU04doY8jvCZYxz58ssvZcWKFRIxYkR59uyZFCtWTKZPny4pUjARSVBwaCFwc8934vXwsiTI1NloIa7CjeMjJUz0ZBI/709Gi3vBixlxJtq2basrzv379zda7Kdp06ZSqlQpadKkidFC/COwYwNWSbNly6Yrpq4Mx86QJ7Q/c7x2wYIF9fbPP/+U9OnTy9GjR6V58+batnfvXuNIEhis7F/L6wg8urhcoicqaTwirgT6Ff1LCHF8njx5IunSpTMeEUckbdq02k+EuBrr1q2T3bt3y++//64iAGTJkkUmTZokOXPmlIcPH8qLFy+kU6dOkihRIrVcdu/eXV6+9MmwBxExevRoFcrJkyf/z4IGLGh4TrT36tVLJ8QbN26UcuXKGUeIbNiwQSpXrqz3t27dqvu+/fZbPadixYr6/vLlyydJkiSR3r1763EAxxYoUEDfT506deTGjRvaPnDgQH2t6tWry9dff61troLlFoGTUz3kkzJ/S9hwkY0W4iq8ef1UTq8rLRmaPzNa3AuuahFnIiir+v6de3rxVxIuYlQJg1S1QcTr9Ut5/eKxfFJjhNHiN6HxmgEhKGODO4wr9v6Pjt7PzkRof6+GDx8ugwcPluvXrxst79OnTx8ZN26cTvLhKtSsWTPp1q2bTtijRIki0aNHl99++00n9bi9dOmSnDt3TmrWrCkLFiyQf//9V4XEqlWr5ObNm9KhQwe5cuWKPveiRYvkm2++0WNWrlypoqBSpUpSt25d6dGjh1y7dk0GDRqkx/bs2VOfF+5LWDxp2LChHof3D2vdjh07pHXr1jJx4kQVEXh/RYsW1XNDCyv713IhcGJyWMlYaY/xiLgaJ1bmlYwtXnvfc78gcHe4YBPXIbiEwIavw0j48GEkduxwehtYXr3ykrt3X+ttyeH+/65C4zUDQlDGBncYV+z9Hx29n52J0P5eff/99zJnzhw5deqU0fI+SZMm1RgZTMwBzsGkfd++fSoExo8fr2PQmzdvJGrUqBprgIk+3B4hBEqXLi2HDx/WAOQ9e/b4KwSqVq0q9+/f17inBg0aqFverl279LnRtnTpUnVXgjBBzA8+v3/++UetGIjlgVjZvn27HDlyRJ8/tLGyfy13DUKGGeLKoH+ZCYoQdyZZsgg60YoUKYwkSRIhwBvOw/l4HnsJjdckIQ/72TVIkyaNZizDSr0t9+7dkwEDBsjVq1d1VT5//vzGHp9zTFcckDp1ar1FsgNM1p8/f66r9Vjdx8QeMVATJkzwFo6x9ThbTBcjk3jx4r1NfhA5cmTJkSOH3sdzhw8f3ls0vtL3C6tDuHDhtB0iAJjvqVChQnrragSDECCEEOLKxI0bXtKnjySenq/k/PkX8uaNseMj4Dgcj/MyZIikz2MvofGaJORB/6CfAtvP16+7fj+/fg2rvGOTOXNmXbH++++/jRYf5s6dq3EDiAtAjMzFixeNPSInTpzQ2AATv7KdnT9/XoYNG6YuR4ghWLZsmUyZMkX32X4uOM4WTPZtwYq6b2LFiqUC4cGDB7rduXNH1q9fL59++qnu9+scV4BCgBBCSICJHDmsZMzoofdPnHgmz575P2N7+vSNHgdwnodHwC8/ofGaJORBP5n9fPz4x/sZ+81+zpTJ9ft51qxZ6qeO1XVHJW/evFKlShX1v0cALmqaQBQg4Bb+9pjkY1UfogBiAMHDcM9BymP/mD9/vjRq1EjvwzqQKlUqfW7EGHh6emoQMG7xvAGlePHi6mqEmAC8vyFDhkj9+vXVQuDKcFQkhBASKLBglypVREmYMLycPPlcbt9+Zez5L2g/deq5Hofj/Vjos5vQeE0S8pj9nCjRx/sZ+92pn5HNBpNUuMQg4NZRBQF8/JHdp0iRIurzj0k+An0R4AtatWqlIgCWAfj5w9Wndu3aus/36jseY0PMwOnTpzW+AO4+sDp88cUXml0IAbx4jQwZMrx1K/oQfj0/hAtECp4jTpw48scff8i0adPeWhP8slC4AsEQLBxGMlZiflhX5cTKPJKxhXvGgWCgsPjnQkiwEZzBwrlzRzEevQOr7+fOvfC+4IeVFCl8JmRw17h48YU8efJG0qSJ6OdK7b59T+wKFg7p1wwIQRkb3GFcsfd//FA/Y8X/33/97ufHj994TyRDpp8diZEjR6pVAJNTbEhp2bVrV3VvAY70vYKPPWICPvnkEw36tQW++XAJihEjhq7q2wMKkyEIOW7cuCoIbEGwMARCpEiRjJaAA7cjxC9kzJhR4wkcESv79/1fDiGEEBJAfLvtIGAzuN1yQuM1SciDfrR1FbLtZ3dwBfILrFxjlR1uMUhxOXToUEmWLJlDWggSJEigvve+RQDAajuCcgNSaRhVz2EB8C0CANqCIgIA4hdQ68BRRYDVcJQkhBAXw1zRCmmwUmu67Zw/HzLuGqHxmlaD1T1X3uz9H6ft1EP9xOxnuArZ2894Pr9exxU2TFLv3r371n/dFAQ//vijn1l0CPkQTjRUEkII8QuYiJF7G3m4Yc5GVUz/CvkEN8jYkiNHlBDN3BIar2kV6D9X3uz9H5sW0EP9JSD9jOfz63VcYcPEHxN+M1MOhAFW3FElFwKBEHuhEAgCL1/6HbxECCHBzaNHj2TJkiWaQQOBbSVKlNBKmCdPnlTTOPxxQ5MwoZBpLzRek4Q87GfR/PlPnjx5KwAQH4DCV8jRb8YJOCqoB4BCX8QxcHkhULnJVxImSZ63W8JsZaVDryFy83bQFPOBoyclVsbixiNCCAk5kD4Q5fdr1KghM2fOVJ9gpN978eKF7kfea7N4DiHEtUCw7FdffaUTamcSAAga/vzzzzU7ELIJpUyZUt+/VXURUEEY/v1BBSILLlbugssLAZSPbly7olw9sFquHFgli6b8IjMW/iWjf59rHEEIIc4FSuRj4j916lTJlSuXWgAiRPCppAoBgLL9hBDXBLn0u3fvri5AziAATH7++WfNHnTkyBF974MGDZLffvtNxzErQJViFCwLLAcPHlQB8M0338ixY8eMVtfHLVyDokT2kMQJ40mShPHls7zZpWbFkrJm0w7dV6xmKxUFWUvWk80798vZ85elVN22EiN9Ufm0WB1ZuuZ/ehyAgMhWqr7kKN1A/pi73GgV+W7QWPnlt+nGI5GeP42RUVPm6P1nz19I2x6DJF7mUnre+OkLtR0+foPHTpP0n9XUrf+wSdoGfL8nQgjxDSb8zZo105VBrIKZOa6Rjs/MxU0IcT2wEAA3QGcRACZr1qyRdOnSqSUAFk38HyNGjBDUEAC3b9/WAl5JkiSRQoUKaXEwsHv3bqlcubL0799frZ1lypSRyZMn6z6A+6hPgJSi+FwArCZt27bVVKLIWISaBkDnXt7HwCKBDc9pzr127dole/bsUVdLd8IthAB8+R8/eSoPHz2R/+3YL6s3bpeyxXyikg4fOy3dB4yUUoXzSbpUKaRK06/l0eMnMm/Cz1K/Wlmp0+pbOXn2ggqEJp36SoFcWaVt09oyb7nPFxScu3hFrly/aTzC46ty5doNvT9g+GRZvGqjTBv5gzStW1m++n6ouiVNmrlYBo2eKh2/rCeDvuugwmHEpNl6ju17Sp8mpbYRQohvJk6cqIWFcGGDGEA2kUqVKulFlhDimjhrpdvy5ctrkS6MUWPGjJGjR49qGlQU8gL16tWTM2fOyLhx43Syj8k/YgkePHigbj9//vmnTu7TpEkj06e/W3xFFWEUEYOVYe9enzpWsJQsXrxYC4KhLgoWTG7evCmTJk1SSwSsprgdNWqUihGA94LqxqVLl9bH7oJbCIHf5yyTaOmK6Cp/mfrtpGj+XNKqUU1jr0jPjs1lRP+ucv7yVTl++pzMGjtQypcoJN93aSlpUiSVJas3qQUhY7pUMvGXXtK6cU35ulVD42z/geWgW9smUql0Ye9zGkivzl+oqBg3bYF8Ub+qdPyintSqVFI6eN/OX/63cda795QoQVyjhRBC3oGCQlgJgykbF1BUG8XKFi6Uwc3Vqy8t2+zFr3MDuxHHxa/+CuxGHAu4BmHijYxH3bp1k6xZs0revHnl3LlzKgDWr18vo0ePlmrVqskPP/yg1oNly5YZZ4ssX75cJ/CIM9i2bZvcunXLu5+vys6dO6Vhw//OySA48BoQHSi21qtXLzl79qyKDFQixvPUqlVLOnTooK5W7ozLVxau2KiTxIgWTX7o1lofx4sTS+LGjqn3QeyMJWT+pMFSukg+mblolXTu86vc+me9sVekUuPOkiFtSrl45brEihFdJg/to+1bdh2Q8g06yuOzW+Xztt9JwvhxdeIOarXoLulSJZMB37YVj1SFZNXMUVKueEHdZwJRAgsFVvAAuiGt9zlnti/5z3tyNFhZ2D3/d+JY4IK6atUqvbihHD7ARRQrWQi8g5tQcFUWPre6n3HPOlKX9/85Q+M1A0JQxgZ3GFfs/R8dvZ+dCUf7XiFeEyv2cLvBe4PrzqJFi3SSXqRIEWnRooVUqFBBj8V+gPffo0cPHYvq1q0rd+7c0XY8V/LkyWXgwIGaOQnBvYcOHVKrQfPmzTV4GkXHMEaWK1dOzzFBBWPEV9m+Rtq0aVWImHz55ZcqVpCUwVGxsn/dQgikSJpIxg/+zmj5L5h0L5w8REoWzisH/zkleco3krvHN0n0aD5lztMWrCY/f9dR9h46JoeOnZbVs0Zr+5TZS6VT719UCDRo10vFxeiB3XVfnvKNpZT38w3u3UnP79X5S139B5NnLZE82T+Vqk2/lpYNa6iVAHjevCN37z/QfbbvydGgEHDP/504Bi9fvtSLH1bAIAJwATWBAMBqGy6sILiEAHmfoIwN7jCucOwMeRztM0fGIMQCbNmyRQoXLmy0io5XGzduVB/+ggULqrsQYgjA8ePH9Rz4/sPqiRgCE5x34cIFdRvCYgiCp00hgNfC5B5jJFb/AaynefLkkapVq0rLli3fjpOenp4qULDPxN2EgFu4BtlLjszpNaD4l3HT5fmLF7JtzyG5cPmalC6aT6qVL66PEV+ASfv0+SuNs0SSJ0ko/9u5Xy5d9VQXIqQWNalatphMnbNMLl+7IZu275MO3w2RBPFiS/FCuTV24Pbd+7o17vi9TJyx2DiLEEL+Cy54KBaElS+4A9mKAAC/4U6dOhmPRKJEiaImd+K4oH/QT4S4OgkSJJBMmTJJ3759daIOTp8+LWvXrpWcOXNKlixZJG7cuDphx1iGxY6iRYtqXRS/gHsQJv6bN2/W+77BhB/ZiGAd2LRpk7oA4T0UL15cYwcgKrA1btxYY63cGZe3CMC1BxP1D1kE4mQqKQsmDX67+o54AmT5iRghgjx5+kz6dmmpsQIwRVVt1kVW/r1VwocPp4G8W3cflEdntsjh46elRK3Wcvf+Q3XviREtqrr1wCJw5vwlqdCwkwYUw0WpS+uG0vurL+XK9RtSqdFXcvSkjzkqS4Z0smb2GEkYP85778mRoEWAq1ok5MGqFSwBCHbDKhcumh8DlYaxUpYsWbK3GYXsBa+DQkWsRWAfmNCnTp3aeGQ/ly5dknbt2mnmEleGY2fI44if+f79+zVTECb35tiCQogI/EUGJATqYmKOeiiwfrZp00bGjh2rbo+wCCAmwBbEEGB8w0QfQBjAAoDxEq4+cDXCbxPuQF26dNGFlCtXrmjcACwPAGMpshmZmYsALAJwXUKNFkfFyv51eSEQGB48fCxnL1zWQOGYMf57IcTEPrJHJEmaKIHR4sOrV6/lqudNdUPyDT7i85euqSCBiDCBuDh97pLuRyCyM0AhwIsZCVnOnz+vIgCuPxABMHnbC/xnserG761jgsJKSZMmNR65Lhw7Qx5H/cwxjpmZgLJnz+49Jwpv7PEBYxaEQuLEiYNcHAz/P8ZPxBPYvo7OvYxxMWPGjEarc0EhQEINCgFezEjIceLECRUBWNGCCEB+bUKcDY6dIQ8/c9fGyv5ljAAJMKgESAgJXg4cOKCmbJisERNAEUAIIcRqKARIgEGgDSL0kb+XEGI927dvVxGA4DqIgNixYxt7CCGEEOtwayEAf39UHSYBY/jw4ZpuC5X6MGEhhFgHAuMgAlBiH9UxkQ+bEEIICQ7cUggMGD5Z8/tnLFJL4nxaUrMBnbto3ep21LSFZfPO/cYj1wNR9hAD2bJl01y8s2fPNvYQQoICsl5ABKC0PmICCCGEkODE7YTAjn2H5adRv8v0Uf3l6b/b5a8ZI8Xz5m1p8+1PxhFBZ/m04ZI1UzrjkWuC1F+YsKBM99ChQ2XQoEFagIMQEjgWLFigvykU8UKqO0IIISS4cTshsGbTTokRPZrkyppRIkQIL0Xy55SR/b+RogVy6X5EYQ8eO03Sf1ZTt/7DJr2NzC5Ws5WM/n2uZC1ZT2sN1GvTU9sBCo/lLNNAzp6/LANGTPZ+fF3bZyz8S9IVqi6Jc5STlt/8KE+fPdd21CAoULmZttdp9a3cuOVTOtvZaNSokVoHkLMc1gFUAiSEBIw///xTRUDnzp2lbdu2Rqtz8/z5c00TSAghxHFxOyFQpmh+uX33nuSt0Fj6DBknG7bukRxZMkivzj5lqCfNXCyDRk+Vjl/Wk0HfdZBRU+bIiEk+ri+Hj52W7gNGajGxEp/llfnL/5Zrnj4FLlAl+NGTp1pQbNf+o3L/wSOtMNykU19p2bCGFjTbsG2PzFy0SusNlK3fXrJmTKeWCRQiq9a8qz6PM4IKpxADUaNGVTGwevVqYw8h5GOgquWQIUOkX79+0qxZM6PVeUHVUFT6RI789OnTS8qUKaVr166aP9wK4D4V1PziALnKy5QpYzwihBD3xO2EwGd5s8u6Ob9JtkyfyMQZi6VU3baSIk8lmbN0re4fN22BfFG/qnT8op7UqlRSOnjfYsJv0rNjcxnRv6vUqlhSEsSLLcvXbdb2hSs3SIMa5fW+ybR5KyRfzszybfumUq1cMRk1oJs8f/FC2+PFiSUTf+mlwgQWiZ37jmi1YWcFBTvgIlSxYkUVA+PHjzf2EEI+xMiRI7WkPjID1a9f32h1bn7++WfNKHbkyBFNKgC3QaQcRrl/K8ifP7/MnTvXeBRw7ty5o+8HFU43btxotBLiOsCLAXnmietiZf+6nRDASn3BPNlk1m8DxfPwWtmxfKr68zfr3E/ddlBRePjEWRI2aV7dfhg6UW7cfue2U8hbSIBw4cJK3SplZOma/4nnzTuyfe9haVizgu4zOX/pqmROn8Z4JFKpdGFp36yunDl3SS5d9ZRwyfLpa2QpUVf337h1V2+dmU6dOsngwYNl3rx50rNnTy31TQh5H/xOFi1apCKgWrVqRqvzg3L9KP0PS0D06NF1wj1ixIi3Jfxv376togd1EZAZad26ddoOihUrJqNHj5asWbNK3rx5VSSZ4H7NmjXl1KlT+tmBZ8+eqStVvHjxJEeOHG8XINTF0/sYWCSw9e/f/62L55UrV/Q9+q5oSoirgElipEiR5PHjx0YLcSXQr+hfq3A7IVCteRf59sdRxiORArmzyo/fttWV+svXPCVWjOjSv1sbeXDqf7qd2b5E5ox7F0gc1kaFfV6jnKzfskfjABBzkD5NCmOPDxnTpZIr128aj0S27Tkks5eskVgxo0uOzOnfvsad4xtk/bxx8mn61MaRzk3VqlXVVQgiAClGd+3aZewhhLx8+VLdgLAaDRFQtmxZY49rUL58efnjjz+kUqVKMmbMGDl69Ki0bt1aqlSpovvr1asnZ86ckXHjxqlrDjIkmbEEhw8f1holpUqV0tL/06dP13bw+++/S4YMGdTKsHevT/V6pFdFXZNp06ZJ06ZNdby5efOmTJo0SS0RSGaA21GjRqkYARAZS5cuVXFAiKuC3wqscsT1QL+if63C7YRAsYK51U8fwbpYIXr85KlMnbNc4sSKISmSJpLihXKrv//tu/d1a9zxe3Uh8osCubJKogRx5ftfxkvDmv91CwJVyxXTyT/iEBAMjMxE9+4/1Nc4fPyM7Nh3RMKGDStDxk6X+m2/k3BhwxlnOj/Zs2dXMYCLOVyFYCEgxN158OCBBgUfOnRIRQDia1wNuAZh4o0sYt26dXu7un/u3DkVAKiTgFV/WEF++OEHtR4sW7bMOFvUkohJ+5dffinbtm2TW7duqavRzp07pWHDhsZRPkBw4DUgOjDOIOXq2bNnVWR88cUXKgRq1aolHTp0kPnz5xtnEeL64DfB77xrgn5F/1qF2wmBHh2a6US8SPUWEv2TohIrY3HZf+SELJg0RCJFjKgBwm/eeGmdAWxPnj6TAd19snj49snC4/rVyqo1oX61ckbru+MK5MoilUoVNuIQKkviBPGkWb0qUqVMUWnduKYGDMfJVFL+mLdcpo38QcKHdx0hAGLGjCl9+/bV1UCsyiEg8oX3Z0WIOwILGUTAxYsXdSU7T548xh7X4c2bNyp22rVrJxs2bNDV+5kzZ+r/jAk7hACASxAWQbAdO3bsPy6E2AeKFi2qQcErVqyQJUuWqKBADRMTjCXXrl37T1ufPn2kQIECKgawEGG+BgQHgpgJcRfatGmjFjX8RojrgP5Ev6J/rSKMl+k4aREnJoeRjJV8zLaODPz64cOfIV1KdQeyBRez0+cuqcUA7j1BBdYA+KPC6mDL9Ru35dqNW/oakT2s8/cKTk6szCMZWwT8K7Np0yYNjIRfMFIkwm/X2YDAs/jnQtyECxcuqAUAmXOwap02bVpjj2uByTZiAbZs2SKFCxc2WkVX6+EKBR/+ggULqrsQYggAUg7jnBQpUkjs2LFl4cKFUrJkSd2H8/DZQVzAhQpuQ8ga1Lx5c30tfI74PLH6DxBHAIEF98SWLVvq+QBCA6LEVnwhTgCraq9esbp8cMOxM3SAMIa7HYS074VM4nzgN1S9enUt5orFJKtwO4uAScL4cSR/rizviQCAFaQMaVNaIgJAgnhx3hMBAG5FObNkcBoREBSKFy+uK3QRIkTQi7NtgCAhrsyJEyfUEhAxYkQVA64qAkCCBAkkU6ZMagk0V+BPnz4ta9eulZw5c+rqfdy4cXXCHi5cOHX3wco/Unn6BdKQYuK/efNmve8bTPiRjejy5cu62AAXILwHjDeIHUBgMrbGjRtrmlZC3AkIAcTMwCJGnB/0I/oT/WolbisESMiTKlUqFQMIEIQYQEAfIa7MgQMHVARgxRsiABYxV2fGjBmamQf/M7IG5cqVS8UPfvuoSD5lyhTdsPpfrlw5Xc038/n7XrXMly+fpiaGuxBuTczj2rdvL9evX9exBRmF8FnjM4YrIiy7eF1sT548eW8FjSukxNXB4gMEMYLj69Spwyx+Tgr6Df2HfkR/ol+txG1dg0jgCKxrkG/wZUZAIIIlkekD6f8cHZq3SUDYvn27DBw4UCfCcF/x8PAw9rg+cIFCJiC49CBxgO9UnZiYwwqQOHHiIBcHw2/y/PnzKhRsX0ddPE+f1v1IWkBCD46doQt+bxiLsPgGKxqC93Pnzq0uJlZPKknQQfwTMgMhO9qePXs0mQJcHXEdiRIlinGUdVAIkABhlRAAWC2FGMCkAWLA0YMneTEj9oLMOLjwIg0mBm9C3BmOnY4BgvYRG7Nv3z6dZGKyyQQejgfEGZIjYE4EwQbLKWKoggsKARIgrBQCAFU+IQYQSAgxgFR/jgovZsQe4NMOEVC7dm3p0qWL0UqI+8KxkxDHhUKABAirhYAJigVBEJhFgRBI6GjwYuZcbPjaeh/wksP97/8FCxaoCGjVqpVWvCWEcOwkxJGhECABIriEAIA7BVKMIvAPKUYdLbsKL2bOBYRA5MhhJUqUsJIiRUQJG4jUCG/ewJz+Qp48eSNPn77xVwj8+eefKgJ69OghzZo1M1oJIRw7CXFcmDWIOAzwp0ZmEVwwkFUIBYkICQoZM/oE6J448UyePfOe1QcATPxxHjCf50MgNSUK5vXr148igBBCiNMQDEKAKdlcG/Rv8K3smGkGixUrpmIALkOEBBZYAVKliigJE4aXkyefy+3b9hWPwnGnTj3X83C+f9YEWLGQFx/pQevXr2+0EkIIIY6P5a5BJ6d6yCdl/paw4SIbLcReNgxxnKw5Jbu/79715vVTOb2utGRo7rNKGtzA3xpxA7AUIG4AecdDE5q3nQu4BuXO/S7VGlb4z5174a+rkK0rUJo0EcXD491B+/Y9ec81aPDgwfLXX39pZiBUviWEvA/HTkIcF8uFwLmFWSVRpq4SOXZWo4XYC4RAYHyaMUGx3BfaDyHw9O4RuX58qKSudcRoCX6Q4gxiAMHDEAOoThpa8GLmXPgWAsC/if7HhIKtEHj58qXGA6AyLkQA6mEQQvyGYychjksgpoz+Ey1FFXl4nb7dgSWwPs0h4QuNfkX/hiTIowtXoWTJkqmr0JIlS4w9hAQcTO79chUKiCsQimShgu2hQ4fUHYgigBBCiLNiuRCI9WlbuX9lpbx6fstoIQHhQxOVjxHY8+ydAKE/0a/o35Amfvz4uvrasGFDXX2FhYCQoBA3bnhJnz6SeHq+kiNHnupthgyRtN0/UOodIgCFeQYMGODwRfAIIYQQ/7BcCESImlxiZWor148O9n5EU2BgsZ2onD//Ql0a/MJ3e0DOw377JkBe2p/oV/RvaIES27AOrFu3Tq0D58+fN/YQEnDgTgcLWMKEEfTW1k3oQ/Tp00cePXqkloAsWbIYrYQQQohzYrkQAPFyfS+vXz+RW6cnGy0kMJgTFeCXy4+tS48tATnPngkQ+hH9iX4NbRCQCTHw/PlzFQP/+9//jD2EBBxYwBIkCO+vK5AtESJEUBHgaDUuCCGEkMAQLEIgTNiIkrTsUnl0a4dcOdBTXj2/Y+whAeVDLj+2Lj1+Yc95/rkCAfQb+g/9iP5EvzoC6dOnVzFQsGBBFQPTpk0z9hASvEAEJEmSxHhECCGEODfBIgRA+MgJJUXVHRIxfh45t+VzuX7kR7l3cZE8u39cvN68NI4i9hJYn+bAnof+Qr+h/9CP6E9HIlKkSNK9e3f59ttvZfz48dK/f3+5f/++sZeQ4CG0U9gSQgghVmJ5+lC/ePnoojy+vFqe3dgtz27tlef3IAZeGHuJydV/5L10h76Bb/+tW68kXrx37gxIaxiY8z4Eni9X6wkSNVl5iRAthdHquOzatUsDiCNHjqwpRrNly2bssRamwHMu/EofGhT8qiNACPk4HDsJcVxCRAgQ+wjsxMUeIRAQnHHCc/36dRUDe/bskc6dO0vVqlWNPdbBi5lzQSFAiGPAsZMQxyXYXIMICUkSJUokP//8s9SpU0ddhkaPHm3sIYQQQgghfkGLgANBi4A1rFq1SkaOHKnpHWEdSJ7cmpSnXNVyLvB7shpaBAgJOBw7HQPUP1mzZo33NX6fVu0/cuSIvHhBN21HI2LEiJI1a1atU5M7d24pV66cpEgRfG7aFAIOBIWAdRw/flxdhW7fvq1xA4ULFzb2BB5ezFybiRMnqiUJRevq169vtBJCggrHztDlyZMnWpRz0qRJ6jabN29enWAing6TTuJYQJxBpEGswd152bJlWkcJ16YoUayb65lQCDgQFALWgsEPloFFixapZaBRo0bGnsDBi5nrMmrUKJkxY4YOtNWqVTNaCSFWwLEz9EA19PLly0u6dOlkzJgxkjChY2UAJB8HfdihQwc5c+aMrF692vI+ZIwAcVmgnHv27Km1BjDRw4oIqsISYsvgwYNl4cKFWiOAIoAQ4ipgZblGjRo6rs2fP58iwElBv6H/0I/oT6vduWgRcCCCw6c5sLiaL/T27dvVVShmzJjqKpQ5c2Zjj/1wVcu1ePnypYrDnTt3qiWgSJEixh5CiJVw7Awd+vTpI4cPH5YlS5ZoHxDnBr+h6tWrq0vXgAEDjNagQyFA3IYrV66oGDh06JC6ClWqVMnYYx+8mLkODx48UBFw8uRJ6d27twZlEUKCB46dIc+lS5ckV65cKgQSJ05stBJn59q1ayoE9u/fb1kiFLoGEbchadKk8ssvv6h5De5Cv/32m7GHuBM3btzQlTJk0IA7EEUAIcTVQMX9Jk2aUAS4GOhP9Cv61yooBIjb0b59exk2bJgsXrxYvv32W7l69aqxh7g6Fy5cUAvAw4cPVQQgxSwhhLgaK1eu1Lo6xPVAv6J/rYKuQcRtOXr0qLoKYVKIuIGCBQsae/yG5m3n5sSJE+oOFCNGDI0JSJIkibGHEBKccOwMeSJHjiy3bt2SqFGjGi3EVXj8+LHEixdPnj59arQEDQoB4tZABCDF6IoVKzRu4PPPPzf2vA8vZs7LgQMHVASkSpVKRUDs2LGNPYSQ4IZjZ8iCzzpcuHDy5s0bo4W4GmHDhrWsfykECPHmzz//VOsATG4QBFhN8Q0vZs4JMkZBBOTMmVNFgF99SwgJPjh2hjz8zF0bK/uXQoAQgy1btqgYiB8/vroKZcyY0djjAwdW52PDhg0qAkqWLKkigBAS8nDsDHn4mbs2VvYvg4UJMUAe+eHDh2shMmQVQgU/4rwgmAqBwUgTSxFACCGEvA+FACE2pEiRQjMKVahQQcXAhAkTjD3EmViwYIGKgMaNG0uXLl2MVkIIIYTYQtcgQj7A0qVLNZC4QIECGjeQKFEimlqdAMR7wB0IqWGbN29utBJCQgu6qYQ8/MxdGyv7l0KAEH9AFWLEDTx//lxmz57NgdXBmTRpkowaNUpdgerXr2+0EkJCE05KQx5+5q6Nlf1L1yBC/CF79uwaN5AhQwZ9PG/ePL0ljgcEAIQACoVRBBBCCCEfhxYBQuwEChzCoGHDhuoqFDFiRGMPCW0GDx4sf/31l1oCypYta7QSQhwBrk6HPPzMXRtaBAgJJeAmtG3bNg0kPn36tNFKQouXL19Kv379NE0oLAEUAYQQ4ligEu7hw4fF09PTaCGOBC0ChNiJqcDPnTunguDs2bNqGShTpoxxBAlJHjx4oEHBJ0+eVEtA3rx5jT3EZM+ePbJ582ZWGHVQUOm6cuXKLl/kjqvTIY8jfOa3bt2SL7/8Uiv3w4L+7NkzKVasmEyfPl0z9JHAY2X/UggQYie2PzzcQgxMmTJFi4+1aNFC20nIcOPGDRUBuIUIyJIli7GHmCxcuFA6deqk8RLhwoUzWu1jzZo1kjx5cvn000+NFuIfGAswDgSU/fv3S9SoUTVDmStDIRDyhPZnjtcuWLCg3iKTW/r06eXo0aOayQ1te/fuNY4kgcHS/vV+IkKIHfj1c/GebHkVLVrUq3fv3l43b940Wklwcv78ea+WLVt6eV9QvM6cOWO0Et80a9bM648//jAeBYwmTZp4TZs2zXhEPkZgL6Vv3rzx8r6gG49cF041Qp7Q/szXrFmj323vyb/R4sOBAwe8WrRo4fXgwQOv58+fe3Xs2NErYcKEXokSJfLq1q2b14sXL/S4AgUKeI0aNcora9asXsmSJfP64YcftB307dvX65NPPtH27777Tn9HGzZs8CpbtqxxhJfX+vXrvSpVqqT3t2zZovu6d++u51SoUMFr7dq1Xnnz5vVKnDixV69evfQ4gGPz58+v76d27dpenp6e2v7jjz/qa1WrVs3LW/RrW2hiZf8yRoCQIFCzZk3NKnThwgWNG9i3b5+xhwQHJ06c0EJhESJE0JiAtGnTGnuIb+AOhFUj4riE9qotIcHFP//8IwkSJJDMmTMbLT7kyJFDs7tFjx5dBgwYILNmzZLvv/9e237//Xct6AmQuhtjvPekX6pWraq3ly9fFu+JuowdO1aP79+/v2aLQ9zevXv31OJggsfHjh3T+/fv3xfvib++J1iSDx48qPFkuH7Daoq28+fPy9WrV7XdW3yo+9Ldu3fFe+Kvz3Hx4kX56aefNC6tRo0a2uYq0DWIEDvx76J9+/ZtLT62adMmjRuoVauWsYdYxYEDB3TATpkypYqB2LFjG3uIXzRt2lRKlSolTZo0MVrsx79zM9bMKOEjhJcoHlGMlsDz5NkTefXylZxYdMJocU6CMqF3BzFg7//I75Z1hPb3CpP7OXPmyKlTp4yW90maNKl07NhRevTooY9xzsqVK3VBLUqUKDJ+/Hgdg7CoARc6xBpcuXJF2rZtq9XjS5curUHICRMm1HioDh066H6waNEi+eabb+Tff//V54SYgCCIFi2aNGjQQGP8du3apc+NNrjnwV1p3LhxurCHzw/CAW6nECAQHdu3b5cjR47o84c2VvYvhQAhdmLPDw8xA/AXhh8kBEFAfbOJ3+zYsUNXh3LmzKkxAa4eXGkFwSUEwuQJIzGixZA65WtLqYKljNaAs37Hepm/eoE8ePRAvPY692UoKBfl0J6whQT2/o/8bllHaH+v/vjjD/niiy80U1D8+PGNVp+V+tGjR2sQcbJkyWT9+vVSokQJ3Ydz+vTpI5cuXVIhgFilIkWK6D48x7Rp06RcuXI6kcdEH+Kgbt26apXHir+tEJg7d6707NnzrRAw3wvAa4cPH14mTJigj2PEiKHHQ1zAKoHPDpifH2J5IEqAeU5oY2X/0jWIEAvBAAMhsHHjRnUVwiBEggZSg8ICUKhQIRUDFAGhz+xhs2Tb/u0yY+kMSZcynWTPmN3uDcfjPJyP5yHEFn63XAO4BGGi+vfffxstPmDCjcl2okSJ1LUTLjcmcP1EgLFJ2LDvT1HhwgP3oevXr6ugWLZsmS7AgdevX+stwHG2YOJviznZtyVWrFjquoSMdNju3LmjQsVMmuDXOa4AhQAhFoOVVKxQwOQIMYCJLAkcWMmBCKhUqZJaAohjkCppKpk1dKZEixpd6nauJyf+tc/9AsfheJyH8/E8hNjC79bHsZ08OypI51ylShVdld+6das8ffpURQHG8datW+skH+46EAX4fx4+fKjuOR+rBTN//nxp1KiR3kdxT6TgxXMjHSlW/NetW6e3eN6AUrx4cXU1ggUa72/IkCGByrrmbFAIEBIMpEuXTi0DMGtCDEydOtXYQ+wFZlqIgMaNG0uXLl2MVuIoRIoYSfp2+F46NGovLfu0knmr5hl7/Ab7cRyOx3k4nxC/4HfLfxAUC9eZVatWGS2OCdxpkDYU10G8X9sAXdCqVSsVAbAMwM8f7j+1a9fWfb5X3/EYG9wVUcwT8QXx4sVTqwPcfrJlyyZFixbV18iQIYOkTp3aONNv/Hp+CBeIFDxHnDhx1FUJ7kimNcEvC4UrwBgBQuwEA0Vgfi5YwUAgMQKbEDfAINePg7zTCAz+9ttvNd6CBJzgjBH4Z+W77Bzg/JXz0vXnbyRNstTSr1M/iRo5qrFH5PHTx9JvVD/59/I5Gdrj1/dWajNXysIYARe/DNv7P/K7ZT/4TAGCWX/99Vf1nbfFkb5XqPdy9epV+eSTT9Sv35ZXr16pSxD89O0tMobCZAhCjhs3rgoCWxAjAIEQKVLgxSDcjq5duyYZM2Z0WFdUK/uXFgFCgpk6deqoqxBWMWAdQOoy8mGQFg4m2X79+lEE+AEugoiVQNo8pNhDOrvQ5kPuHHQFIkGF3y2/gdskst3AOoBVdKS8RHCtI4I0ovC99y0CAFbbIWYCUmnYw8NDLQC+RQBAW1BEAED8AhJTuEs8Gi0ChNhJUBU4VkVgGUAKMlgGqlevbuwhJpjczpgxQ/1IzfzN5H12794t+fPn1/uoqYCUqvny5ZPPPvtML7jZs2eXdu3ahZhFwJZVm1fJTxMGSf5s+WTX4d3yXeueUqFoBWPv+9AiEEYznlhBcFzOrXjO8uXLy+rVq41HH37OCr0rWPvdKp1FVv/67nVdDdO1xgTCAJl4fv75Z72+BMf3gTgGVloEKAQIsROrfngTJ07U+AH4IkIQEB8GDx4sf/31l4qAjwWMEdHVP/jbPnnyxGgRXcHCdxRWAwgFiIGQFgIA7hxjZoyRDo06fHSllkIgjJQpU8Z4FHjwPFZj1XPiu2q6rvj3nKtvrrb2u1Uwi5RL/1+XGVcCga03b95U9xpgfg+xwg5LAad3rovZ11YQYkLgxavncufxDbn92FPuPbklb7zepXkijkHYMOEkVpR4EjdqQokTNYFEDM9gPlus/OFhBRBiAEFNX331la7ouitwbUE8ADI1QAQg4It8HOTjHjRokFqZnj9/brSKmt8RW3HmzJlQsQgEFAoB68YVR8Xe/5HfLfuBzz2SUiBjDj5fBOPCneWXX36RAgUKOPT3CuMVfPnTpEljtJCAYmX/BrsQePT8gWw+tVwOX94p0TxiSQyPOBI5YnT9J4hjga/C0xcP5cGzO/Lo2T3JlqyAFE1fRaJFimEc4d5YPbCePHlSxQBSncEyUKxYMWOP+4CUcRABCBaDCEDKOfJhEBOwc+fOtxt8WVEdE5MBgMkAhEGLFi1CNFg4KFAIOO6EzSrs/R/53bIfZMpBVhvfAsDEEb9XcI/FtQ7xDbBkwp8f8Q2ICbMiRSeeF7V8EOwbGLC4gtg0FBDLlSuXpinNkyePsdexsLJ/g1UIHL+2X1YemSnJ46SXjEnySoRwXGF2Fl6+fi4nru6RS3dOSaWsDSVT4lzGHvclOAZWrIxADKDICiwDgZm0OSu4KEAE4BYiAOZs8l9g9red+GMVDRd7c4MlCWLgxYsXOiGYOXPm29gTCoGQIyhjgyNO2KzG3v+R3y37gDUAk+hMmTJpvnxbAWDiiN8rpIHet2+fTJ8+XdNzLl++XCfuKAyGxYugcuvWLfnnn38CvaiGMe/ChQvStWtXLQY6dOhQXbBDtiNHw8r+DbasQQcubpW/js6WgukqS9bkhSkCnAz0F/oN/Yd+RH8S60F2A7hxdO/eXcaNGyf9+/fXioauDgZb1AiARQAZcCgC3rF3714ZM2aMrkahyiYuklgtw8UJ7lNYBWzTpo0GBcNCABEQPXp0DcZkADohrg/GCIwFx44d81MEOCqIFYE7ExYwMGY1aNBAF8JQQwDcvn1bC3glSZJEK8mjOBhAcoTKlSvr9RFVfhFTM3nyZN0HcB/xUkgpilgzgDiptm3baipRjJWoaQAwecYxqG+ADc+JNlhVt2zZootyOA8WFhQrmzXL9StUB4sQuH7/kqw/vkiKpK8usaMmMFqJM4L+Qz+iP9GvJHjA4IcUoxjYkWL0yJEjxh7XA25AEAFIGwcRgGIy7gxW+RcuXCjdunXTwjtImYoJfokSJbTSJuJJcLGqWLHiezUozAslKnfiXEKI64OKvM4kAEyQPQoLGagUj8UOBDQjaQYKeYF69eppbBMWxTDZx+QfK/NYHIPbD+rLYJKO2AJYFUxgFUG83d27d1UkgQEDBsjixYu1IBgsnLC4w8KK9NSIrerYsaPeIlMdxAhW2CFUkJYUXL58WS5duvQ2O5srY7kQgLJadugPyZK8sMYEEOcH/Yj+RL86mqnRlcDADjGA6ooYtGA2dTUOHDigIgB5pSECsPLjbuA3hNU89DUufFj5QuXpmDFjSt++fXUfLlYwmWfOnNk4y2+QJQgXSvPiRQghjgrSmmLijdV3LHyg9gHiws6dO6cCYP369WoBReroH374Qa0Hy5YtM84WvSZiAv/555/Ltm3b1BUIblJwm2zYsKFxlA8QHHgNiA4srsH99OzZsyoyEF+B56lVq5Z06NBBi36iNgEWX5COefPmzZqKGe/PHTLYWR4jcOL6Adl4YpkUy+RTJpq4Dv87vkBKZKwqGRPlNFrci5D0ucRghVUKDFYYqFwBTHAREwAzLQZldynWAs6fP/8fX3+480D4mRtM1IEBaQPN8ve+Cc4YgZwZrRsDDpw4wBgBF19gsfd/5HfLOhzte/XmzRtdsUdsAN4bXHcWLVqkk3RYMxEjUKGCT00I7Ad4/z169NCxqG7dunLnzh1tx3MlT55crycIOp4wYYJaUWE1gEUVq/mY2K9ateq9isuoYAyXVNvXgFUaQgT3v/nmGxUr7du3V+GC53FErOxfy4XAnD1jJWaUhJIyXiajhbgKF24dl/tPPKV+3vZGi3sR0gMrBjGIAaxKwEKAQjHOyoYNG3TQLlmypIoAVwdB4LYTf2y2E39sQa1++TGCSwjsPLLTuGcdBbI6n5uDLUEZG0J6XAkN7P0f+d2yDkf7XiEpBGIB4IdfuHBho1VUCGzcuFF9+BETBXchM5328ePH9Rz4/sN6ihgCE5yHWDO4DWHVHnF2phDAa2Fyj2sNVv8B4giQAQhuVS1bttTzAbL2QaBgH2KvcN2FhQAFGh0ZK/vXciEwdG1XKZ6pjqYIJa4FUotuOj5fupYdarS4F6ExsCJmAGIAAxXSrtkOoM4CBmeIAKSJQ9YIV+X06dP/mfjDxGw78UfgWUgSXEKAvE9QxgZHm7AFB+7wPzoajviZI9A3ceLEMnv2bHUPxZiJBAeYdMMlCGNk48aN5aefflLXH8QOwDUI/4tvIYAAYlgS8D/C5QcWAlshgIk+4gXwWljtR3wC3ChhYYDYQPwAgJsRklUgODhWrFj6PooXL677AFx1zWBmR8LK/rVcCPy4so3UyN1B3yRxLfBVWbxvjPSu5BN9726E1sAK0yfEAAYuWAZ8+0ICrEDjvTmaGXPBggUqArACgyq3rsSjR4/+M/FHlU/biT+2sGGDLTHbR/n+++/lf//7n8yYMUMiRoxotNpHp06d9CJbp04do4X4B1K4BiZ3OTKSoO4DXMdcGUeclLo6jviZIz8/MgUhJWe0aNG0DX75CPzFJBzJESAE4DqJQpNYoR87dqzGDkAIICbAFsQQwFK+adMmfQwhAAsAVvkx+YerEeIP4A6ERSjEpyE5A+IGIAYARACChDF++xUPgKx+cBFyNBxaCAxY0Vpq5e1kPCKuxsI9o6RP5QnGI/citAdW5IjHpAGBVBAEqCBrsmfPHt0cabKNCSgCgjGQYpXGFUCOatvJPy5ethN/5PZ2FLAq1rNnTzV1w6c2IOBCDBHzofgD8l8Q/BiYmBfkJ0eAeOnSpY0W14RCIORx1M/89evXbzMBZc+e/b0xBgtfEAqwHEBgBwX8/xDZsBbYvg7GQ1gjsD9jxoxGq3NBIUBCDQqB0B1YYS6FdQBpJCEGYGoFyLCAiohYRXGEyRuy3iDgCj6aSI3qrMAly3biDxO07cTfUatOEuJIUAiEPPzMXRsr+zf07NaEkACDlGZIO4lUkxACf/31l7ZjBQXAahDaQABACMAa4Iwi4ODBgxq41qxZMw1eg+8oBBaySGzfvl0tHcjkRBFACCHE2aFFgAQIWgQcZ4UFBVkQ2ARB8Ouvv6q5NUWKFOoTaY9vOlKowWyKzAu4hV8lzLHI2ICgLWy27kf2gIqNECewBDhL/mX837ar/vD1tl31h/maEBJ4uDod8vAzd22s7F8KARIgKAQca2BdsWKFBuMigwL8HlG2HYVUUG7dL65evapZFObMmaMVfs1Jf+rUqTUzwrVr11RIQBhcvHhRC1VhVR8bsjx8COSzx/vAijlEQNGiRY09jgniKWwn//DVtp38w/efEGINnJSGPPzMXRsKARJqUAg4zsAKF5Y+ffrI33//rRNxbACl1jHJtwXZFjBRR4l2pPFE5iGkIsX/9CEgLJCNAa4wSOHWqlUrzdXse5IMywKeG68JEYBKkY4GCszYTvwRqGY78TdjLQgh1sNJacjDz9y1sbJ/GSNAiJOB2gJIf5YzZ061CKBCoykCANKjrV27Vu9joPj9998lc+bMegzOhf87UkP6JwIA3ItQAAznI7XazZs3dcIMa4IJMtMgJRvcixAT4CgiACIGgdVDhw7VFJjw9Z82bZoGWSOwGlWOJ06cqKnmKAIIIYS4K7QIkABhlUUgaR7r60xcCeZS8o60woLJPla2kZcZueIxUUdaNhSxwmo3cjTD1x1pO5FPGe5CqFAcVOBSgyDa/Pnza2pKBNJCYMASgEqOoQlcmmxX/fF52K76I+c0ISTk4ep0yMPP3LWxsn8pBEiAsFIIpEqZTtJ/kkU6tu0lHh4Bz8H97NlTGT1uoJw8dUQuXDzrVkLAL+DTv2/fPl0Jh6UAwBKAmICAFpTyD+R5Rpl2pNIsV66cuieFRv58WEJsJ/6Ik7Cd+GOz8v8mAQNF7iBY06RJY7QQd4WT0pCHn7lrY2X/0jUoCLx6+c4dgwSc0cNm622Hr+vrRD4g4PiOXT7X+2OGv3NVcWeQMahGjRqaQQhuQ3DtgSsM3HesBAHHCCzG88MaEJIi4NSpU+ri07ZtW3X3gVUCWX9QJh7uPosWLdI4BgQrUwSEDvi+oT9Qmj99+vQakN61a1e10FgBqocGtdDQuHHjpGLFihpUv3DhQi2gRoirgAkiJorEdbGyf11eCLRr1E4yJ8rydiuSpaj82HOg3Ll91zgicBw/clzypy9gPCKBAVaAbl//KHVrNZeuPZrJ2r+XGHv8B8fh+Do1m+n5gbEmuDK//fabTphRURbFxVBoDMGyVgArAHzsMclDIDGsD8FZuwCByOvWrZMBAwZoXARSkuL/QkA0JnOY/KOuAsrPY8JJQh+U44dYPHLkiBZkGzRokH4np06dahwRNOCWNnfuXONRwJkwYYJ88803GhuC7xNqQiCWhBBXAZPESJEiyePHj40W4kqgX9G/VuHyQuCNtzKuWqeKbDq0UTYe3CCjfh8pKxaukJlTQr/wEvGhbOnqMvTnP2T+oj/kl+G91eXHL9CO/fMWTtXjcR75Lygshon/vHnzdGLct29fFQOYvMNNIyiYIiBOnDj6vCjbjglZly5d5NKlS8ZRQefo0aMyefJkadGiha76QwRAEHz55ZeanhTByqidANcf4nisWbNG4zHw/UM62wYNGmg1bFiRwO3btzUdbZIkSaRQoUIq9EyKFSumtTEQz4LAc3wPTHAfK/gQuahXAeAeButQvHjxJEeOHBoID7AiimNgkcDWv3//t2b01atXS8eOHdVy1qZNG2nSpIlDFOIjxEqwWAIxTlwP9Cv61yrcwjXII3JkiZ8wviRIlEBy5ssppSuWlm0bt+m+ptWbqSioXryG7N25Vy6dvyRf1P5S8qXLL1WKVJUNqzfocWD5ghVSo0QNqVmqliyZ+271esRPI+X3396tdg0fOEJmTPa5sMBPtv+3A+SzTIX1vLnT5mk7LkpTxkyRioUq6TZu6Li3Fyrf78kdSJkirb+uQr5dgXA8eR9Uv/3+++/fBu6iQBgm7XDjCYoYQLEynI/UoXg+uBwB1BnApAoT88By584dLUKG912mTBl1b0IANNyb4Aa0efNmGTJkiE4CMXkkjk358uU1OB0WHBS9g7Br3bq1VKlSRffDeoMAdlh00N+VK1fW7xdA0Dtcu0qVKiUZM2aU6dOnaztA9ipc/GBl2LvXZ1yESFy8eLF+T5o2barfQ2S3QmVrWCLw3cQtql1DjAAEtqMdYMzdtWuXWhkIcSXw+5s/f77xiLgS6Ff0r1W4hRCAL//TJ0/l8aPHsmfHXtm6cat8VryQ7jt5/KQM7T9MChTJLylSpZB2jdvLk8dPZNikoVKxegX5umUXOXf2vAqEnh17Srbc2aV+03qyetkaPR9cuXhZblzzNB799/H4YePl77/+lp9G/yTV61aTn/v8rG5JC2YskEmjJkvDLxvI172+UuHw58Q/9Rzb95QqTSptcwc+5CpEVyD7wGQa/vJYIbXFFAMAk3m4bQQEWxEAawMsArZ069ZNDhw4oKv19oLjMRHE5A2r/sOGDdOUn507d1Z3H9Q7gKjJnTu3cQZxFuAahIn306dP9bthru4jqxMEwPr163XVv1q1avq9gvUAdSpMEPeBSTssQHA9Qw0MfGcREI76F7ZAcOA1cFH8+uuvdZIPyxW+W0gNiwl/rVq11P3HnBTlyZNH41rwW0HQO0QFvmuEuBKwdkFIo0gkcR3Qn+hX9K9VuIUQWDR7keRJk1dX+VvUbSF5CuSWOo3rGHtFWnZqIT0G9JCrl67Kv6f/lV/GDZHCJQpL265tJXnK5LJh1XrZummbpE6XWn74tZ/UbVJXmrRuYpztP0vmLpUv2jWXYqWL6jmtv2rlLSouypxpc6XG5zW8hUBDKVOpjDTwFgRrlr8TF+Z7ipcgntHiPti6CjVqXpauQHaCCRgy+IQLF85oeQdW0jGJB5h82XtxwOQNx8eIEUPFhG8RAOCriMkbVl4/BFKZLlmyRHr06CHFixfXCR1SkX722Wc6QUNRNNQhwOow3DyIcwIxh/S17dq1kw0bNujqPdxukNEKE3YIAQCXIFipsKG2BSblJtgHEPCNoGBkwMJ3B4IiS5Ysug8gwBffY9s2fP/hMgYxgNgR8zXwHbYNmod7ECwOcFOCKM2VK5exhxDXAK6bmCxiM70NiHODfjT7FP1rFW4hBCpUKy8rtq3Q7X+HN8mvE36VREneZZ3IkTeH3l6+eFlixY4lyVO9+4AhBG7dvC27tu6SnMZxIEee7Ma99zGLO718+VJuet6UTzJ+oo9Bmy5tJHvu7GphmD5humRJ7H1x895++/U3uX3rjnHUu/fkrpiuQjWrN6YrkB2gqi8mP3Cf+RAQA5jMY7IGUfAxMXD+/Pn/iIC4ceMae96nUaNGupJv63qEdJ5YGYaPOFb9EaQZOXJkFQ04Fq4eqFYM9yLiGmD1HkIOK/nAw8ND+x8bRIBZlRruQhAM2PA9sbViYeJu3tatW1etBcgG5dsagKxQqVOn/s93DnEEqLiN10FcgPkaeG2zEB6CzfE7wXcb7/OTT96Nz4S4EhDGcJXDd504P+hH9Cf61UrcQghEjxlDUqdNpRsm+r4xLzzpMqSThw8eqguRyb9n/tVJfwpvQXDdxv3n/NkLxj1vwoSR16/fGA9ELQsAxZ2SpkgqntffrUQtmLlQThw9IdFjRJeO3TvI7jO7dFu9c5UM9RYoJuZ7cmfgAlSzWmO3dwWCS8T9+/eNR36DiVLt2rU1MNg/4BJhigEMKlip9wtTBKAwGY7/2Co9Jvhwz4BVAKkisdKPST5We81MP9jwXKg9EDNmTONM4kokSJBAMmXKpP1srsCfPn1aK10j5gOr9xCUmLDDcoXvNlb+EeTuF0hDinShiBPBfd/AtQfZiJAVC1ms4AKE9wCrE2IHsOKPrXHjxlpJGowcOVJKlCihVbP/+ecfFSV4j4S4GhDL+B0sXbpUK6zbWt6I84B+Q/+hH9GfVqfG5mzThoxZMmpQMQJ/YXY+sPuAXLt8TQoWLSgly5fUx4gvuH3ztiyb986nNXGSRLJ3xx65fvW6BiEf957om5QsV0IWz1ksnt4iYs/2PTKw50CJEy+O5Pssr/y9ar3cu3tPtx4desi8PxnYQ94Hq6pY4fz2228/KAgQXFu6dGnjkf8kS5ZMJ2qwXMEy4FsMXLhwQUVA1KhR7RIBJnh9xAlgoocgTtxHFhdUIoYbBnEPZsyYoav0yBKErEFwu0HwOlx1ICynTJmiGwLOIQrhy4+gYeA7N3a+fPnUBA53IVtTuHkcfPvx/U2VKpWu8vfu3VstXxCkELt4XWwogofvJEBwMOJp4GpkbhCrhLgi+B3C8oXsWfiuIxsbrLOIjWH9DMcE/YLioOgn9Bf6Df2HfjSzr1mJy1cWbtuwnSRKmkj6DvneaPkvBTMWkhGTh0v+wj5ZIxbNXiz9v+2vq/nPnj6Tdl3baqwALiodmnSQ//29WcKFDycFihSQ/bv2y95/98ipY6ekWc3m8uD+A3UrihY9mhT03t+lTxe5eO6itG7QRq5cvCJRo0eVpq2bSpuvW3sLgxvStlFbOXPCx2c2XcZ0MmnORIkbP+5778mRsLKy8LqVR41HQadMpSwuXVkY2VKQNhETKaTrxGa7qo7JPSbeKCpmL0j5CSGA1QXcYoAxRQBW+NGGegH2gowvWLXFKitxb1A8DEHmcMvJnj37e5YqTMxhBUAge1CLg+E3CQsWhILt62DMxko/9lOIhi6hOXaSdyBWB+l9McmEEEAaSooBxwPXZEz+kdgACTOwYBKQa3tAcXkhEBgePXykPvzJUiaX6DGiGa0+YGIfycNDEiZOYLT48PrVa7nheUMSJ01stLwDH/GVS1fVcgARYYIL1QXv5/M+QAORnQEKgdC5mMHvGe42mEBFiRJFXcdMQQAffgwcyNLyMdcg35hiAAG/WHlAukdYINAGF4uAABcMrFrglhBCTCgECHFcKARIgBg6taekepnXeBR4xi/93nIh0KZaf+NR8IA89whADC2QKhErnxCQAIIAwqBTp046gccqbGAwM7pgRR8ZV1CIKaAiAKDoF2IQsApMCCEmFAKEOC6MESABwuuNl2ZDCuoWHPj1OlZuIfEa/m0AF1QT88IaVNOu+Zzm89m+BiGEEEJcF1oESICw0jXIalzZNQir9UjBCQsA/PfhGoRiSajCikDiwLoGIdsK3IAQE4MCTmPHjlVLQ0DjAwBdgwghfkGLACGOi1sLAfj7J0mWRMJHCNjkyZ2xSgg4I6F5MUPaRQThIpOPKQCQdcUkMMHCpgiAeMAtgjbNtKF4HbQFpLgXg4UJIX5BIUCI4+KWrkHjh42XcvnLS+XCVTRDT/smHeTyxXdFaYJK7tR5ZO/OvcYjQoIGJtiYXHfu3FmDe5Ea0VYEgMyZM8uhQ4eMRx8H6R0x4YcIQIpQM3ML0jDi8aNHj3Q/CkTZC14f74MQQgghzoHbCYGDew/JxJGT5OfRg2T/+X0yftY4rQvQv7t1lfd++3OspM+U3nhESNDApPzOnTsyYsSI9wSASbFixeTvv/82HvmPKQLgXoRJP1I42mKKAQT/4jh7XH1Qk2D9+vX6PgghhBDiHLidENi2aZvm88+U7VN1CcqdP7f0/LGH5C6QR/fDfDllzBSpWKiSbuOGjntr0mxavZnMnDJTqhevobUGurb6RtvB1ctXpVbp2pp2FBYHs7rw8gUrpHyBClIsW3Hp27WvPHv2XNtRg+Dzig20/esWXeTOrTvaTohvUEzpQwLApEaNGrJgwQKdkPvH1atXdXIP/BIBJqlTp9b9yABkjxhYsWKFzJ49WwuesUorIYQQ4hy4nRAoVLSg3L97X+qVqyejB4+WXVt3aUXh1l+10v0LZiyQSaMmS8MvG8jXvb6SGZNnyp8T/9R9J4+flKH9h0mBIvkl/2f5Zc3yNXLT86bu+/uv9fLk8RMtKHZ4/xF5+PCRHD9yXHp27Cl1GtXWgmY7vV9rxcIVcuP6DWlZr5Wkz/SJDBo9SAuRdWjaUZ+HkMCQKVMmraC6aNEio+V9rl279lYEwP8fFVj9wxQD9+7d0/NglfgQSEH66aefapEoVIlt2bKlzJ07199zCCGEEBK6uJ0QyJkvp0yeN0nSf5pe5v05X76o/aWUzlVaVi1ZpfvnTJsrNT6v4S0EGkqZSmWkgbcgwITfpGWnFtJjQA8pXam0xIkXRzat3aTt61auk0o1K+l9k6XzlkrWnFnlyw5fSsnyJeW7gd/JyxcvtD1WnFjS79d+UqhYQbVIHNp3SKsNExJYevToIQMGDPCzngBEACb/qEGAyf3HRIBJmjRp/iMG7t69a+x5x/Pnz9VtCRmHpk2bJitXrtRYgT///FNFAd4X3IYIIYQQ4li4Xdaghw8eScRIEbSSKsAEfOSgUXJg9wHZcWqHFM1SVB4/eqxZDgA+Hqzyr965SgpkKCjDJw2TgkUL6r6feg1SV6AfRwyQ4tlLyPItyyRV2lSSO1UeGT97vEyfMF1ixY4lA4b/twhVn6+/l0WzF/3nNcCCdfMlU9ZMet9RYdYgx858Ubp0aalevbp06NDBaBG5fv26igAIBEzqkWEooJw9e1afI06cOHpr66r0448/yoEDB2ThwoVGyzv+97//aezCunXrJGbMmPr+IA5y5MhhHBEybPja+nS1JYczCwoh9sCsQYQ4Lm5nEejYtIMMGzDMeCSSPXd26dSjkxZl8rx6XaLHiC4du3eQ3Wd26QYBMHTCr8bR3h9Y2HcfWcUaFWXnlp2yfMFyncBDBNiSOl1q8bzuaTwSFRt/Lf5LoseMru5I5mvsOLldfl8wRdJmSGscSUjgwKo8qh9j4g4gArCSj9iBwIoAALcjnA9XHzwfLAQAGY1Gjx6tFgG/QPAwrBQQAq1bt5Zz585JnTp1pEGDBvL7779rFqSQInLksBI3bnjJmTOK5M4d8A3n4Xw8DyGEEOIKuN0VLU+hvLJi4UoN1sUKxdMnT2XxnMUSM1ZMSZwsseT7LK/8vWq93Lt7T7ceHXqoC5FfZM+dTeIliCejh4yRyrUqG63vKFmuhE7+EYeAYOAfuveXBw8eSj7v93Dq2CnNYARhMWXM7/JN628kXNhwxpmEBI4MGTLoin3dunXVbx+TdojcoIgAk3Tp0unzIKUonhd1COrVqyfDhg2T5MmTG0f5TfTo0aVmzZry22+/ydq1a6VEiRKyevVqtQ6gLsKyZcu0WFpwkjGjh96eOPFMnj17o/ft5enTN3oeMJ+HEEIIcXbcTgi06NhC8npP9htXayJ50+aT/OkLyPHDx2TElOFanfWr775WP+ry+Svo9vTpM+n0rU8gr+nKY4LHFapXkJcvXkpF79u3GIdl8xYKxUoX1TiEUrlKS/yE8aR6vepSvGxxqdukjrSs11IKZigkS+YukZ9G/yThwlMIkKDTrl07FQTly5dXEQBh8LGJur2YYsDT01NX+4sUKSINGzY09toHgpARTDxv3jyZMWOGJE2aVEaOHClly5bV97pt2zbjSGuBMS9VqoiSMGF4OXnyudy+7X+GJRMcd+rUcz0P59sYBQkhhBCnxm0rC6N2wJVLVyR12tTqqmMLhMCFcxfhvK/uPUEF1gBM8mF1sOXWjVuadSj1J2nEw8MnZsHRYYyA4/q53rx5U/bu3asVhpcvXy7Pnj3TTD5z5sxRkWsVWLmvWrWqpgnFKj9cf6JFi2bsDRyIXzBjCXCbMmVKtRYgpiBjxozGUYEHMQJw7zHBCv+5cy8kSpSwkiKF35N772FALl584f3/vpE0aSJ6/0bfHbRv3xPGCBBiJ4wRIMRxcVshQAIHhYBjXMxQ7AuTfmwbN27UW+T89/Dw0FsEwyP3f/PmzeXMmTPyxx9/SNasWY2zA8+ePXukWbNmkj9/fvnqq69k4MCBOmmHq1DkyJGNo4LGjRs33ooCZBsyA4xxGz9+fOOogOFbCAD/JvofEwoUAoTYD4WAYwB30TVr1niPX/v0mnHkyBG1GhPHAgt3uF7nyZPH+7qVW8qVK+d9HUph7LUeGrkJcTKOHz8ulStXlpIlS8q3334rq1atUmsA0niioBdW51FcLEqUKGoNaN++vU6i4YuPSXZgQCEyuPNUq1ZN+vTpo4G+2bJlk++//14DgBGgbNUFJUGCBBpMPHXqVL1oIcMQipXBdahbt24aY2DFpOJDrkJ0BSKEuBKw4vbq1Usnlrt27ZKcOXPK+PHjdUEJYyk3x9rQLxMmTNB+Qn+h39B/wRVHx0scIU4GiochLefWrVvVTx8r8eHCvYsviRcvnlSsWFHvYyXuiy++kH/++UfChw+vrkJt2rSRLVu26IDjH3CR27Bhg56PST9W448dOyb169c3jhCtFwAxgEJiEAMfq2wcUPC/durUSYOJkZ0I4gbWB1gIBg8erCtbQQWZgNKnjySenq/kyJGnepshQyRtJ4QQZwbxXJ999pmcOnVKLQCTJ0/WDG6YXFrpMkqsA/0CSwD6Cf2FfkP/oR/Rn1ZD1yASIOga5FjmbUzUMTGGKMDEHdl5xo0b98EAXqzsY3UdloITJ06oW0+qVKk0gDdhwoRaeAwr/OfPn1czMgQAJv7YsFL/IQ4ePKhBxNmzZ9f3g88quHj8+PFb1yFssBiYrkP4X/zCL9cg38BV6NatV95CKvxHrQB0DSLEfugaFDrASlu8ePG3iRiIc4M+hEV806ZNloo4CgESICgEHOdiBr//4cOHS5MmTWTSpEm6Ko/J+pUrV3T1/2PA/IgJ/4ULF/QWKw2JEyd+Kw6wRY0a1Tj642B1HgMVVpogCkICiBUzwBivbwoC3NoGMNsjBAIChQAh9kMhEDrAjRO1XpYsWRKsizMkZMBvCAVDsUCHJB1WQSFAAgSFQOhfzBAMjAJeyMP/9ddfa4Eu+O/DhDhq1CiNBQgtEEwMEVCoUCHp3bu30RoyoLqxaSV49OjRW1FQtGhRCgFCQhEKgZAHxRpz5cqlQgALPMQ1gNUeQmD//v2WpQVnjAAhTsTRo0elS5cu6qsPawBEADAzArVo0UJvQ4u8efNqzABiEH766SejNWRAYFX37t1VCCBeAcHTyGxUpUoV4whCCHEPEAwMazFFgGuB/kS/on+tgkKAECfhr7/+UhEQJ04cFQFI4WmC1e8ff/zRshSeQaFAgQIqBhC/gIDe0ACfB14b/pQBLXhGCCHOzsqVK98uFBHXAv2K/rUKy4UATYCuC/qVfoahA9Q/RAAKeQ0ZMuS9VR5UEu7QoYPxKPRBdgO4CCH956+//mq0hjzIoGSb5YgQQtwBxIxZUTuGOB7oV/SvVVguBCJHiCrPXj42HhFXAv2K/iUhB+oDfPfddzJv3jwVAB+a7IcNG1Zixvxv5erQpkiRImoZQJXjYcOGGa2EEEKCEyzawTUyIMkeiPOAfkX/WoXlwcJzdo+RWNESS4q4GY0W4ipcvH1C7j26JvXzOc7Kc0gS0tYuZMGBCxAyAMHXHWkynRFUB0Y2odq1a0vnzp2N1pAFwcJWw2BhQuyDngIhDz9z18bK/rVcCBy/tl/+d2qFFM1Yy2ghrsLmEwulWPrKkilxLqPFvQjJgXXx4sUqApADGiIAcQHODAJ44SqEisGO5MJky+XLl9/WJ0A1RzMNKW4dzdpCiDPBSWnIw8/ctXFoIeDl9UYmbv5RUiXIKsnjpDdaibNz6c4pOX/jiLQq2tv7C+ieMeYhNbCOHDlS6wJAAIRUFqBbt26pP31wgnSnEANNmzaVdu3aGa2OyaFDh1QQQBjcvXv3rSiAMCOEBAxOSkMefuaujZX9GwzBwmGlavamcuTSVnn8/L7RSpwZ9CP6E/3qriIgJEDe565du2qALXzq7RUB8MXHoIANsQKoEoyJNirwfgwUEkNOYgT3Bpa4cePKxo0b5dmzZzJ27FjN4e8X5cuX15iB33//XSZMcOxaFKiQ/M0336h4GTRokFZt7tatm1SsWFEtNSj5TgghhDg7wTKrSxwrpZTIUE22nlwi95/cMlqJM4L+Qz+iP9GvJHjYtm2bZgXC5B0iACXh7QWT1LZt28rVq1fl+PHj0qxZMw3QrVy5snHEh9m+fbuueKPoTGDB62NlApWK4fZz584dY8/7VKpUSa0CEAIogOYMlCxZUsUAUpHis8VnjOxNjRs3lunTp+vnTgghhDgjwba8mztlUSmbuY5sO7VUjl7eLi9fvzD2EGcA/YV+Q/+hH9GfJHiYPXu2igAUxIIIyJgx4IH20aJF05SiSCOKifb8+fNl06ZNOtEHW7du1fz+OAY5iG/cuKHuL1ihR2Yi+O6DuXPnSsGCBfU4BPdeuHBB25G56JdfftH7oGfPnlrF2JZq1arpLVb+r1+/rvf9AgW+8LqjR4+WqVOnGq2OT+zYsaVu3boyceJEdRtC9eSlS71/H96iDRWekdfZykwOhBBCSHBjeYyAbx4+uyebTi6To1d3SwyPOBIjchyJHDE6XUwcEMR3PH3xUB48vSMPnt2RLEnySfEMVSW6RyzjCPfGap9LTBpHjBihqUExkWzUqJGxJ2DArQcb0ovaEj16dBk6dKhaBtKlS6eFtTCRRaEtWB7ggoSVbkz+Z82apUIEJcvhAoPn69Gjh2TKlElX7z///HNJmDChvl+A3PwpU6bU58IEeeHChfqcWCnHc9WsWVMiRYqkx34InAPRgtdD3ICzgsBiM54A3w8zwBjCixBCf/XQgJ+5a2Nl/wa7EDB5/uqZ3H50XW4/9pR7T27J6zevjT3EUQgXNpzEihJP4kZNKHGjJZJI4T2MPQRY+cM7ffq0TqrhVgIRULRo4C0uHxICqVKl0ud+8uSJjBs3Tlf38T/8888/kiVLFs2Sg+q/KPgF6wAsA5jQwjqAFf3evXurLzwmuvYIARQ5SZAggb5OihQp9LiPARGE1KKwOARWCDkKL168eCsIcAvrjBlkDCFGiLvCSWnIw8/ctbG0f72fiBBiB1b9XNavX+9VuXJlr06dOnmdO3fOaA08hQoV8urWrZvxyIfHjx97eXh4eG3atMnriy++0PfuPXDohvvY9u/f7zV9+nSvbNmy6TlPnz716tKli1esWLG8IkaM6JUkSRKvfPny6T7vib9X586d9T6oWbOmV/fu3fU+jsf/dOPGDX1ebyGg7fYye/Zsr/Tp03vNmjXLaHF+vAWe17Rp07waN27s5S3IvFq2bOk1d+5crzt37hhHBD/nz5/3qlSpklfYsGHf9jk3x9o++eQTL28xbPSY64L/lYQsjvSZP3r0yOvQoUNe169fN1pIULGyf+mfQ0gIAp94rNIjDSWyz2DVPjhYsGCBuh6hCJn3RF1vHzx4oBuCeVHk69NPPzWO9gG1C+AG9Ndff6kVAXELJlh9eP36nRXPjB2wAlgXEDPQv39/dVNyBRBj0aRJEw0mXrZsmbpY/fHHH2odQHwFLDHBDTI4od+8BR6uGAHa8N69hYyf+7i9vwG/2j+2wRrmqHU1CAkqSEuN2LEYMWJI/vz5JVGiRHrtu3jxonEEcQQoBAgJATAB/+GHHzRTDlxukCYUqT6tAsG/R48elQMHDshvv/0mrVu3lm+//VYLYWHgRVagHTt26GvChQiT73Dhwhln+/Dvv/9KsmTJJE+ePPp8mAiak3/EDvzvf//TFKeILcDr+MZ8Pv+yBn0IxC9gggwxABHjSsBlCuIPAgtuWPic8L8iqNp0ywoOPD09NTA8YsSIRgtxNOCGh98aIa4GhC7i0+BmikxrWJCAqyliyRBDRhyHEIsRIMTZCaxPHiboWP3HKjuKhGFlxEoKFy6s6UdN4P+PzDw//vjjW7GBugKIE0AAL3z6kcu/QoUK8ueff2qmIkzsMclHrMLt27f1nC+++EIz5CCguESJEroh1WjatGl1hQf+74gRQNVjTN6RZhP/2+7duwMUJ2ALVs3xfiCaatSoYbS6HhCGiCMwYwrwuZlBxhBjVoAA7FKlSunqfkDx71zPfbMkbAQEgofxaQgSXvLm5XNJmNsna5WzEtixAQTlXGfB3v+R3y3rCO3vFdItY7EDk//MmTMbrSIHDx5UayXGeVyPUK8FsWJ4v0jJPHDgQIkQIYJmr4NQRnFNXHdatmyplmMASxqSUkBcYIzCtQ5Z8n7++WddqAKwuuI1VqxYoVnzBgwYoJZxnGcuzvTq1Utj5XCtw3MAHIv3hGsYrq14r4h9w/vCNRwxdqjVg2t6aGJl/1IIEGIngfnhYRUYA0auXLlUBMBlJLTAysy1a9c0PWnkyJGN1v+C/+/kyZM62cdgjAEYg3WUKFHk1atXGtz8sQk+hASKjAWWKVOmyJgxY3SwN1OSujKwxJgBxrjImAHGuP1QP5ngIgYLDIrC+Sa4hMCGr8NIhEgRJGqMqPqbCCz4rj1+8FhePn8pJYc792UoKBdlKy/ojoq9/yO/W9YR2t8rXPewUORfKuk+ffroAhUswbiuoE4LssjBmo1rDjLfwcKNST1usVh17tw5tShg8QljZ6dOnWTVqlWa7AJudleuXNHnXrRokU7ocQxSO8M6gTo2yJyHjHi4FmKRC8BCi+eF9dSvDHuwpsPKjoUxFJXE+wtKgg8rsLJ/6RpESDAxfvx4XXWoXr26DiihKQIA/DORItS/ySUGFwgFiAAA6wEGZBA+fHi7VvmDIgLAl19+qQXScHHAao6rkyZNGmnVqpXWfoA7Fr4nuIiiPgEsI2YtCL+AZQZVkJGFKiSJE8tLnty/LwnjPJU0yZ8HeMN5OB/PQ4gt/G65BlhEwvjkH7BMY7IOizUm6riFdcAEtWtq1aqlNWc8PDx0kQoTdqzMY0OmOVgC7Im1g3V8zpw5urgBd9l8+fKpIOjevbteEzGGYvyNFy+eTvixGDNy5EjZuXPnW3EBaztERWiLAKuhECDEYuDzi3SYGNDgA96+fXtjD7EXTIxhCoYYwGqPu5A3b15dnYJZHWZruBBBFEFMwkSNC6Et5oUWAg+rZSFFsmQRJXnyiHL27HPx9HxltNoHjsd5OB/PQ4gt/G65BljgOHPmjK7U23Lv3j1104F1Gavytq6yOMc2ZgYuOACTeBTNRAIMrNZDNKBmTfz48TXBBRasfPPy5Uvjng+Y4OM5ACb+cBMCeG4scsHijfeLcRRxXGjHxB+Y7wlFJF0RCgFCLGTv3r2abQeDHFZ14atPAkebNm3URQViABNjdwIXJvjXoiAc/ncE/e7Zs0etBLCYYGULGTkAArmfPXumF6mQDDyNFSucZMzoIXfv+ky+Xr/2fwUW+3Ecjsd5OJ8Qv+B3y3+wyATXF0d2KUNcAN4f3B5tQWY4WAJgoYYLqm0GoRMnTmhsgIkZ42bL+fPn1fcfLkewFCArG9xJgW1mOxxnC8ZUW/xyPftYhr2guKs5MhQChFgEBmaIAKxqQATAZcMRwWBpO2A6MrCmoJgZXGR8X1DcBRRywyoYAqlhHUE8wMyZM1UUwFc1atSo2p8QAQhuw4pbSBExYhjJkMFDIkUKI8eOPZPHj98Ye/4L2rEfx+F4nEeIf/C79WEQPwSXGVgEkfbZEQUBrJtYCIOFEwG4COzFGA5LJ/ztMcnHqj5EAcTAw4cPZenSpTqu+QdcKM3ikxgX4RaE54bbKjKlIdYKt3jegGJvhj1Xg0KAEAtAxV1kNID/IVaw/TJVBhb4LWIlwveGgQorwQEFK8pIX+osIBgMK+L4XDdu3Gi0uidYmercubMsX75c/VffvHnzdkUNlY1xHxczBLiFFN5fRX/dOXy7a+B4QuyB3y2/QaY2BNXCTx7XnE8++cQhBQHi5NKnTy9FihTRWDNM8hHoizEdwAUUYxYsA1jwgKtP7dq1dR+ucbaY1z38v/DnT5o0qbr74H9G1h8skMB3H6+Bqu6mW9GH8Ov5IVwgUvAc+Iyx+ILrr2lN8MtC4QowaxAhdoKBwvfPBf6EWP2HSRNZgT62mhEYMBghoMk2RagJMhz4HtA+BtxtIFQgXpwJuMkgeBjWAVcL1goMMI3DAoDvIESACbI8IQVpgQIF9PvoV+afj/GxrEG5c/sEkPvmxQsv+fff5xIhQhidmF2+/EJevvSSNGkifXCldt++J8wa5OKXYXv/R3637AduK3ALhBgA8H/HZBoBtogpwqTVUb5XsFbCXRaCBRZMW+Cbj+snrBv2ppzGAtipU6c0MQUEgS0I7IVAwDgYWOzJsBfaWDluUAgQYie+f3iYmEMEYNCBCMCgERxACCD4GAOpb5CZAenMkG+5Y8eOWrMAk7hRo0Z5X1Bza9YimFIxMYTPvel3f//+fTWn7t+/X30y4WqCVG04H5YNmHJRDRf/F/L54zEuMFiRnjFjhgoJpPjEhBwBXMj8gEk68jPDNxQXJJyLVKJw79m8ebOacDGJRzaGwAJTLfJE43kwCXZXkOPazJSBCytWrPDdNC1EEAYIwkMWjpAUAgA/kStXXuhqbcKE4b0v1P6v1FIIhPEz/asrAXcLe/7HEvEOyw/Nrf1ufb3BdT9bpA+GLzsm07Zggoyxl9M714VCgJBQwPaHN3v2bBUBWHnBhNdMsRkcQAhgQo8VcVtgDcBEHIVOfvrpJ81BD99JrAytXr1afTERRIUNqyfw1cTqMSbt06dP1xzOmEzCzxzH4v9AwCmKp+AY+KPDzxJBV/DtRKYGFCHDxB45/jH5hC8l8jujGAveH1KtQYTAvAqzMHxZ4bOO14LoQMEXVJlEHEVgwXMgrzTEgG1gmbsA8QfXLogz5LrGKhpWBrFB8CHgDfg3mf8YQRECJljBtcdfm0IgTLBVl3YUEC9lz/94emx2KV3E2u9WvOau+dnCLRB58c0FIlgAkGITCyTIj4+FIE7vXBcKAUJCAfzwsOIKlxpkbcDk3AxaCk4gBFq0aKEr9LbAEoD6BEiTlidPHl0BwuoQVvUxOYTJFMHLZjwAUrZhNR4FXJBxBvmQAYJxY8aMqRN3CBxUEMYqM4KuEJAGIYDnhGUA58GEi6Au+GXiNXExQuEv+HsCXPQxQYeYgCkYefDNCTusBUgLCtERFCB+MBGGGEA+aPI+oS0E7IVCwLoLuqNi7//I75b94BrUvHlzvSZBAMAPH9cDM0mFO3yv3Bkr+5fBwoQEAEysseoNa0BIiAATrNKjVLvthkEfoPgXXIfgG4lAYIgAuIbAx9HMgwywKg+/cWAbSIWJPdx7APxNke0BwgBCxxYET5l567EfFyCYpLE6bytSzNdATmYAKwNWq7AdO3ZMkNEhqMCCAXGBAGKkbCWEEHcB1oB69erpeI3FHSy2wArsqJnqfIPrDSr+EseAQoAQO0AuYYBJN0SAIwWrInUkCpfBLxQZDjDRRql0TPbNiohg8uTJcvDgQb3vO6cyVhZwHnzKscGysGXLFmOvD36lUMPzoB3VHk3MkvKmiwqsCWZe5t27d2uBLCtALAMsIRADBw4cMFoJIcS1WbhwoeTKlUvHc2cSAAgahgUa2YGQTShlypRqsbYqnTWs3KhPEFhg/YbFGpnX4EqLa5c7QCFAyEeYOnWqWgIACpnYU87cauD+g5Vv3xtW/iFMUHEWk2xYDsxKxsjRjPeOgDKUYe/QoYPu/xDw5cfzIQ4AGRfwvwKsPvkHVuYRh4A0cAjkNSsBwxoBcQIBArEASwoElO/quEEBYgAXQYgBBCQSQoirg9irffv2OY0AMEF8F2IaYNFGrBNiGRBjhuuUFSBBAgqWBRa4Q+L6BJcrLG7BHfZj1z9XgEKAkA+AFWz4oGMiC7caEFp5hOGbD5cd3xuqzWIyjPeJAFz4+WO1CD78EARYnYdwQe7m3r17S5IkSdS3EJtvkHsZwacYTOEGhNdEQPKHfMzN58BAjixBOBauScgOAosEgpbNYGVkGSpXrpzGFQQla5Bv0B/4/+GaBDHgLis4hBD3xco6NSEJFopwnYAlAFnqkO0OMXe4fgDEnKGAF65TcClFnBrAIheSVWCMR+Y6XENwXTbBfVzjkBTDdJmF6yqsz8jqh2rBuDYCWL9xDCwS2PCcaIMrKyb/qFSMGClcL9GG1KauDoOFCfEDTCix0g4fTPjKIyDVGYOv8H5h7kRGGd/uQB8CmYUwicfFBhYCpBqFKfdDwAIANyQIDgStIYgZ1gikKgX4DLHKkjhx4iCZbf0Dgz4yGcHvFKLId2C1OxKcwcJp0wY+R7dvUBCKwcKufRm293/kd8s6HPF7BTcgTPzLly+vlme44NjGsX0oyxzGdUz+ISJQjAzXZ7QjLTWAaChWrJhmTMJqPlyQPpQ1D4XXUJcHyTMgOJDhDsfiOo+YN7gpIeYCFnFYLiAO8Fk6Glb2L4UAIb7466+/VATABxODgzl5dYcLdmBAfQGstiBrEEQHslnAUhGUFKGBAYKjb9++6goFMYDVHncmuITAkcmVxeuNT3C5FYQJG0mytlhhPHJOgjI2uMO4Yu//yO+WdTji9wourhMnTlSrNVJPYwEHcV64ZmAC/qEscxALEAKY/KNeD1xdMT4hrg2LVUibDNdQ1FcxhcCHsubBSoDMeKbrKxaQ1q5dq68LYAXAtf/hw4dqZUDdHEcsKmZp/3o/ESHEYNy4cV7eE0ivMWPGGC3v4M/Fb7wHc6+ZM2d6tW7d2st7Iu71zz//GHtCngcPHnh5izevhg0benkP6Eare+I9ifeaNm2a8ShgBOVcdyQoY4M7jCscO0MeR/vMvSf6Xrdu3fJ68+aNPn769KleNxIkSOBVq1Ytr1WrVul7xuY9ydUN93v06OG1bt06r9ixY+t5AM+VJEkSr6lTp3qNHTvWK1u2bNq+YsUKr/jx43s9f/5cz1+9erW22xI9evT3XiNt2rTGXh/w/HhN7MN7dETw3qyCMQKEeIMVBKTgRBVeZOAxA27Jx0FgMXw9YRXA6gp8OEML+J0iZgBByrAK2GYzcjfgCmamhSWOCfrHr2xchLgaiDmDvz4q8gO4keK6gQ2r8B/LMuc9addbgNgwxLPBn3/RokXSsGFDY48P/mXNw+sgLsB8Dbz2nDlzZPny5fLZZ5/psXh+uCnBFen06dPa5srQNYi4Pci+A79FpAZFoasPZWLAQMSfi3Nw584ddRN69OiRCgLUVnA3ELuBCyRiNgI62cRvAhmm3PFzCwyYjMCNIKDABxlB+ijk58pw7Ax5HPEzxyIRYsXwfcf4gkk2qvMjBm/06NEaZ9a4cWOtlA/BUKVKFZ3s439B3QQEE5tAJKCIGv7Hs2fPahwc0oearkFw68U4htfCZB9xCYg16NGjh4oNxAoApDOF6xFeE27AmAsgqQXSstauXVvdkfAbdTSs7F8KAeLW4AKOHz58BiEC/MvGwIuZc3Hz5k0VA/AhhRiAz6i7YaaV5ffWMcF3Eil1sQjhynDsDHkc8TNHADAsABiXkJAC4No7ffp0XalHtjsIAYzZiCdAwomxY8dqHR8IAVgVbMGKPeIDEDMAIAQwiUfsACb/CEiGVRiFMBEvgExAsBKgGr6ZYQ4iANmMkLkIxyA+EAsnEAXIgodrhyNCIUCIBUAAwFyIlQP84D8GL2bOB9KnQgyg3zCgYzWKEBKycOwMeRz1M0dQMFbm4ZYD67vvbHZWZpnD/+9X1jzUBoA1AvsRfGwLrAnYEKiMz9BRoRAgJAig8BVEAPIDQwTYm9eeFzPnBAVsIAZwIYAYgEmaEBJycOwMefiZuzYUAoQEkq1bt6oIQNASREBAfP84sDovyB8NMRAlShQVAwgmJoSEDBw7Qx5+5q6Nlf3LrEHEbZg1a5b6ACJHMPwAHTEAiAQPMA0jmxByQ0MIoLw9IYQQ4u7QIkBcHqTow8R/wYIFGhDcqFEjY0/A4AqL8wPfVFgGYBGCIEAQGSEkeOHYGfLwM3dtrOxfCgHi0iAgCCIAQaMQAcjQEVg4sLoG+E5ADKC8PMRA1KhRjT2EkOCAY2fIw8/ctbGyf+kaRFwWpBxDHACKi6CceFBEAHEdUMYebkKIG0BhmadPnxp7iJXAEgcLDCGEEMeFQoC4JFOnTlURULJkSRUBKFRCiAlSxkEMYKIKMYC81cQakHoPRXrix48v6dOnl5QpU0rXrl01baAVIFd4UNIKvnr1SvsclUObNWv2trAQIYS4IxQCxKW4f/++unugPgAmeggORrlwQnyDPNH4jiBnNSaGVk1U3Z2ff/5ZU7aiai6CsgcNGiS//fabinMryJ8/v8ydO9d4FHBQVGjixIlStmxZyZo1q1YP3bdvn7GXEELcC86QiMuAiQcm/qgPgLgAXOAJ8Q9MBCEG8N2BGCBBB1U6UfETloDo0aNrJVGk7EXlTnD79m2pX7++xmgUKlRI1q1bp+2gWLFiMnr0aO2XvHnzqqA3wf2aNWvKqVOnZPDgwdr27Nkzadu2rQZ/58iRQ8aPH6/t8J3FMbBIYEPfmv60eH/9+vWT7t27q6UC+1esWKH7CHEF8F2HDzlxXazsXwYLE5cA7gKYbCA1KFyCglqR0C8YfOW6YEUYk8M8efJoIDEJPJhc47dYvnx5LfFfvHhxLeNvApece/fuSZ8+fWT//v1qQTh+/LikSZNGYseOrZP71q1bq2C4cOGCbN68Wc+DaIBQKFy4sDRv3lxdkHr16iVTpkzRDQKhZ8+eGvsBdx9M9AcMGKCCA8+HYzE2wDUoXLhwcvDgQRUF3333nWzfvl0KFCigr0Osh2NnyBM5cmS5desWkyG4II8fP9bFD6vi20JECNx9+EyOnb8rF64/kIuej+T67Ufy+g0HBUcjXNgwkihuNEmRMJqkTBRDPk0VW2JH9zD2Oi7jxo3TiUenTp2kffv2Rqv18GLm2uzZs0dFACaccB8hgePly5fqerNw4ULZsWOHTuwhsObNm6fuVwjWxsS7YMGCejxctFq2bKlZvSAEMFmHlWbTpk1SqlQp8fT01BiOZMmSyeHDh1UcmEIgadKkagWE+ACY+KNSOKwEJUqU0PggAJG3du1afV0TJA/YsmWLPi+sEogbIcEDx86Qx7SQUeC6Hjt37pQ2bdroYoYVBKsQePHqtazedVG2H74qqZLGlYTek8wEcaJL3FhRddJJHAuIs9v3HsuNOw/F01usnb9yWwplSyLl86eQiOHDGUc5DpgIwAVo9+7dOomoUqWKsSd44MXM9cEACzGAVWysLpOA8ebNG40LiBMnjv5eIAIWLVqkk/siRYpIixYt1EoAsB/gN9WjRw+NJYAQmD9/vloN8FwoBDdw4EB58uSJTJgwQQ4dOqTWPwiBy5cvi4eHh6xatUrKlSunz2WC+hAoHmf7GmnTppUzZ87oYxNYDypWrKiuTAwaDj44doY8sIDh9zd06FCjhbgKWPjA2Iex0QqCLUbg4ZMXMnT2Ablw/bF8XjG3lMr/iWRJl9hbCESjCHBQ0C/oH/QT+gv9hv5DP6I/HYm9e/fq5AL1AbDqF9wigLgHWD3DajRSz5p+6MR+4IoAk/W2bdv0MS5WiBHAhkl4rFixtP3o0aPy4MED3SDksYJvYgb347Zu3bqybNkyFRMNGzbUdhOkBU6dOrVcuXLFaPGJI8AqGV4HcQHma+C158yZoxMjrPzDJQlAaFStWlVrSxDiSmDFePr06XLt2jWjhbgC6E/0K/rXKoJFCLx+/UYmLD0qKRLHkfKFM0kUjwjGHuJMoN/Qf+hH9Cf61REwVxixigcRkD17dmMPIUHns88+U6sA/Md//fVXo5XYQ4IECSRTpkz6+cFiBzDJhltOzpw5NVYgbty4OmGHnz4sMHDRQeYmv0AaUlgAECeA+77BJB7ZiGAdgCtRhw4d9D3AooMVfsQZYGvcuLG6K0GYYPL/008/6Tl4XbgwIXiZEFcC33NMFrHRGuMaoB/NPkX/WkWwCIFVOy9I+AgRJF/WlEYLcWbQj+hP9Gtog1gATDKQ/xtpQuFKQIjVwI0FloHly5er+xmxnxkzZugqPbIEIWsQAvjhloPPMVq0aG+De/HbhUvPF198oX79wHTlMcmXL59e8BC3YXvhM49DTBCsgqgTgoxCiO1AcDDcjOBahNfFBtcixA+Ab775RmMCcI4pThCjQIirgYD8mzdv6rWSOD/oR/Qn+tVKLI8RuPvwufw8Y698XiGXRI0c0Wglzs7jpy9k9qr90qNRHokdPZLRGnJcvHhRRQBW8BAPYE4cQhL6ubofcBGC8KxTp4507tzZaCUfA0HBKNYGtxxY7MKHD2/s8QETc/yWEydOHOQMX/hNnj9/XoWC7etACMAagf2+A4Hx+nAXQqYiiBMSvHDsDD0QbI8MXrCgjxkz5m0aX+I8oA9h7cSYtXr1asv70HIhsGzbObn98JUUzpnGaCGuwtYD/0rc6OGl6mepjZaQYevWrSoCUKkUIiBDhgzGnpCFFzP3BKvHEAPwc8dgTAgJGBw7QxcIXwSWTpo0Sd3pUKMjd+7cki1bNo21IY4FsqShtg1iIZHNDnFSsFoiADxKlCjGUdZhuRD46c+9UiRXOkkUL7rRQlyF67ceypb9Z+S7xnmMluBn1qxZKgJq1KihIgC5kUMLXszcF6zCmC5ptoGthJCPw7HTMYBlHbFPqJuCSSYmm5h0EscC4gxFFZF2GYINLpQpUqQw9lqP5ULg61GbpWWtAhLBAdNNkqDx8tVrmbRwpwzvVNRoCT6Q3QMCYMGCBRoY7DtjSGjAi5l7g6BViAGszKBAFSHEPjh2EuK4WB4sjMwyFAGuCfoV/RvcwzkqhKJIENIKIsDQEUQAIZUqVdIAYuSzR9YbQgghxNmxXAhQ87s26N/grALx999/qwiAaQwiANlbCHEU4F8LMTB69GhNW0kIIYQ4M8GSPpSQwPD777+rCChZsqSKgJQpmX6WOB7Vq1dXMYCKndOmTTNaCSGEEOeDQoCEOvfv35d+/fqpEMAEC2IAPqWEOCq1atXS7yqqDyNvPiGEEOKMUAiQUAVZCxAMjLgAVAmuXbu2sYcQx6Zu3boqBlCoavbs2UYrIYQQ4jxQCJBQA1lYIAISJEigIgBVRAlxJurXr69ioH///jJ37lyjlRBCCHEOKARIqDBu3DgVATVr1pSff/45yNVFCQktkNWqZ8+eKgaQ7pYQQghxFigESIiCUtmYNGHCBCtAu3btjD2EOC9NmjSRbt26qRhYvHix0UoIIYQ4NhQCJMRAqWwEAl+/fl2zAlWuXNnYQ4jzg6rDnTt3VjGAkvCEEEKIo0MhEARevXxp3CMfY+HChSoC0qVLpyIgW7Zsxh5CXIcvv/xS2rZtKz/88IOsWLHCaCWEEEIcE5cXAq0aVZX0icK/3QpmSSL9e3aSO7dvGkcEjmNHDkru9HGNR8Q/MPFHelCsmGKCFCtWLGMPIa5Hq1atpGXLlmoZWLVqldFKCCGEOB4uLwTeeL2R6nUaybZDl2TrwYsy9vcFsnThTPlzyljjCBJcXLx4UQOCUS0Y8QBYLSXEHWjTpo00bdpUxcDatWuNVkIIIcSxcAvXII/IUSR+wsSSIFESyZWvkJStWEO2bFyj+xpWL+EtCsZI5eI5ZM/OLXLx/FlpWruM5EwXWyoUySrrV7/z9V26YKZUKZFTqpbKLYvmvqsoOvSn3jL5t1+NR96PB/aS6ZNH6/3nz59J32/bS75MCfW82dMmaLuXl5dMHDNEyhbKpNuYoT9qG/D9npyRrVu3qgh49uyZioAyZcoYewhxD9q3by+ff/65igGIYUIIIcTRcAshAF/+p08ey+NHD2X3js2y2VsEFC5eVvedPH5EhvTvIQWLlJSUqdJK68bV5fHjRzJy0hypVL2edGxZT86dPakCoXvHZpI9d35p0LS1rFo2X88Hly+eE89rV41HIpdsHo8dNlDW/bVEhoyeKjXqNpaBfbqoW9K8GZNlwqjB0vjL9tK110AVDn9MHKnn2L6n1Gk+0TZnYtasWSoC8uTJoyIgQ4YMxh5C3ItOnTppkTyIgY0bNxqthBBCiGPgFkJgweypkj1NTF3lb1a3nOQtUETqNW5h7BVp3amH9BowTC5fuiBnTx+XYeNmSNES5aRD196SPGUaWbdqqWzZtFbSpMsoP/46Xuo3aSXNWnc2zvYfWA5atOsqxUtXlOatv5K2X33nLSr+lVnTxkvtz5t7C4EOUq5STRUEq5e/y0Fuvqd4CZwnvz5W/1ETADEBX331laYJjRw5srGXEPcEv4Vq1aqpGNi8ebPRSgghhIQ+biEEKlarK2u2/aPb9sOXZcSEWZI4SXJjr0iuvAX1Fiv7sWLHlRSp0upjkMJbCNy+eUN2bt349jiQM8+7+7559conm9DLly/kpuc1+SRjFn0M2nfpJTly51cxMHXCCMmQOIJuo3/tL7dvvQtgtn0tZ+DUqVNqBUCKUFgBUGSJEOJD165dpUKFChosD7c5QgghxBFwCyEQI2YsSZ02g26Y6PsmbFifj+GTDJnl4YN76kJk8u+Zk5IjTwFvQZBWrl+7bLSKnDt7yrgnEiZMGHn9+rXxSOTqpQt6GyFCREmWIrV4Xr+ij8H8mVPk+NFDEiNGLOnc/Qc5cOaubn/vPKkCxcR8T84A/J8hAjw8PFQEFClSxNhDCDHp3r27lC5dWi0DO3bsMFoJIYSQ0MMthIC9ZMqSXRIkTCKTfxsqL148l/27t8vVyxekUNFSUqp8Vdnn/RjxBbduesqSeX8aZ4laF/bs2CzXrl6SLRvXyrGjB409IqXKVZGFc/5QEbFr+//kh56dJG68+JL/s2KybtViuXf3tm7dOjSVOX9OMs5yHn7//XetD4AJDkRAypQpjT2EEN/AXa5YsWIqBnbv3m20EkIIIaGDywuBMN5//oHVfFs6dvtes/kgy0+D6sWlfZc+EjNmbHXnyVewqLT4vJIUzZlSPOD7bpxbtVYD74n+FSmeO430/66TCgqThs3byq0bnlIiT1rp8EVtafd1L81e1PW7gfLmjZeUyp9et6dPn8pX3/6g5/h+T47IvXv3tDYAhEDfvn3VIuAM75uQ0KZXr15SsGBBFQN79+41WgkhJHhBSu9JkyZpemMk84gUKZJet7k51oZ+Qf+gn9Bf6LfgJIyXmbPSIjoO3ySdGji3a8ijhw/Uhz95ytQSPUZMo9WHC+fOiIdHZEmYOKnR4sPrV6/E0/OqJEmawmh5Bz7iK5fOq+UgXPjwRqt4C4E33s93WvcjENkZGDVri7QsFUdGjBihwcEQAHnz5jX2ujb4gVr8cyFuDIT0/v37NW4gZ86cRishrgfHztDlyZMnMnDgQJ1UVq1aVa/ZmGhmzZpVIkaMaBxFHIUXL17IkSNHdKEIcZfLli3TIpVYRIoSJYpxlHVQCJAA8c33w+Tx2TU6iEAEJEyY0Njj+vBiRqwECwGwph09elTFQLZs2Yw9hLgWHDtDD09PTylfvrykS5dOxowZ41bXbFcBfdihQwc5c+aMrF692vI+ZIwACRD3bl6SmjVrappQDiiEBB4kBPj+++8lU6ZM6iYEQUAIIVaBleUaNWpo+uL58+fzmu2koN/Qf+hH9Cf61UooBEiAyPJZNWnXrp3xiBASFCJEiKBiIG3atCoGjh8/buwhhJCgMWDAAIkfP75aHonzg35Ef6JfrcSthQD8/VF1mNhP2LDhjHuEECtA2l2IAWTcghhATQ5CCAkKly5dkvHjx+sG1yzi/KAfzT5F/1qFWwqBscMGaqae8oUzS56M8aVNk+paTMwqsqeOIXt2bjEeEUKI/0SNGlXFQOLEiVUMwBeUEEICCyaLTZo00TGFuA7oT/Qr+tcq3E4IHNi7U8aPHCS/jP5Djpx/JJNnrdC6AN93t87dZcKfSyV9pnfVhAkh5GNEjx5dxUDcuHFVDJw7Z93iBCHEvVi5cqXUqVPHeERcCfQr+tcq3E4IbN20VqJFjyGfZssp4SNEkDz5C0vvH0dI3gI+mY6Q2QB1BMoWyqTbmKE/vs120LB6CflzyhipXDyH9P22vXzV6nNtByg8Vq10brl4/qyMHfajXL3kk/d16YKZUrpABvksWzLp3bW1PHv2VNv37domdSoW0vZOLerJ7Vs3tJ0Q4r7EihVLxUDMmDFVDAR3/mhCiGty8uRJTQ9KXA/0K/rXKtxOCHxWtLRW8q1VroCMGNxXdm7dqAXA2n71ne6fN2OyTBg1WBp/2V669hoo0yePlj8mjtR9J48fkSH9e0jBIiWlwGfFZdXyBXLT85ruW/vXEnny+LGkSJVWDu3fLQ8f3pdjRw5K947NpG6jL6X/kN9kh/drLV84S25cvyrN65WXDJmyypDRf8j9+3elbdMa+jyEEPcGFgGIgciRI6sYuHLlirGHEEI+DhYvnz9/ri6HxPVAv6J/rcLthECufIVk6rw1kuHTrDL3z0nSpHYZKZYrtaxcMlf3z5o2Xmp/3txbCHSQcpVqqiBY7T3hN2ndqYf0GjBMynrvixsvgWxYu0Lb16xcJFVqvrMQgMXzpku2nHmlVYfuUqp8VekzcIS8ePFc22PHiScDfh0vnxUrrRaJg/t2iec1XvAJIaKZISAGwoULpzUGrl3zWXAghJCPwboNro+V/et2QuDhg/uSM08BGTZuhuw4elXmrdwmGTJlkW87faFuO6goPHXCCMmQOIJuo3/tL7dv3TTO9hYSeQvqLS7QFarWkb9XL9MYgwN7dkhVX0IA1YQ/yZDZeCRSvHRFadi8nVw4d1auXb0kGZNE1NeoVMynkJDt6xBC3JtEiRKpGMCAD8vAjRt0HySEEGItbicE4ILzy4CexiORHLnzy1c9BuhK/fWrlyVGjFjSufsPcuDMXd3+3nlSRkyYZRzt/YGFffeRVa5RX3Zs2SDLFsyUT7PmlFRp0xt7fEiTLqN4Xn+3yr9/93ZZsXiOxIgZS92RzNfYc/KmTF+wTtJlyGQcSQghIkmTJlUxADMwxMDt27eNPYQQQkjQcTshkK9QMVm2cJYG62Kl7emTx7Jwzh8SM1YcSZIsheT/rJisW7VY4wiwdevQVOb8Ock4+79ARMRPkEhGDuknVWs1MFrfUbJcFdnnPflHHAKCgZGZ6MGDe/oeTh47ohmMwngLi8ljfpWvWjeQcMzRTwjxRfLkyVUMPHz4UN2E7t69a+whhBBCgobbCYFWHbvrZP/zasUkR9pYkjt9XDl2eL+MnjJPIkaMJF2/Gyhv3nhpnQFsT58+la++/UHP9V2UA48rVa+n1oTK3rcm5nEQCnAHMuMQ4idMJDXrNZWSZStL/SatNGA4b4b4smjuNBkyeqqECx9ezyOEEFtSpUqlYgAiAJaBBw8eGHs+zIULF6Ry5crqxogxiZvjbenTp5f58+cbPUYIISFPGC+LI0o6Dt8knRr4pOJ0ZODXf+XSBUmdNr266tjy5s0buXDutFoM4N4TVGANCO89yYfVwZZbN67LDc/rkuaTDOLhEdlodWxGzdoio78ubjxyL3DhtvjnQkiAOH36tJaZT5IkiVoHfGcFwdhlui92795djh8/LgsXLpSIESNqm700bdpUSpUqpYVryMcJ7Ngwa9Ys+frrr8XT09NocU04doY8/MxdGyv71+0sAibx4ieU7LnyvScCAC6kqdNmsEQEAGQX8i0CQLwEieTTrDmcRgQQQkKXTz75RC0DKC8PywAslrag2iTEAMDkEoVnAioCSMjRoEEDBoETQkIVtxUChBDijGTMmFHFwNmzZ1UMvHjxwtgj0r59e1m/fr3xiBBCCPEfCgFCCHEyMmfOrC5CqC4JMfD69WvZs2eP7luyZIneEkKII/D48WM5fPiwy7vAOSsUAoQQ4oSgzDwsA0eOHFExMG3aNA0MRvApfYMJIaHNrVu3pFq1ahIjRgzJnz+/1kYpXry4XLx40TiCOAIUAoQQ4qTkyJFDxcC2bdvk999/V8sA4gb2799vHEEIISEPFiOQtez69euatADjEhYtYB2oWbOmcRRxBNw2axAJHMwaxJVW4hjALQgZgWbOnKnxAgCFxyJEiCBfffWVmuEDm/mHWYMCRlDGBncYV+z9H3u2HSThwoWXiJEiGC2B58Xzl97C+JUMGveugKg7Edrfq7Vr10r58uV18g9XRpODBw/K2LFjZdiwYRIpUiT55ptvZN68efp+GzduLAMHDtQxrGDBghpMP2nSJE2b3LJlS130AP369dOMWxAXGKN+/PFH2bRpk/z888+yZs0aPWbDhg36GitWrJCtW7fKgAEDdOEE58GaimxdvXr1ksuXL8sXX3yhzwFwLN4T0i8XLlxY32uCBAn0fT158kT++ecfSZ06tQwfPlyPDy2s7F9aBAghxMlAQHDRokX1QgZBAAGADbx8+VIvdoQ4G3u2HfLeDsqpI+fl4unrgd5wPp4Hz0dCB0yYMYG2FQEAk3FM7qNHj66Tc4xVmOCjDVZNTN7BoUOHdHKOWKiqVavqLSbtW7Zs0ck5jodL5KhRo9Qieu/ePTl69KieC/D42LFjev/+/fsqTPCeMKGHGClbtqxaJjp16qRt58+fl6tXr2o7hML06dNVgMC1CcCd6aefftLxtUaNGtrmKlAIEEKIk4HVeqz4o65Anz59JEWKFFpTwEwViosgNkKcjbRp08rt27dV2MaJE0fixo1r94bjcR7Ox/OQ0AOTaMQG+Acm/lh9b9eunboR4RbWAZNffvlFatWqJaNHjxYPDw9d9Dh37pyuzGNr1KiRWgJQcPFjIC38nDlz1IKAOIV8+fJJjx49tN5K5MiRdSxFnFW8ePFk4sSJUqZMGRk5cqTs3LlTrly5os+RJUsWWblypS7CuBKWC4H/1t4lrgb617WN2IQ4D+nSpdOVMpixd+zYIZ07d9ZVOPjhmu5ChDgTWCnOlCmTPHr0SCdnWIG1BxyH43EezsfzuCr4Hx2dNGnSyJkzZ+TmzZtGiw9YoIAlAKvv165d0yBiE5xjW1cDLjgAk/ho0aKpyGvYsKGKBlgJ4sePLxMmTJDYsWPrcbb4/t5ggo/nAJj4wzIB8Nwo+Prq1St9v6jRgqQLaMfEH5jvqVChQnrralguBMKFCysvX702HhGraVumoeWbvaBf0b8Ue4Q4HjBnDxkyRIPzsIr1sdU4QhwV+IinT59eJ/MINH348KGxx2+wH8fheJyH812Z5cuXS7ly5VT4OCpwCYIP+99//220+DB37ly1BCCDEKw2thmETpw4obEBJpiM+wYuPHAfwjgHS8GyZctkypQpug/JEkxwnC2Y7NsCH3vfxIoVSwXCgwcPdLtz5466YX766ae6369zXAHLhUD82FHk9r0nxiMSHMBEBjNozpw5JXfu3AHecB7OhyoOCOhX9C8hxHHBxQqrbKhCTIgzkzhxYl0VhjsIVpB9B0fiMdqxH8fheHegbt266vMO0YP7jigI8ubNK1WqVJGePXtqAC4CeyEKENfUunVrneRjVR+iAGIAYm7p0qXqo+8fSI8MlyAA6wDcgvDccI+Eu+S6dev0Fs8bUOAyhHoHsK7i/WFhpX79+mohcGUsFwJZ0sSVM5f+awoi1gKzJ4B6xg8gIOB4rJwAVCgNCOhX9C8hhBASEnzIVcidXIF8g4kp/NmjRIkiixcvluzZszukIBg/fryKlSJFiuh7tQ3QBa1atVIRAMtAwoQJ1dWndu3aus/36jseY4OPP/7PpEmTqrsPxCCy/mTLlk199/EaGTJkeOtW9CH8en4IF4gUPAfiTf744w/9nE1rgl8WClfA8vShdx8+l59n7JXPK+SSqJF9AteIdcCVB6v6AAFRiKJPliyZrvB/DL+O37dvn4xbN1Pv+8fjpy9k9qr90qNRHokdPZLR6l5goLD450JIsBGUFKBMHxowgjI24Nx///3XeOSawPfbnv+xeeWukj/fO9cQ38CnHD7nmACiWBUmjv5ZAXbt3iFTVww1HrkWcINBekuzWi8mq3CJgv88su1gMuwo1yv42MNyAyslkhrYAt98LGrClRGr+vbw7NkzOXXqlM5jIAhsQWAvvh9ITRpY4HaE7xoWSwPqORFSWDkfsVwIgBXbzsmZa4+kUhEfvypiHbZCAGCFHwMsflz4EfmlWN+8eaOqG1H2UMm2X2x7hcDKLcckXeJoUvkz/1W2K0MhQJwJCoGQI6hC4GOrl86O6brzMSI8iyXVy31uPPIbuJCYC1ofswIsWTNbXnq4bvYsiCHMATCZtgXXeLTzeuW6OLwQeP36jQyfd1ASx48l+bKmNFqJFfgWAsC/if7HhII9QmD3kQty7eY9+bpuDg0WdlcoBIgzQSEQcgRVCLj6uGLv/1g6W/33rm9BAde3vw/PMR65FsiNDzFkZhBCRhysqiPXPXznYR3g9cp1sXLcCJZZHSaLratlkYvX7sjqrcflyTP70n+RwIHJPQJm4GMHcxlcgABu8RjR+dgfUP829Bv6D/2I/nRnEUAIIYQ4Cr/++qsu9EEAJEmSRMaMGaNphCHifWfIIcQ/gm1mFz1KROn6eU5JmSiqzP5rn6zfdVqOnrkmN+48ktdvqFKDA/jLITAH/m0o6w3fQTy2J34AoF/QP+gn9Bf6Df2HfkR/EkIIISR0gTUAcQDwBnBGAYB6AK4eF+NMBItrkG/uPnwmx87flQvXH8hFz0dy/TbFQGA5PnX8R02nGBzgO4iAmY9ZAWA6zdS8jd4PFzaMJIobTVIkjOYtAGLIp6liS+zoHrqPuIcJn7gOdA0KOega5D90DbKW2bNn62QaaTQ/NPl3xO8VgoZR9BDVeeHKjEBfZAlCmk4rUnTieb/88ktdDA0KiLnA+6pTp466WTkiVvZviAgBYh0cKEMPd7hgE9eBQiDkCMrY4A7jir3/I69v1uGI36suXbpon0yfPl3Tc6IwGibuKAzWokUL46jAgwXQf/75R4oVK2a0BI7evXvLwIEDtXDZ119/bbQ6Flb2L52+CSHEBcFKIVYNieOC/nH1YkWEmKxZs0bSpUsnKVOm1IxPDRo0kBEjRmh8I0BcIwp4IeahUKFCWhwM7N69W9Oi9u/fX6v8lilTRiZPnqz7AO6jPgFiIgcPHqxtSDHatm1b9YxAtWDUNACYPOMYuE1jw3PaTqi3bNkis2bN0krt7gItAk4GV0xCD3dYuSOuw6pVq9SsXbFixQBPNvfu3SsJEiSwO6+3u7No0SKdiAQUxHIh3ztcPVyZgFgEEidJZDwKOteuXqdFwIHo2rWrTvzLly8vFSpU0Eq+WbJkMfZ693/p0nLv3j3p06eP7N+/X37++WctgIp4Akz+ISJQjOzo0aPavnnzZj0PogFWANRVaN68ubogoYLxlClTdINAQIXjS5cuaQG27t27y4ABA1RwoIAYjsXKP2IvIBomTZokffv2Vfcgd7AIUAg4GRQCoQeFAHE2Tp48qatp/N46JvCRRjVUpHp0ZewdO9cu85nYWUnZqkWNe+6FI16vUA164sSJsnDhQtmxY4eu2ufJk0fmzZunBdJQcGz79u1SsKBPUbnMmTNLy5YtVSxACGDyjyJfmzZtUtdFJER58eKFplE9fPiwBk2bQgC/LbgiQXwATPzxHLASlChRQt1+QL9+/WTt2rX6urBQIAUrrAefffYZhQBxTCgEQg8KAUIICTgcO0MeR/vMkcTk7t27GhuA9wYRAEsaJtpFihTRGAFYCQD2A7z/Hj166KS/bt26cufOHW3HcyVPnlz9+BF0PGHCBDl06JAGC0MIoOCch4eHWkXLlSun55hgoo+idLavkTZtWhk+fLjUqlVLZs6cqW5LEBCwMLRp00Zy5sypxzoSVvYvYwQIIYQQQkiwYWYy3LZtmz7GRB0r8NjOnDkjsWLF0na4/Tx48EA3WDOxgg/MiTtANkQIg2XLlqmY8J3ZJ2LEiFpc9cqVK0aLTxzBwYMH9XUQF2C+Bl57zpw56pKEcxAojMxGcEfCc0+dOtV4BteFFgEnAxYBq6FFwD6sVOCEEOIucOwMeRzxM0egb+LEiTUmBjFIp0+flurVq0u+fPk0cxAKnzZu3FirI0MwVKlSRSf7+F/q1av3tlgqgEiAJQH/49mzZ9VCYFoE4BoESwNinfBamOwjLgGTe1gYIDYQKwA+//xzdT2Cy5ItiF+oVq0aXYMIIe/gxYwQQgIOx86QxxE/cwQAwwKA2CVURAbw10c6UazUL126VIUA/P4RTwC3nLFjx8r69etVCMCqYAuChxEfgJgBACHwxRdfaOwAJv9wNTp37py6AyFeAKv9sBJUqlRJxQCACEA2IzNzkQneF0QKrAOOCIUAIaEAL2aEEBJwOHaGPI76mSMoGCvzcMvJnj37ewXR4PMPoQDLQaJEQcsghf///Pnzai2wfR3EGMAagf0IPnZGKAQICQV4MSOEkIDDsTPk4Wfu2ljZvwwWJoQQYjkoloWVP0IIIY4LhQAhhBDLQKAeAvDix4+vlTtRRRSp+OASYAXwAw6qy4DJyJEj1aeYEELcFQoBQgghloFqoFevXtWqucgbPmjQIPntt98sS8OXP39+mTt3rvEo8CCjCDKCnDhxwmghhBD3g0KAEEKIZSADB7J5wBKAwjzIEjJixIi3WTmQArB+/fpa3r9QoUKybt06bQfFihXTNIJZs2aVvHnzau5vE9yvWbOmnDp1SgYPHqxtKEqEPOPIT54jRw6tCArgO4tjYJHAhrzhtv60jx8/lkaNGknFihWNFkIIcU8YLEyInTD4ipCPAzcgTPyRtxvp+5CPGyn6TEqXLq3Fe/r06aPpBGFBOH78uKRJk0Zix46tk/vWrVurYLhw4YJs3rxZz4NogFBAtU8zV3ivXr1kypQpukEg9OzZUy5duqQ5wrt37y4DBgxQwYHnw7FmTvCWLVtKuHDhJFOmTGpd2L59u7aT4IFjZ8jDz9y1sbR/vZ+IEGIH/LkQ8nFevHjhNWbMGK8SJUp4eXh46O8mT548Xv/++6/X6dOn9bH3xNs42svr008/9Ro+fLjejxUrltcPP/yg9zdu3OgVNmxYr5s3b3pduXLFy/vC53XkyBGvFStWeMWPH1+P8Z7ke/366696H/Tv399rx44dXjly5PDynvQbrV5effv29SpYsKDeX7RokVfKlCm9Hjx44OUtWN62k+CDY2fIw8/ctbGyf+kaRAghxBKQnxv5wdu1aycbNmzQGIGZM2fKxYsXpVu3blrkB2B133uSr9uxY8e0AJAJ9oGiRYtqULD3xF+WLFmi7kK2lgUUHbp27dp/2mBlKFCggFYa9RYXb1/DW1yoBQEuQS1atJA6depo5VK89p07d9SdiRBC3BEKAUIIIZaAyp/w18ckG3h4eGiMADaIAFQPBajqCcGAbffu3ernb4KJu3lbt25dWbZsmSxatEgaNmyo7SYRI0aU1KlTa6VQE8QRHDx4UF8HcQHma+C158yZI0+fPtX3h+dExVAIDLgfderUSUUMIa6Al5eXuo4Q18XK/qUQIIQQYgkJEiRQv/u+ffvqCjxABc+1a9dKzpw5dfU+bty4OmGHj/7OnTt15R+VRP0CaUiRLhRxArjvm6pVq2o2osuXL8umTZukQ4cO+h4Ql4A4AcQZYGvcuLFMnDhRRQBey9y+//57fV+4bwoQQpwdTBIjRYqkFjDieqBf0b9WwZGPEEKIZcyYMUNX6ZElCFmDcuXKJWnTplVXnWjRor0N7kVgcLly5TSPf5kyZfRc36tc+fLlk+TJk6u7EG5NzOPat28v169fl1SpUmlGod69e2twMFKWYoUfr4vtyZMnGjhMiLuQIUMGTeFLXA/0K/rXKpg1iBA7weSDPxdCPg6Kh6GqMNxysmfPLuHDhzf2+ICJOVbhEydOHOTiYPhNnj9/XoWC7etACMAagf0ZM2Y0WklowLEz5EGWLGTgGjp0qNFCXAVkZoPb5cCBA42WoEEhQIid8GJGCCEBh2NnyIM0urDGHT58WAU3cQ2QICFbtmyaetnWShoU6BpECCGEEOJCYJLYpk0b3SjCXAP0o9mnVokAQIsAIXbCVS1CCAk4HDtDB6TYReB82bJlpV+/fkYrcVbQh0i8gMQIyJpmFRQChNgJL2aEEBJwOHaGHqjRgSrf6dKlkzFjxmgQP3Eu0IfIiIY0yKtXr7a8D+kaRAghhBDigmDSiLoe6dOn16J8KKg3YcIE2bt3r1oMiOOBftm3b5/2E/oL/Yb+Qz8Gh5CjRYAQO+GqFiGEBByOnY4BKnyjijYmmRACSENJMeB4wO0Hk/88efJI7ty5Nc1yihQpjL3WQyFAiJ3wYkYIIQGHYychjgtdgwghhBBCCHFDKAQIIYQQQghxQygECCGEEEIIcUMoBAghhBBCCHFDKAQIIYQQQghxQygECCGEEEIIcUMoBAghhBBCCHFDKAQIIYQQQghxQygECCGEEEIIcUMoBAghhBBCCHFDKAQIIYQQQghxQygECCGEEEIIcUPCeHlj3CeE+EOYMGGMe4QQQgICpxqEOCYUAoQQQgghhLghdA0ihBBCCCHEDaEQIIQQQgghxA2hECCEEEIIIcQNoRAghBBCCCHEDaEQIIQQQgghxA2hECCEEEIIIcQNoRAghBBCCCHEDaEQIIQQQgghxA2hECCEEEIIIcTtEPk/D3Egx3MwFtsAAAAASUVORK5CYII=;" vertex="1" parent="1">
          <mxGeometry x="1680" y="440" width="479.95" height="230" as="geometry" />
        </mxCell>
        <mxCell id="SwHwOmNfwHO3F5PcCJjN-307" style="edgeStyle=orthogonalEdgeStyle;rounded=0;orthogonalLoop=1;jettySize=auto;html=1;exitX=1;exitY=0.5;exitDx=0;exitDy=0;" edge="1" parent="1" source="SwHwOmNfwHO3F5PcCJjN-306">
          <mxGeometry relative="1" as="geometry">
            <mxPoint x="290.0000000000001" y="729.8387096774193" as="targetPoint" />
          </mxGeometry>
        </mxCell>
        <mxCell id="SwHwOmNfwHO3F5PcCJjN-306" value="&lt;font size=&quot;1&quot;&gt;User choices a option&lt;/font&gt;" style="rounded=0;whiteSpace=wrap;html=1;" vertex="1" parent="1">
          <mxGeometry x="170" y="712.5" width="80" height="35" as="geometry" />
        </mxCell>
        <mxCell id="SwHwOmNfwHO3F5PcCJjN-343" style="edgeStyle=orthogonalEdgeStyle;rounded=0;orthogonalLoop=1;jettySize=auto;html=1;exitX=0.5;exitY=1;exitDx=0;exitDy=0;" edge="1" parent="1" source="SwHwOmNfwHO3F5PcCJjN-308">
          <mxGeometry relative="1" as="geometry">
            <mxPoint x="315" y="910" as="targetPoint" />
          </mxGeometry>
        </mxCell>
        <mxCell id="SwHwOmNfwHO3F5PcCJjN-308" value="" style="rhombus;whiteSpace=wrap;html=1;" vertex="1" parent="1">
          <mxGeometry x="290" y="705" width="50" height="50" as="geometry" />
        </mxCell>
        <mxCell id="SwHwOmNfwHO3F5PcCJjN-313" value="" style="endArrow=classic;html=1;rounded=0;" edge="1" parent="1">
          <mxGeometry width="50" height="50" relative="1" as="geometry">
            <mxPoint x="340" y="730" as="sourcePoint" />
            <mxPoint x="400" y="730" as="targetPoint" />
          </mxGeometry>
        </mxCell>
        <mxCell id="SwHwOmNfwHO3F5PcCJjN-314" value="Process payment" style="text;html=1;align=center;verticalAlign=middle;whiteSpace=wrap;rounded=0;" vertex="1" parent="1">
          <mxGeometry x="340" y="690" width="60" height="30" as="geometry" />
        </mxCell>
        <mxCell id="SwHwOmNfwHO3F5PcCJjN-317" style="edgeStyle=orthogonalEdgeStyle;rounded=0;orthogonalLoop=1;jettySize=auto;html=1;exitX=0.5;exitY=1;exitDx=0;exitDy=0;" edge="1" parent="1" source="SwHwOmNfwHO3F5PcCJjN-315">
          <mxGeometry relative="1" as="geometry">
            <mxPoint x="441.6666666666665" y="780" as="targetPoint" />
          </mxGeometry>
        </mxCell>
        <mxCell id="SwHwOmNfwHO3F5PcCJjN-315" value="&lt;font size=&quot;1&quot;&gt;Validation of ID product&lt;/font&gt;" style="rounded=0;whiteSpace=wrap;html=1;" vertex="1" parent="1">
          <mxGeometry x="401.5" y="710" width="80" height="35" as="geometry" />
        </mxCell>
        <mxCell id="SwHwOmNfwHO3F5PcCJjN-320" style="edgeStyle=orthogonalEdgeStyle;rounded=0;orthogonalLoop=1;jettySize=auto;html=1;exitX=1;exitY=0.5;exitDx=0;exitDy=0;" edge="1" parent="1" source="SwHwOmNfwHO3F5PcCJjN-318">
          <mxGeometry relative="1" as="geometry">
            <mxPoint x="510" y="807.5714285714287" as="targetPoint" />
          </mxGeometry>
        </mxCell>
        <mxCell id="SwHwOmNfwHO3F5PcCJjN-321" style="edgeStyle=orthogonalEdgeStyle;rounded=0;orthogonalLoop=1;jettySize=auto;html=1;exitX=0;exitY=0.5;exitDx=0;exitDy=0;" edge="1" parent="1" source="SwHwOmNfwHO3F5PcCJjN-318">
          <mxGeometry relative="1" as="geometry">
            <mxPoint x="360" y="807.5714285714287" as="targetPoint" />
          </mxGeometry>
        </mxCell>
        <mxCell id="SwHwOmNfwHO3F5PcCJjN-318" value="" style="rhombus;whiteSpace=wrap;html=1;" vertex="1" parent="1">
          <mxGeometry x="416.5" y="782.75" width="50" height="50" as="geometry" />
        </mxCell>
        <mxCell id="SwHwOmNfwHO3F5PcCJjN-322" value="Exist" style="text;html=1;align=center;verticalAlign=middle;whiteSpace=wrap;rounded=0;" vertex="1" parent="1">
          <mxGeometry x="460" y="775" width="60" height="30" as="geometry" />
        </mxCell>
        <mxCell id="SwHwOmNfwHO3F5PcCJjN-323" value="Doesnt exist" style="text;html=1;align=center;verticalAlign=middle;whiteSpace=wrap;rounded=0;" vertex="1" parent="1">
          <mxGeometry x="356.5" y="775" width="60" height="30" as="geometry" />
        </mxCell>
        <mxCell id="SwHwOmNfwHO3F5PcCJjN-326" style="edgeStyle=orthogonalEdgeStyle;rounded=0;orthogonalLoop=1;jettySize=auto;html=1;exitX=1;exitY=0.5;exitDx=0;exitDy=0;" edge="1" parent="1" source="SwHwOmNfwHO3F5PcCJjN-324">
          <mxGeometry relative="1" as="geometry">
            <mxPoint x="670" y="807.9032258064515" as="targetPoint" />
          </mxGeometry>
        </mxCell>
        <mxCell id="SwHwOmNfwHO3F5PcCJjN-324" value="Validate that it is pending payment" style="rounded=0;whiteSpace=wrap;html=1;" vertex="1" parent="1">
          <mxGeometry x="510" y="783" width="110" height="49.75" as="geometry" />
        </mxCell>
        <mxCell id="SwHwOmNfwHO3F5PcCJjN-329" style="edgeStyle=orthogonalEdgeStyle;rounded=0;orthogonalLoop=1;jettySize=auto;html=1;exitX=0.5;exitY=1;exitDx=0;exitDy=0;" edge="1" parent="1" source="SwHwOmNfwHO3F5PcCJjN-327">
          <mxGeometry relative="1" as="geometry">
            <mxPoint x="724.8" y="890" as="targetPoint" />
          </mxGeometry>
        </mxCell>
        <mxCell id="SwHwOmNfwHO3F5PcCJjN-327" value="Select payment method" style="rounded=0;whiteSpace=wrap;html=1;" vertex="1" parent="1">
          <mxGeometry x="670" y="782.75" width="110" height="49.75" as="geometry" />
        </mxCell>
        <mxCell id="SwHwOmNfwHO3F5PcCJjN-331" style="edgeStyle=orthogonalEdgeStyle;rounded=0;orthogonalLoop=1;jettySize=auto;html=1;exitX=0.5;exitY=1;exitDx=0;exitDy=0;" edge="1" parent="1" source="SwHwOmNfwHO3F5PcCJjN-330">
          <mxGeometry relative="1" as="geometry">
            <mxPoint x="724.8888888888889" y="980" as="targetPoint" />
          </mxGeometry>
        </mxCell>
        <mxCell id="SwHwOmNfwHO3F5PcCJjN-330" value="Process payment" style="rounded=0;whiteSpace=wrap;html=1;" vertex="1" parent="1">
          <mxGeometry x="670" y="890" width="110" height="49.75" as="geometry" />
        </mxCell>
        <mxCell id="SwHwOmNfwHO3F5PcCJjN-334" style="edgeStyle=orthogonalEdgeStyle;rounded=0;orthogonalLoop=1;jettySize=auto;html=1;exitX=0;exitY=0.5;exitDx=0;exitDy=0;" edge="1" parent="1" source="SwHwOmNfwHO3F5PcCJjN-332">
          <mxGeometry relative="1" as="geometry">
            <mxPoint x="640" y="1003.9166666666667" as="targetPoint" />
          </mxGeometry>
        </mxCell>
        <mxCell id="SwHwOmNfwHO3F5PcCJjN-335" style="edgeStyle=orthogonalEdgeStyle;rounded=0;orthogonalLoop=1;jettySize=auto;html=1;exitX=0.5;exitY=1;exitDx=0;exitDy=0;" edge="1" parent="1" source="SwHwOmNfwHO3F5PcCJjN-332">
          <mxGeometry relative="1" as="geometry">
            <mxPoint x="725" y="1100" as="targetPoint" />
          </mxGeometry>
        </mxCell>
        <mxCell id="SwHwOmNfwHO3F5PcCJjN-332" value="" style="rhombus;whiteSpace=wrap;html=1;" vertex="1" parent="1">
          <mxGeometry x="700" y="979" width="50" height="50" as="geometry" />
        </mxCell>
        <mxCell id="SwHwOmNfwHO3F5PcCJjN-336" value="Successful process" style="text;html=1;align=center;verticalAlign=middle;whiteSpace=wrap;rounded=0;" vertex="1" parent="1">
          <mxGeometry x="640" y="970" width="60" height="30" as="geometry" />
        </mxCell>
        <mxCell id="SwHwOmNfwHO3F5PcCJjN-337" value="&lt;div style=&quot;text-align: center;&quot;&gt;&lt;font color=&quot;#dedede&quot;&gt;&lt;span style=&quot;background-color: rgb(53, 55, 56);&quot;&gt;Unsucessful process&lt;/span&gt;&lt;/font&gt;&lt;/div&gt;" style="text;whiteSpace=wrap;html=1;" vertex="1" parent="1">
          <mxGeometry x="720" y="1040" width="90" height="20" as="geometry" />
        </mxCell>
        <mxCell id="SwHwOmNfwHO3F5PcCJjN-353" style="edgeStyle=orthogonalEdgeStyle;rounded=0;orthogonalLoop=1;jettySize=auto;html=1;exitX=0;exitY=0.5;exitDx=0;exitDy=0;" edge="1" parent="1" source="SwHwOmNfwHO3F5PcCJjN-338">
          <mxGeometry relative="1" as="geometry">
            <mxPoint x="340" y="1124.7142857142858" as="targetPoint" />
          </mxGeometry>
        </mxCell>
        <mxCell id="SwHwOmNfwHO3F5PcCJjN-338" value="Update order to cancelled" style="rounded=0;whiteSpace=wrap;html=1;" vertex="1" parent="1">
          <mxGeometry x="670" y="1100" width="110" height="49.75" as="geometry" />
        </mxCell>
        <mxCell id="SwHwOmNfwHO3F5PcCJjN-340" style="edgeStyle=orthogonalEdgeStyle;rounded=0;orthogonalLoop=1;jettySize=auto;html=1;exitX=0.5;exitY=0;exitDx=0;exitDy=0;" edge="1" parent="1" source="SwHwOmNfwHO3F5PcCJjN-339">
          <mxGeometry relative="1" as="geometry">
            <mxPoint x="584.8888888888889" y="930" as="targetPoint" />
          </mxGeometry>
        </mxCell>
        <mxCell id="SwHwOmNfwHO3F5PcCJjN-339" value="Update order to paid" style="rounded=0;whiteSpace=wrap;html=1;" vertex="1" parent="1">
          <mxGeometry x="530" y="980.25" width="110" height="49.75" as="geometry" />
        </mxCell>
        <mxCell id="SwHwOmNfwHO3F5PcCJjN-354" style="edgeStyle=orthogonalEdgeStyle;rounded=0;orthogonalLoop=1;jettySize=auto;html=1;exitX=0;exitY=0.5;exitDx=0;exitDy=0;" edge="1" parent="1" source="SwHwOmNfwHO3F5PcCJjN-341">
          <mxGeometry relative="1" as="geometry">
            <mxPoint x="460" y="904.9402985074626" as="targetPoint" />
          </mxGeometry>
        </mxCell>
        <mxCell id="SwHwOmNfwHO3F5PcCJjN-341" value="Send confirmation of the payment via email" style="rounded=0;whiteSpace=wrap;html=1;" vertex="1" parent="1">
          <mxGeometry x="530" y="880" width="110" height="49.75" as="geometry" />
        </mxCell>
        <mxCell id="SwHwOmNfwHO3F5PcCJjN-342" value="Invalid order error" style="rounded=0;whiteSpace=wrap;html=1;" vertex="1" parent="1">
          <mxGeometry x="250" y="782.87" width="110" height="49.75" as="geometry" />
        </mxCell>
        <mxCell id="SwHwOmNfwHO3F5PcCJjN-344" value="Query payment" style="text;html=1;align=center;verticalAlign=middle;whiteSpace=wrap;rounded=0;" vertex="1" parent="1">
          <mxGeometry x="320" y="860" width="60" height="30" as="geometry" />
        </mxCell>
        <mxCell id="SwHwOmNfwHO3F5PcCJjN-346" style="edgeStyle=orthogonalEdgeStyle;rounded=0;orthogonalLoop=1;jettySize=auto;html=1;exitX=0.5;exitY=1;exitDx=0;exitDy=0;" edge="1" parent="1" source="SwHwOmNfwHO3F5PcCJjN-345">
          <mxGeometry relative="1" as="geometry">
            <mxPoint x="315.2380952380952" y="1020" as="targetPoint" />
          </mxGeometry>
        </mxCell>
        <mxCell id="SwHwOmNfwHO3F5PcCJjN-345" value="Apply filter by user, order or date" style="rounded=0;whiteSpace=wrap;html=1;" vertex="1" parent="1">
          <mxGeometry x="260" y="915.25" width="110" height="49.75" as="geometry" />
        </mxCell>
        <mxCell id="SwHwOmNfwHO3F5PcCJjN-348" style="edgeStyle=orthogonalEdgeStyle;rounded=0;orthogonalLoop=1;jettySize=auto;html=1;" edge="1" parent="1" source="SwHwOmNfwHO3F5PcCJjN-347">
          <mxGeometry relative="1" as="geometry">
            <mxPoint x="315" y="1100" as="targetPoint" />
          </mxGeometry>
        </mxCell>
        <mxCell id="SwHwOmNfwHO3F5PcCJjN-347" value="Return list of payment" style="rounded=0;whiteSpace=wrap;html=1;" vertex="1" parent="1">
          <mxGeometry x="260" y="1024.12" width="110" height="49.75" as="geometry" />
        </mxCell>
        <mxCell id="SwHwOmNfwHO3F5PcCJjN-350" value="" style="ellipse;whiteSpace=wrap;html=1;aspect=fixed;" vertex="1" parent="1">
          <mxGeometry x="296" y="1104.88" width="40" height="40" as="geometry" />
        </mxCell>
        <mxCell id="SwHwOmNfwHO3F5PcCJjN-351" value="" style="ellipse;whiteSpace=wrap;html=1;aspect=fixed;" vertex="1" parent="1">
          <mxGeometry x="301" y="1109.88" width="30" height="30" as="geometry" />
        </mxCell>
        <mxCell id="SwHwOmNfwHO3F5PcCJjN-356" style="edgeStyle=orthogonalEdgeStyle;rounded=0;orthogonalLoop=1;jettySize=auto;html=1;exitX=0.5;exitY=1;exitDx=0;exitDy=0;" edge="1" parent="1" source="SwHwOmNfwHO3F5PcCJjN-355">
          <mxGeometry relative="1" as="geometry">
            <mxPoint x="435.04477611940297" y="1120" as="targetPoint" />
          </mxGeometry>
        </mxCell>
        <mxCell id="SwHwOmNfwHO3F5PcCJjN-355" value="" style="rhombus;whiteSpace=wrap;html=1;" vertex="1" parent="1">
          <mxGeometry x="410" y="879.75" width="50" height="50" as="geometry" />
        </mxCell>
        <mxCell id="SwHwOmNfwHO3F5PcCJjN-357" value="" style="rhombus;whiteSpace=wrap;html=1;" vertex="1" parent="1">
          <mxGeometry x="410" y="1100" width="50" height="50" as="geometry" />
        </mxCell>
        <mxCell id="SwHwOmNfwHO3F5PcCJjN-359" style="edgeStyle=orthogonalEdgeStyle;rounded=0;orthogonalLoop=1;jettySize=auto;html=1;exitX=0;exitY=0.5;exitDx=0;exitDy=0;entryX=0.026;entryY=0.706;entryDx=0;entryDy=0;entryPerimeter=0;" edge="1" parent="1" source="SwHwOmNfwHO3F5PcCJjN-342" target="SwHwOmNfwHO3F5PcCJjN-350">
          <mxGeometry relative="1" as="geometry" />
        </mxCell>
      </root>
    </mxGraphModel>
  </diagram>
</mxfile>
